<svg xmlns="http://www.w3.org/2000/svg" viewBox="0 0 512 512"><path fill-opacity=".251" d="M410 385zm-41-151c7 21 12 43 14 65 1 14 1 28-2 42v2c0 2 1 5 3 8 3 6 8 14 14 20 6 7 11 14 12 14v1l1 1c3 3 5 8 14 8 1 0 2-1 4-1 5-1 4-2 9 2 2 2 4 2 8 5v6c2-3 4-6 4-8s-1-3-2-4-4-2-11-4c-2-1-4-2-7-3-2-2-5-3-7-3h-13 8c0-1-1-1-2-1 0-1-1-1-2-1 2-2 4-3 7-4 19-11 27-51 29-72 1-11 1-19 6-27 4-8 13-17 22-30 9-14 20-31 25-40s4-7-8-4c-12 4-37 10-54 14s-27 5-32 4c-4-2-3-6-7-8-3-2-11-1-13-4-6-10-9-6-12-30-1-2-1-6-3-11v-1c0 9-1 18-4 25 0 4-1 8-2 11-1 7-3 10-2 15 0 3 0 6 3 13z"/><path fill="#948A95" d="M277 140c-3 2-1 1-4 3-3 0-2 0-4 1-3 1 0-1-2 1 1-6 4-7 7-10l9-8c4-4 1-2 0-3-3 2-9 5-15 6 2-6 6-12 7-17-4 0-15 4-19 6-8 2-15 5-22 6-2 2-5 3-8 5-4 1-4 2-8 2 4-9 7-19 16-26 0-3 0-1-2-3l-39 20c-1-3-2-5-3-9-6 2-4 5-10 9-5-5-8-11-10-15l-5 15c5 3 2 0 3 5-2 1-2 0-6 2l-22 10c0-9 1-17-2-26-1-4-3-8-3-11-2-6-3-7-4-12-3-3-20-19-25-21 0 14-22 77-12 121 1-4 5-12 5-15l-2 9c4-2 5-6 9-12 3-6 7-9 9-13 0 6-7 14-10 20-6 12-12 29-18 44-8 20-1 12-12 31-2 3-4 6-6 11-13 25-10 53 16 62 7 1 1 0 3-2-5-2-16-9-17-16 9 2 19 2 24-5 6-6 4-15 1-25v-4c3 2 6 7 8 10 9 8 16 28 15 42l-4 1h-1l-4 3c-2 4-1 1-2 5-5 17 87 19 106 17 4-1 9-4 14-6s7-6 13-9c10-16 7-10 7-16-1-6 2-16 5-20 3-5 9-14 12-17 1-3 9-11 15-10-8 2-31 32-30 46l3-4c4-5 4-9 7-15h2s4 6 9 7c24 5 35-13 41-16 3-2 5-13 5-16 2-9 0-11 0-16-2-8 0-3 0-5 1 8 4 10 4 18l1 7v10c-2 17-19 32-32 39-4 2-8 5-14 7-4 1-10 3-14 1-3 0-4-2-5-5-1-2 0-1-2-2-4-2-2-1-6-1-3 8-9 16-9 26 3-3 4-7 8-10 5 0 13 10 15 16 6-2 2-4 8-6 3 5 5 14 8 17 12 7 30 2 41-1 21-6 42-31 49-50 5-16 9-26 7-42 1-15-11-53-16-65l-22-40c-2-3-6-9-6-13 3 1 3 2 4 4 6 3 3 5 8 5 6-7 14-39 15-48l3-43c0-3-1-8 0-11s0 0 2-2c-2-3 2-2-3-2-26 18-44 30-64 53l-20 21z"/><path fill-opacity=".251" d="M24 384c0 12-3 2-18 11l2 23c1 3 6 6 8 8 9 7 9 4 14 8l2 2c11 4 2-1 14-1l20 2c5 0 10 2 17 3 9 2 11-1 18-1 0-1 0-5 7-5 2 1 10 6 16 8 2 0 3 0 4 1l6 2c14 1 28 4 41 5 15 1 15 1 30-1 7-2 3-2 8-5 2 0 10 4 10-2 0-3 1-1-1-2 7 0 31 2 36 0l1-1c3-1 1-4 12-1 4 1 11 3 16 3l39 1c0-4 0-8 1-11l1-3c6-5 15-1 17 0 4 3 8 3 12 3 6 0 22 1 26 0 10-3-1-5 22-5 5-1 7-2 10-3 6-2 9-1 14-3 3-3 2-4 5-6s8-3 12-7v-7c-15-8-9-8-17-6-12 3-15-4-18-7 1 11-32 17-42 20-23 4-26-2-38 6-14 7-40 7-54 3-5-1-4-3-11 0-6 2-18 3-26 1-17-3-12-9-19-8-10 1-18 3-29 2-8 0-20-1-28-3-6 0-21-6-25-5-4 0-7 4-11 5-35 9-44 1-53 2-4 1-5 2-12 1-17-2-28-13-29-32-2 2-7 2-10 5z"/><path fill="#1B0C23" d="M235 123l-3 2h2c7-1 14-4 22-6 4-2 15-6 19-6-1 5-5 11-7 17 6-1 12-4 15-6 1 1 4-1 0 3 0 3-1 5-2 7-4 4-2 0-4 4-1 2-2 1 0 2l20-21c20-23 38-35 64-53l4-2c2 24 6 49 6 74-1 62-5 43-8 70-3-4-3-6-4-11-2 2-2 5-2 6-3-12-19-29-21-36-1-2-1-3-4-4 0 4 4 10 6 13l22 40c5 12 17 50 16 65 2 2 2 17 3 22 1 16-3 51-11 63 1-3 7-6 10-15-1 4 0 3 1 4l1-4 13 20c4 2 0 0 4 4l11 13c-8 10-50 14-63 14 5-5 13-11 14-17-7 10-21 19-35 24-30 10-29 3-51 0l-1-2c-7 2-5 6-15 7-7 0-15 2-18-2-10-1-14-11-14-21-1-10 4-18 6-27 4 1 3 2 8 2 3-5 6-12 10-16l1 3c3 1 2 0 6 3 1 1 1 3 1 4 2 4 3 4 6 6h2c3-2 3-1 4-4 2 2 5 10 6 13 2 6 1 12 4 16 2-6 1-10 0-17-3-3-5-12-8-17-6 2-2 4-8 6-2-6-10-16-15-16-4 3-5 7-8 10 0-10 6-18 9-26 0-1 1-2 2-3 6 4 4 1 6 3 5 3 2 5 5 6 4 2 26-8 32-14 17-15 23-21 27-48 0-8-3-10-4-18 0 2-2-3 0 5 0 5 2 7 0 16 0 3-2 14-5 16-1 15-29 38-49 40-3-5-1-6-6-5l-2-6c-7 1-4 0-5-1-1-14 22-44 30-46-6-1-14 7-15 10-3 3-9 12-12 17-3 4-6 14-5 20 0 6 3 0-7 16-1 7-6 13-5 21l-4 1c-5 1-8 12-10 16-2 12 0 17 0 26-9 2-36 5-43 0-14 0-36-5-49-11-16-7-21-13-30-26 3 14 10 20 21 26 4 3 6 4 9 7-3 3-4 3-9 5-13 4-23 5-37 3v-7c-8 7-22 9-30 3-26-7-11-39-9-49 5 1 3 1 6 2 6-8 5-9 12-14 1-2-2-2 3-2 2 7 8 12 9 17 5-2 0-2 6-5 1-1-1-2 2 1 5 4 10 20 9 28 5-13-4-24-8-34-5-1-4 2-9 4-4-4-6-10-11-13-7 1-7 7-12 10-2-11 4-30 9-36 3 2 3 4 6 7 5 4 17 12 25 13l10 2c1-2 1-3 2-5 3-2 0 1 4-1 2-4-1-2 3-7 6-3-6-30-7-35-2-3-5-8-8-10v4c8 5 14 38 14 39l-5 6v1c-5 5-4 5-4 5v2c-5-1-13-3-16-5-26-9-29-37-16-62 2-5 4-8 6-11 11-19 4-11 12-31 6-15 12-32 18-44 3-6 10-14 10-20-2 4-6 7-9 13-4 6-5 10-9 12l2-9c0 3-4 11-5 15-10-44 12-107 12-121 5 2 22 18 25 21l11 11 2 1 6 8c2 1 7 8 10 7-3-10-33-38-47-47-5-2-6-3-8-5-8 30-20 79-17 112 2 18 4 23-3 38-3 11-6 21-10 32-3 5-6 9-8 13-6 12-11 22-9 35 0 13 4 6-2 17-6 10-8 24-9 35-2 2-3 1-5 5-2 2-3 7-3 9-3 5-5 11-5 17 1 19 12 30 29 32 7 1 8 0 12-1 9-1 18 7 53-2 4-1 7-5 11-5 4-1 19 5 25 5 8 2 20 3 28 3 11 1 19-1 29-2 7-1 2 5 19 8 8 2 20 1 26-1 7-3 6-1 11 0 14 4 40 4 54-3 12-8 15-2 38-6 10-3 43-9 42-20l-1-2c-3-1-30-34-29-42 0-5 2-15 2-22 2-31-5-60-14-87-6-20-4-12 1-37 8-38 5-101-3-136-7 1-34 22-41 27-9 7-31 26-35 33-8-2-4 0-18 5 1-7 8-12 6-18-4 4-38 13-44 15z"/><path fill="#5F5666" d="M92 332c0 7 1 7-1 12-3 3-3 5-7 3 4 10 13 21 8 34 1-8-4-24-9-28-3-3-1-2-2-1 3 5-2-1 1 9 14 37-23 43-33 36 1 1 3 4 5 6 8 6 22 4 30-3v7c14 2 24 1 37-3 5-2 6-2 9-5-3-3-5-4-9-7-11-6-18-12-21-26-2-3-4-2-5-9 6 2 7 16 38 32 8 4 17 6 26 9l21 3c8 1 7 1 8 3l-9-1c7 5 34 2 43 0 0-9-2-14 0-26 2-4 5-15 10-16l4-1c-1-8 4-14 5-21-6 3-8 7-13 9s-10 5-14 6c-19 2-111 0-106-17 1-4 0-1 2-5l4-3h1l4-1c1-14-6-34-15-42 1 5 13 32 7 35-4 5-1 3-3 7-4 2-1-1-4 1-1 2-1 3-2 5l-10-2zM279 374c1 7 2 11 0 17-3-4-2-10-4-16-1-3-4-11-6-13-1 3-1 2-4 4h2c2 13 4 24-3 33-8 10-19 9-30 6 6 9 6 4 5 7 3 4 11 2 18 2 10-1 8-5 15-7l1 2c22 3 21 10 51 0 14-5 28-14 35-24-1 6-9 12-14 17 13 0 55-4 63-14l-11-13c-4-4 0-2-4-4 1 5 2 6 2 13-7 0-19 3-26 0-1-5 9-21 10-29-1-1-2 0-1-4-3 9-9 12-10 15 8-12 12-47 11-63-1-5-1-20-3-22 2 16-2 26-7 42-7 19-28 44-49 50-11 3-29 8-41 1zM361 66c5 0 1-1 3 2-2 2-1-1-2 2s0 8 0 11l-3 43c-1 9-9 41-15 48-5 0-2-2-8-5 2 7 18 24 21 36 0-1 0-4 2-6 1 5 1 7 4 11 3-27 7-8 8-70 0-25-4-50-6-74l-4 2z"/><path fill="#948A95" d="M54 403c-2-2-4-5-5-6 10 7 47 1 33-36-3-10 2-4-1-9-6 3-1 3-6 5-1 3 0 0-1 2l-7 3c-4-9-3-18-4-20-7 5-6 6-12 14-3-1-1-1-6-2-2 10-17 42 9 49zM239 412c1-3 1 2-5-7 11 3 22 4 30-6 7-9 5-20 3-33h-4c-6 0-2 1-7 3-3-6-3-10-6-16l-1-3c-4 4-7 11-10 16-5 0-4-1-8-2-2 9-7 17-6 27 0 10 4 20 14 21z"/><path fill="#C65A58" d="M153 249l-10 10s0 1 0 0l-1 1c8 1-7 2-9 2-3 6 2 1-2 5h88c-5-2-5 2-4-4-3-5 0-3 1-3l-8-11c-10 1-19 0-28 0h-27zM213 251v-2c1 2 1 2 3 4 1 0 4 2 6 3s7 2 12 2c14-1 14-8 22-9 0-7 0-1-4-4h-4c1 0 9-3 11-4 2-9-1-10-1-17-9 1-21 7-31 9-1 6 0 13-5 15-2-4-2-6-2-12l-10 3c0 5 0 6 2 10 1 3 0 1 1 2z"/><path fill="#5F5666" d="M250 322c1 1-2 2 5 1l2 6c5-1 3 0 6 5 20-2 48-25 49-40-6 3-17 21-41 16-5-1-9-7-9-7h-1-1c-3 6-3 10-7 15l-3 4z"/><path fill="#948A95" d="M84 347c4 2 4 0 7-3 2-5 1-5 1-12-8-1-20-9-25-13-3-3-3-5-6-7-5 6-11 25-9 36 5-3 5-9 12-10 5 3 7 9 11 13 5-2 4-5 9-4z"/><path fill="#C65A58" d="M110 234c1 0 0 0 3 1s-2 0 2 0c4 4 2 10 7 15 4 3 10 4 16 4 10 0 6-5 8-2 3-1 5-3 6-7 2-10-1-10-2-11-5 2 1 4-5 10l-3-1v-12c-8-3-20-9-26-9-1 2-1 4-1 6-1 6 1 6-5 6z"/><path fill="#5F5666" d="M85 328c3 2 11 4 16 5v-2s-1 0 4-5v-1l5-6c0-1-6-34-14-39 3 10 5 19-1 25-5 7-15 7-24 5 1 7 12 14 17 16-2 2 4 3-3 2z"/><path fill="#1B0C23" d="M208 249l8 11c9 6 16 6 28 2 4 0 7-3 11-6 3-4 4-7 6-12-2 0 3-1-3 0-3 9-10 16-20 17-11 2-24-2-25-10-1-1 0 1-1-2-2-4-2-5-2-10l10-3c0 6 0 8 2 12 5-2 4-9 5-15 10-2 22-8 31-9 0 7 3 8 1 17 6-3 2 1 3-5l-1-14 9-3c3 7 4 20 0 27-1 8-5 10-7 15v1c4-4 10-10 11-18 2-9 2-21-2-28-7-1-53 18-66 20l2 13z"/><path fill="#5F5666" d="M165 123c-4 4-2-2-1-4-2 1-1 1-5-1-2 1-7-6-9-7l-6-8-2-1-11-11c1 5 2 6 4 12 0 3 2 7 3 11 3 9 2 17 2 26l22-10c4-2 4-1 6-2-1-5 2-2-3-5z"/><path fill="#948A95" d="M379 355c-1 8-11 24-10 29 7 3 19 0 26 0 0-7-1-8-2-13l-13-20-1 4z"/><path fill="#5F5666" d="M249 331c4 0 2-1 6 1 2 1 1 0 2 2 1 3 2 5 5 5 4 2 10 0 14-1 6-2 10-5 14-7 13-7 30-22 32-39v-10l-1-7c-4 27-10 33-27 48-6 6-28 16-32 14-3-1 0-3-5-6-2-2 0 1-6-3-1 1-2 2-2 3z"/><path fill="#948A95" d="M100 366c9 13 14 19 30 26 13 6 35 11 49 11l9 1c-1-2 0-2-8-3l-21-3c-9-3-18-5-26-9-31-16-32-30-38-32 1 7 3 6 5 9z"/><path fill="#1B0C23" d="M164 119c-1 2-3 8 1 4l5-15c2 4 5 10 10 15 6-4 4-7 10-9 1 4 2 6 3 9l39-20c2 2 2 0 2 3-1 4-1 5-2 8v4c0 10-1 2 1 5 2-9 4-16 4-24-16 5-28 14-43 19l-3-8c-6 3-6 6-12 8l-8-12-1-1c-3 2-6 9-6 14zM103 249h2l-1-7c-3-5 0-21 3-24l6 1v1c0 6-3 4-3 14 6 0 4 0 5-6 0-2 0-4 1-6 6 0 18 6 26 9v12c5-2 3-7 2-11l1 1 1-3c-9-4-31-17-40-17-7 9-7 25-3 36z"/><path fill="#FDFDFD" d="M262 236c-1 6 3 2-3 5-2 1-10 4-11 4h4l6-1c6-1 1 0 3 0-2 5-3 8-6 12-4 3-7 6-11 6 1 5-2 3 4 3l5-2c5-1 5-2 10-2 2-5 6-7 7-15 1-7 0-3-2-10-3 2-3-1-4 3 0-5 1-1-2-3z"/><path fill="#4F090A" d="M142 243l3 1c6-6 0-8 5-10 1 1 4 1 2 11-1 4-3 6-6 7-4 5-12 8-21 4-6-4-11-9-10-18-7-1-2-1-5 1 3 12 7 17 16 20 6 1 9 1 16 1l1-1c0 1 0 0 0 0l10-10 3-12-6-5-4-2-1 3-1-1c1 4 3 9-2 11z"/><path fill="#B5B5B5" d="M262 236c3 2 2-2 2 3 1-4 1-1 4-3 2 7 3 3 2 10 4-7 3-20 0-27l-9 3 1 14z"/><path fill="#EE896E" d="M213 251c1 8 14 12 25 10 10-1 17-8 20-17l-6 1c4 3 4-3 4 4-8 1-8 8-22 9-5 0-10-1-12-2s-5-3-6-3c-2-2-2-2-3-4v2z"/><path fill="#5F5666" d="M234 125h-2l3-2c-3 1-1 1-2 0-2-3-1 5-1-5v-4c1-3 1-4 2-8-9 7-12 17-16 26 4 0 4-1 8-2 3-2 6-3 8-5z"/><path fill="#EE896E" d="M115 238c-1 9 4 14 10 18 9 4 17 1 21-4-2-3 2 2-8 2-6 0-12-1-16-4-5-5-3-11-7-15l1 3h-1z"/><path fill="#B5B5B5" d="M104 242v-9c4 0 4 0 6 1 0-10 3-8 3-14v-1l-6-1c-3 3-6 19-3 24z"/><path fill="#5F5666" d="M75 357c-1-5-7-10-9-17-5 0-2 0-3 2 1 2 0 11 4 20l7-3c1-2 0 1 1-2z"/><path fill="#dcdcdc" d="M107 248c1 7 8 9 13 12l6-1c-9-3-13-8-16-20 3-2-2-2 5-1-4-3 4-2-4-2-3 5-1 6-2 9v1l-2 1c-3 5 2 1 0 1zM130 170c10 4 11-7 7-10-6-3-10 4-7 10z"/><path fill="#FDFDFD" d="M104 242l1 7 2-1c2 0-3 4 0-1l2-1v-1c1-3-1-4 2-9 8 0 0-1 4 2h1l-1-3c-4 0 1 1-2 0s-2-1-3-1c-2-1-2-1-6-1v9z"/><path fill="#5F5666" d="M277 140c-2-1-1 0 0-2 2-4 0 0 4-4 1-2 2-4 2-7l-9 8c-3 3-6 4-7 10 2-2-1 0 2-1 2-1 1-1 4-1 3-2 1-1 4-3z"/><path fill="#C65A58" d="M120 260c-5-3-12-5-13-12l-2 1h-2c2 7 5 5 7 11 5 0 8 2 10 0z"/><path fill="#5F5666" d="M263 366c-3-2-4-2-6-6 0-1 0-3-1-4-4-3-3-2-6-3 3 6 3 10 6 16 5-2 1-3 7-3zM150 232l6 5 3-10c-6 1-1 3-9 5z"/><path fill="#1B0C23" d="M151 292c3-3 3-6 10-4 4 1 4 4 7 7 0-10-15-13-17-3z"/><path fill="#dcdcdc" d="M127 182c2-3 2-1 0-5-1 1-1-1-1 2-1 3-1 1 1 3z"/><path fill="#1B0C23" d="M96 276c-2-3-1-3-4-5 1 3 1 4 4 5z"/><path fill="#EE896E" d="M213 251c1 9 16 12 25 10 10-1 17-8 20-17l-6 1c1 0 1 0 3 1v1c1 0 0 1 0 2-8 3-7 8-21 9-10 0-16-2-21-9v2zM115 238c-1 18 19 25 31 14-1-1-2 2-8 2-5 0-9 0-11-2-11-5-8-13-12-17l1 3h-1z"/><path fill="#FDFDFD" d="M262 236v3l-3 2-11 4h4l6-1h3c-4 7-9 18-17 18 1 6 0 3 4 3l5-2c5-1 5-2 10-2 2-6 6-7 7-15 0-7 0-3-2-10-4 2-3-1-4 2l-2-2zM104 242l1 7 2-1 2-3c1-4-2-2 1-9 8 1 1-1 5 2h1l-1-3-5-1c-3-1 0-1-5-1l-1 9z"/><path fill="#dcdcdc" d="M107 248c1 6 12 13 19 11-10-3-13-10-16-20l5-1c-4-3 3-1-5-2-3 7 0 5-1 9l-2 3zM130 170c5 2 1 1 5 0 6-5 4-11-3-10-4 3-5 5-2 10zM126 182c3-2 3-1 1-5-3 2-4 1-1 5z"/><path fill="#C65A58" d="M153 249l-11 11c7 1-4 2-7 2-8 1 0 1-4 5h88c-5-2-3 1-5-2 0-3 1-5 2-5-2-3-6-8-8-11-10 1-19 0-29 0h-26zM213 251v-2c5 7 11 9 21 9 14-1 13-6 21-9 0-1 1-2 0-2v-1c-2-1-2-1-3-1h-4l11-4c1-8 0-10-2-17-6 0-22 7-30 9-1 5 0 13-5 15-2-4-2-5-2-12l-10 3c0 6 0 9 3 12zM110 234l5 1c4 4 1 12 12 17 2 2 6 2 11 2 6 0 7-3 8-2 5-2 9-13 4-18-3 1-1 0-3 7-1 3 0 2-2 3l-3-1v-12c-7-3-20-10-25-9-7 9 1 12-7 12z"/><path fill="#1B0C23" d="M235 123l-3 2h2c14-2 35-13 41-12l-7 17c6-1 12-3 15-6 1 2 3 0 0 3 0 3 0 4-2 7-4 4-7 5-4 6 5-5 14-15 20-21 7-7 12-13 20-19 13-12 28-22 44-34l4-2c4 21 6 52 6 74-1 28-1 42-9 70l-2-4c0-3 1-3-2-7l-1 3v3c-4-12-19-29-21-36l-4-4c0 3 4 9 6 13l22 40c5 13 17 51 16 65 4 5 3 36 2 46-1 12-5 29-10 39 2-5 7-7 10-15 0 4 0 3 1 4l1-4 13 20 15 17c-8 10-51 15-63 14 5-5 13-11 14-17-7 10-23 20-35 24-15 5-21 7-39 4-5-1-6-3-12-4-1-4 1 1-1-4-7 5-6 8-15 9-6 0-15 2-18-2-21-3-13-36-8-48 5 2 2 2 8 2l10-16 1 3c5 2 9 10 13 13h2l4-4c3 2 5 10 6 13 2 6 1 12 4 16 2-6 1-10 0-17-3-2-5-12-8-17-5 2-3 3-6 6-7-4-9-15-17-17l-8 11c-1-10 6-18 9-26l3-3c5 4 3 1 5 3 5 3 0 1 5 6 12 1 32-13 41-20 13-13 15-23 18-42 0-6-2-12-4-18v5c0 3 0 4 1 6 1 7-2 24-6 26-1 18-31 37-49 40-2-4-2-6-7-5l-1-7c-6 2-2 1-5 0-1-13 20-43 30-47-9 0-23 20-27 28-13 25 2 18-7 28-2 2-4 7-5 8-1 7-6 13-5 21-3 2-1 1-4 1-4 0 2-1-1 0-4 6-7 12-9 19-2 10 0 17-1 23-28 6-94-1-115-26l-4-5c-1-1-2-3-3-5 5 8 4 11 12 19 6 4 16 9 19 13-8 9-34 10-46 8-1-5 0 3 0-3 0-3 1-1 0-4-9 8-23 8-30 3-24-6-14-32-9-49 5 1 3 1 6 2 5-5 3-9 12-14 1-2-1-1 1-1l11 16c5-2 0-2 6-5l1-1c6 12 11 16 10 30 5-13-2-22-8-34-5-1-4 2-9 4l-11-13c-7 2-7 7-12 10-2-10 4-28 9-38 6 8 5 9 14 14 2 3 11 8 17 8l10 2c4-8-1-2 5-6l2-2c2-5 2-3 4-5 0-15-5-23-9-35-3-4-5-8-9-10l1 4c8 5 13 29 14 39-2 5 4-4-1 2h-1l-1 1c-5 8-2 2-5 7-1 0-1 1-1 4-5-1-13-3-16-5-16-6-25-22-24-38 2-19 12-30 19-44 3-4 1 0 2-4 1-9 11-33 14-41 2-6 5-15 9-21 3-6 10-14 10-20l-21 31c-4-19-1-42 1-62 2-10 4-21 6-30 1-10 5-19 6-29 4 2 21 18 24 21 6 4 26 29 28 27-3-14-44-45-54-52-9 34-19 78-17 114 2 18 4 20-3 38-3 10-6 21-11 32-7 16-19 29-16 48 1 12 3 5-2 16-6 10-8 24-9 34-7 5-4 2-9 15-2 5-4 10-4 16 1 19 11 30 30 32 7 1 8-1 12-1s25 6 43 0c3-1 22-8 23-8 4 1 17 6 25 7 23 3 33 2 56 0 3 0 12 15 45 6 5-1 31 8 52 1 11-3 13-7 23-7 9 0 18-1 27-2 10-3 42-9 41-20l-1-2c-2-1-31-33-29-44 6-36-1-72-12-107-6-18-3-13 1-39 8-33 6-105-3-134-13 1-67 48-76 59-5 0-1-2-8 1-3 2-7 4-10 5 1-7 8-12 6-18-4 4-16 6-22 7-8 3-15 5-22 8z"/><path fill="#1B0C23" d="M208 249c2 3 6 8 8 11 10 7 17 5 28 2 8 0 13-11 17-18h-3c-3 9-10 16-20 17-9 2-24-1-25-10-3-3-3-6-3-12l10-3c0 7 0 8 2 12 5-2 4-10 5-15 8-2 24-9 30-9 2 7 3 9 2 17l3-2v-3l-1-14 9-3c3 8 4 20 0 27-1 8-5 9-7 15v2c5-6 10-11 11-19 2-8 2-21-2-28-7-1-39 12-49 16-19 7-18 1-15 17zM164 119l-1 5 2-1 5-15c3 5 5 10 10 15 6-4 4-7 9-9l4 9 40-20c2 2 1-1 1 3-1 3-1 5-2 8v4c0 7 0 3 1 5 2-9 5-16 4-24-13 3-31 14-43 19l-3-8c-5 2-6 6-12 8l-9-14c-4 4-6 10-6 15zM105 249l-1-7c-3-5-1-20 3-24h6c1 6-3 8-3 16 8 0 0-3 7-12 5-1 18 6 25 9v12c5-4 3-8 2-11l1 1 1-3c-11-4-30-17-40-17-5 5-5 12-5 18-1 3-1 6 0 11 1 9 2 7 4 7zM151 291c3-2 3-5 10-3 4 1 4 5 7 6 0-9-15-11-17-3z"/><path fill="#5F5666" d="M92 332c1 10 0 9-5 16l-3-1c6 12 13 21 8 34 1-14-4-18-10-30l-1 1c3 4-2-1 1 9 13 37-21 43-33 36 1 1 3 4 5 6 7 5 21 5 30-3 1 3 0 1 0 4 0 6-1-2 0 3 12 2 38 1 46-8-3-4-13-9-19-13-8-8-7-11-12-19 1 2 2 4 3 5l4 5c21 25 87 32 115 26 1-6-1-13 1-23 2-7 5-13 9-19 3-1-3 0 1 0 3 0 1 1 4-1-1-8 4-14 5-21-10 4-12 12-27 15-21 3-60 0-80-4-9-2-25-3-27-14 1 0 6-6 6-6 2-1 1-1 4-1 2-1-1 1 2-1 1-14-5-33-15-42 4 12 9 20 9 35-2 2-2 0-4 5l-2 2c-6 4-1-2-5 6l-10-2zM279 374c1 7 2 11 0 17-3-4-2-10-4-16-1-3-3-11-6-13l-4 4h2c2 15 6 33-16 42-6 1-11-1-16-1l3 3c1 2 2 0 1 2 3 4 12 2 18 2 9-1 8-4 15-9 2 5 0 0 1 4 6 1 7 3 12 4 18 3 24 1 39-4 12-4 28-14 35-24-1 6-9 12-14 17 12 1 55-4 63-14l-15-17c1 5 2 6 2 12-7 1-19 3-26 1-1-6 9-20 10-29-1-1-1 0-1-4-3 8-8 10-10 15 5-10 9-27 10-39 1-10 2-41-2-46 2 16-1 26-7 42-8 21-30 45-49 50-11 3-29 8-41 1zM361 66l2 1c-2 3-3 43-4 57-1 8-10 42-15 48-4 0-3-2-8-5 2 7 17 24 21 36v-3l1-3c3 4 2 4 2 7l2 4c8-28 8-42 9-70 0-22-2-53-6-74l-4 2zM250 322c3 1-1 2 5 0l1 7c5-1 5 1 7 5 18-3 48-22 49-40-5 3-7 9-23 16-5 3-13 2-18 0-6-1-6-5-10-8-4 6-6 15-9 19l-2 1z"/><path fill="#5F5666" d="M85 328c3 2 11 4 16 5 0-3 0-4 1-4 3-5 0 1 5-7l1-1h1c5-6-1 3 1-2-1-10-6-34-14-39 5 23 4 33-25 30 1 7 12 13 17 17l-3 1zM165 123l-2 1 1-5c-3 1 0 1-5-1-2 2-22-23-28-27 2 8 4 15 7 23 3 9 2 17 2 25l22-9c4-2 4-1 7-2-2-4 0-3-4-5zM249 331c11 2 6 6 12 8 5 2 11 0 15-1 14-5 14-9 23-14 15-7 29-33 22-49-3 19-5 28-18 42-9 7-29 21-41 20-5-5 0-3-5-6-2-2 0 1-5-3l-3 3zM234 125h-2l3-2c-3 1-1 1-2 0-1-2-1 2-1-5v-4c1-3 1-5 2-8-9 7-12 17-16 26 5 0 13-4 16-7zM75 357l-11-16c-2 0 0-1-1 1 1 1 0 6 1 9 2 4 3 8 3 11 3 0 7-2 8-5zM277 140c-3-1 0-2 4-6 2-3 2-4 2-7-2 2-1 1-3 4-6 5-12 7-13 14 4-4 7-1 10-5zM263 366c-4-3-8-11-13-13l6 16c5-1 1-3 7-3z"/><path fill="#B5B5B5" d="M262 236l2 2c1-3 0 0 4-2 2 7 2 3 2 10 4-7 3-19 0-27l-9 3 1 14zM104 242l1-9c5 0 2 0 5 1 0-8 4-10 3-16h-6c-4 4-6 19-3 24z"/><path fill="#948A95" d="M151 291c2-8 17-6 17 3-3-1-3-5-7-6-7-2-7 1-10 3zm-5-61l10 4c1 7-1 9-3 15h26c10 0 19 1 29 0-3-16-4-10 15-17 10-4 42-17 49-16 4 7 4 20 2 28-1 8-6 13-11 19v-2c-5 0-5 1-10 2l-5 2c-4 0-3 3-4-3-11 3-18 5-28-2-1 0-2 2-2 5 2 3 0 0 5 2h-88c4-4-4-4 4-5 3 0 14-1 7-2l-16-1c-7 2-18-5-19-11l-2 1c-2 0-3 2-4-7-1-5-1-8 0-11 0-6 0-13 5-18 10 0 29 13 40 17zm-19-53c2 4 2 3-1 5-3-4-2-3 1-5zm3-7c-3-5-2-7 2-10 7-1 9 5 3 10-4 1 0 2-5 0zm147-30c-3 4-6 1-10 5 1-7 7-9 13-14 2-3 1-2 3-4 3-3 1-1 0-3-3 3-9 5-15 6l7-17c-6-1-27 10-41 12-3 3-11 7-16 7 4-9 7-19 16-26 0-4 1-1-1-3l-40 20-4-9c-5 2-3 5-9 9-5-5-7-10-10-15l-5 15c4 2 2 1 4 5-3 1-3 0-7 2l-22 9c0-8 1-16-2-25-3-8-5-15-7-23-3-3-20-19-24-21-1 10-5 19-6 29-2 9-4 20-6 30-2 20-5 43-1 62l21-31c0 6-7 14-10 20-4 6-7 15-9 21-3 8-13 32-14 41-1 4 1 0-2 4-7 14-17 25-19 44-1 16 8 32 24 38l3-1c-5-4-16-10-17-17 29 3 30-7 25-30l-1-4c4 2 6 6 9 10 10 9 16 28 15 42-3 2 0 0-2 1-3 0-2 0-4 1 0 0-5 6-6 6 2 11 18 12 27 14 20 4 59 7 80 4 15-3 17-11 27-15 1-1 3-6 5-8 9-10-6-3 7-28 4-8 18-28 27-28-10 4-31 34-30 47l2-1c3-4 5-13 9-19 4 3 4 7 10 8 5 2 13 3 18 0 16-7 18-13 23-16 4-2 7-19 6-26-1-2-1-3-1-6v-4-1c2 6 4 12 4 18 7 16-7 42-22 49-9 5-9 9-23 14-4 1-10 3-15 1-6-2-1-6-12-8-3 8-10 16-9 26l8-11c8 2 10 13 17 17 3-3 1-4 6-6 3 5 5 15 8 17 12 7 30 2 41-1 19-5 41-29 49-50 6-16 9-26 7-42 1-14-11-52-16-65l-22-40c-2-4-6-10-6-13l4 4c5 3 4 5 8 5 4-6 14-40 15-48 1-14 2-54 4-57l-2-1c-16 12-31 22-44 34-8 6-13 12-20 19-6 6-15 16-20 21zM54 403c-2-2-4-5-5-6 12 7 46 1 33-36-3-10 2-5-1-9-6 3-1 3-6 5-1 3-5 5-8 5 0-3-1-7-3-11-1-3 0-8-1-9-9 5-7 9-12 14-3-1-1-1-6-2-5 17-15 43 9 49z"/><path fill="#948A95" d="M239 412c1-2 0 0-1-2l-3-3c5 0 10 2 16 1 22-9 18-27 16-42h-4c-6 0-2 2-7 3l-6-16-1-3-10 16c-6 0-3 0-8-2-5 12-13 45 8 48zM84 347l3 1c5-7 6-6 5-16-6 0-15-5-17-8-9-5-8-6-14-14-5 10-11 28-9 38 5-3 5-8 12-10l11 13c5-2 4-5 9-4zM379 355c-1 9-11 23-10 29 7 2 19 0 26-1 0-6-1-7-2-12l-13-20-1 4z"/><path fill="#4F090A" d="M142 243l3 1c2-1 1 0 2-3 2-7 0-6 3-7 5 5 1 16-4 18-12 11-32 4-31-14l-5 1c3 10 6 17 16 20l16 1 11-11c2-6 4-8 3-15l-10-4-1 3-1-1c1 3 3 7-2 11z"/></svg>