<svg xmlns="http://www.w3.org/2000/svg" viewBox="0 0 512 512"><g><path fill="#2D9B9B" d="M178 174zm-37 65c10 1 37 6 44 6-4-8-7-59-7-71 0-24 1-45 2-69l1-21c0-9 1-15 1-23l-2-44c0-6-1-7-2-10-2-4 0-4 2-7 5 0 10 1 17 1l50 1h68c4 6 2 4 3 12l1 45v62c0 18 2 75 3 91l1 29c10-2 21-3 31-4l69-4c24 4 45-9 11 49-4 6-7 12-11 18l-11 17c-9 13-16 23-24 35-4 6-7 12-11 18-31 47-45 76-85 116-7 9-14 15-24 21-7 5-5 5-10 5-3 0-12-12-15-15l-14-16c-12-15-26-31-40-49-4-5-8-10-13-15l-49-68c-8-11-15-23-24-36-13-20-26-42-38-63l-5-10c0-3 3-3 7-3 26-7 47-4 74 2z"/><path fill="#030000" d="M281 413c3 1 14 11 18 13 3 3 5 5 9 7 2 2 7 5 10 6-1 3-5 8-7 11-2-1-5-7-7-9l-15-18c-4-4-7-7-8-10zm0 0l-1-1 1 1zm-1-1l-1-1 1 1zm-1-1l-1-1 1 1zm-1-1v-1 1zm0-1l-2-1 2 1zm-2-1l-1-1 1 1zm-1-1zm-33-37zm0 0l-1-1 1 1zm-1-1l-1-1 1 1zm-1-1l-1-1 1 1zm-3-4c3 2 2 1 2 3-2-1-1 0-2-3zm0 0l-1-2 1 2zm-1-2h-2 2zm-64-107c6 0 12 0 16-2 1 3 1 3 3 5 10 10 26 30 36 42l48 57c4 3 7 7 11 10l9 10c17 18 21 19 43 34-2 5-5 8-8 12l-54-57c-2-2-3-5-5-7l-19-21c-10-10-28-31-39-42-6-6-38-37-41-41zm-22-2c21 0 18 4 28 14 4 4 8 8 11 12 7 9 25 25 31 34 2 3 3 4 5 6l101 109c0 3-2 5-4 7-8-2-40-33-48-41l-15-17c-2-3-2-3-5-6l-30-37c-8-10-31-39-41-48l-33-33zm0 0zm84 109c-2-2-4-4-6-7-3-2-4-4-6-6l-76-84c-2-3-10-12-11-15 9 1 7 2 9 4l33 33 46 59c3 4 11 12 11 16zm97-113c4-1 10-1 15-1 2 8 45 42 52 47 5 3 6 3 5 9-7-2-45-33-54-41l-18-14zm18-2c7 0 11 0 17-1 8 11 34 30 47 37l-6 12c-4-1-27-21-30-23-7-6-24-19-28-25zm-232 0c12 0 12 3 16 8l163 185c4 5 7 9 11 14-2 4-3 5-6 7l-11-14c-8-9-19-21-29-31-3-3-4-4-6-7-7-9-17-18-26-26-8-8-15-16-24-26l-24-24-23-27c-12-14-22-26-32-43-3-6-6-11-9-16zm297-1c5 0 9 1 12 1s7-1 12-1c-3 4-4 4-9 11-3-2-13-9-15-11zm-23 0h12c5 1 0-1 9 5l13 11c-1 2-3 4-4 7-3-1-13-8-17-10-4-3-10-8-13-13zm-20 0h9c7 0 7 2 16 12 6 5 15 12 22 16-1 2-1 1-2 4-4 0-8-5-13-7-6-5-27-18-32-25zm-271-1c6 0 8 1 13 1 1 5 6 12 9 16 11 20 28 41 44 57l55 58c3 3 3 4 6 7l47 53c9 9 16 19 24 28-3 4-5 7-9 10-2-4-3-4-5-8l-32-39c-13-14-38-41-46-51-2-3-4-4-6-7l-84-101c-5-8-12-15-16-24zm0 0zm-19-2c6 0 8 1 14 1l20 32c15 22 32 45 49 64 1 2 1 2 3 4 1 2 2 2 3 4l91 102c3 3 23 25 26 28-2 3-8 10-12 11-7-28-65-79-88-104l-7-7-18-23c-24-32-45-64-69-96-2-3-4-5-6-8l-6-8zm-13-1c3 0-2 0 4 2 3 1 2-1 5 2 7 5 82 119 102 140 3 2 4 4 6 7 13 11 23 26 36 36l22 22c7 9 26 33 29 43-2 2-4 3-5 4-3 2-3 3-5 4-3-2-24-28-26-30-3-3-5-5-7-8-19-25-36-45-56-72-30-39-56-77-84-117l-19-28c-3-4-1-4-2-5zm123-8l36 42c15 15 24 26 39 41 14 15 27 27 40 40 9 10 37 33 41 40-2 3-3 5-5 9-8-5-14-11-21-17-11-8-35-33-43-42l-15-15c-3-3-3-3-4-5l-18-21c-2-2-2-3-4-5l-15-15c-1-2-3-4-4-5-7-8-20-25-29-30 1-3 2-2 2-4v-13zm-1-24l15 15c3 3 3 4 5 6l96 94c4 4 7 6 11 10 2 2 4 3 6 5l29 33 6 6c-2 6-6 8-7 13-5-2-16-16-21-20l-64-66c-8-7-14-14-21-21-4-3-8-7-12-11-2-3-2-4-5-6l-35-39c-4-4-3-11-3-19zm0-17c12 5 67 61 73 67 7 10 18 20 27 28l53 45c6 5 23 22 27 28-2 5-5 9-8 13l-75-78c-14-11-36-34-47-43l-34-32c-3-4-6-8-10-12-8-7-6-4-6-16zm110 0c2 1 3 3 6 4 3 3 4 2 4 7-2-1-3-3-5-5-3-3-4-3-5-6zm0 0l-1-2 1 2zm-1-2c-3-1-2-1-4-3 3 1 2 0 4 3zm-4-3l-1-1 1 1zm-104-20l3 3c1 1 1 2 2 3l9 13c2 2 3 4 5 7 7 9 13 16 21 24 2 2 3 3 6 5 11 15 38 36 53 49 19 18 57 44 78 60 3 2 9 8 13 9 0 5-5 7-6 13-4-3-5-8-9-12-20-20-38-32-61-49-37-29-76-79-114-105v-20zm103 19l-1-1 1 1zm-1-1l-1-1 1 1zm-1-1l-1-1 1 1zm-1-1l-1-1 1 1zm-1-1l-1-1 1 1zm-1-1l-1-1 1 1zm-1-1l-1-1 1 1zm-1-1l-1-1 1 1zm-1-1zm-3-2zm0 0l-1-1 1 1zm-1-1l-1-1 1 1zm-1-1l-1-1 1 1zm-1-1l-1-1 1 1zm-89-21c8 4 28 25 36 33l13 13c2 2 3 3 6 5l23 21c3 2 4 4 6 6l31 28c15 11 28 28 42 40l26 22c4 3 10 7 15 8-1 3-3 6-4 8-5-1-95-73-105-82-17-14-21-17-37-34-7-7-4-3-13-12-4-5-15-16-21-25-4-5-7-8-11-13-5-8-7-4-7-18zm2-5l1-19c5 3 11 10 15 14l16 16c3 2 6 4 8 6l77 67c5 6 1 5 4 13 4 13 5-1 16 8l38 33c10 8 20 16 32 22-2 6-7 11-8 18-10-7-22-18-32-26l-61-56c-3-3-4-3-7-6-2-2-3-4-5-6l-69-61c-4-3-25-20-25-23zm1-27c0-2 1-3 1-5 4 3 5 3 8 6 10 11 67 55 86 71l21 20c1 2 2 9 2 13-3-2-30-30-43-40l-30-25c-9-6-45-35-45-40zm85 52c-3-1-6-4-11-7l-73-55c0-25-1-17 21 3l51 48c5 5 9 7 12 11zM196 72l14 15 14 14c19 20 57 44 80 68 4 4 4 2 5 9 1 5 1 10 1 15-2 0-5-6-7-8l-21-22c-2-2-4-4-8-6-8-7-27-25-40-34l-27-24c-13-12-11-6-11-27zm-1-18c3 2 10 12 13 15 24 24 45 45 74 66 6 4 10 8 16 12 12 11 11 7 11 17-13-16-44-37-61-50-15-11-34-27-45-39-9-10-8-9-8-21zm-2-20c2 1 6 6 7 7 20 27 49 48 73 71l33 25c4 4 3 4 3 13l-16-14-15-12-28-23c-2-2-2-3-4-4l-31-27c-5-5-9-10-14-15-1-2-5-6-6-8 0 0-2-12-2-13zm-3-18c1 1 6 4 8 7l34 29c2 2 2 2 5 4 11 11 19 17 30 28l17 14c5 5 10 10 15 14 12 10 10 11 10 20-6-4-10-10-15-14s-10-8-15-14c-12-9-23-16-33-25-12-9-23-18-32-28-2-1-2-2-4-3l-7-7c-1-2-2-3-3-4-7-6-10-11-10-21zm100-3h21c0 5-1 6-1 12-2-1-2-1-5-3l-13-8c-1-1-1 0-2-1zm-18 0c10 0 9 0 20 7l18 11v7c-5-1-36-23-38-25zm-24-1c16 0 16 1 34 14 4 4 8 6 13 9 5 4 8 7 15 9v9c-17-12-22-17-46-31-4-4-14-7-16-10zm-22-1c15 1 15 0 25 6 14 10 51 39 59 40v18c-4-2-4-4-9-9-17-18-48-40-69-51l-6-4zm-18 0c18 0 8-2 25 8 12 7 41 31 53 42l12 12c2 2 4 2 6 5 3 2 4 3 5 7v12c-3-2-5-3-7-4l-57-48c-5-5-34-29-37-34zm-19-1h16c1 5 7 9 11 13 5 4 8 9 12 12 3 3 4 3 8 6 2 2 3 3 6 5s4 4 6 6c3 2 4 3 7 6 8 9 31 26 39 34 4 3 10 8 15 10v11c-3-2-4-4-7-7-3-2-5-3-8-6l-37-32c-3-3-4-5-7-7l-53-45c-4-2-6-3-8-6zm-11 164c0 12 3 63 7 71-7 0-34-5-44-6-27-6-48-9-74-2-4 0-7 0-7 3l5 10c12 21 25 43 38 63 9 13 16 25 24 36l49 68c5 5 9 10 13 15 14 18 28 34 40 49l14 16c3 3 12 15 15 15 5 0 3 0 10-5 10-6 17-12 24-21 40-40 54-69 85-116 4-6 7-12 11-18 8-12 15-22 24-35l11-17c4-6 7-12 11-18 34-58 13-45-11-49l-69 4c-10 1-21 2-31 4l-1-29c-1-16-3-73-3-91V59l-1-45c-1-8 1-6-3-12h-68l-50-1c-7 0-12-1-17-1-2 3-4 3-2 7 1 3 2 4 2 10l2 44c0 8-1 14-1 23l-1 21c-1 24-2 45-2 69z"/></g>
</svg>
