<svg xmlns="http://www.w3.org/2000/svg" viewBox="0 0 512 512"><defs><style>g{display:none}g:target{display:inline}</style></defs><g id="ability"><path d="M280 356c-148 23-167-166-52-199 135-34 185 163 52 199zM54 216c-9 8-16 15-24 23-11 10-20 14-10 25 60 64 158 129 250 120 86-8 153-52 212-111 11-11 20-14 9-25-61-65-156-128-249-121-71 6-136 42-188 89z"/><path d="M249 222c-46 12-31 77 15 68 44-8 31-80-15-68z"/></g><g id="item" fill-rule="evenodd" clip-rule="evenodd"><path d="M67 236h121v37H67v-37zm261 2h115v36H328v-36z"/><path d="M256 31c124 0 225 101 225 225S380 481 256 481 31 380 31 256 132 31 256 31zm0 41c101 0 184 83 184 184s-83 184-184 184S72 357 72 256 155 72 256 72zm0 163c11 0 21 10 21 21s-10 21-21 21-21-10-21-21 10-21 21-21zm-1-35c29 1 54 23 55 55 0 32-28 55-55 55s-55-23-55-55c0-31 26-55 55-55zm2-37c51 1 90 47 90 92 0 51-45 93-92 93-48-1-93-40-93-93 0-52 42-93 95-92z"/></g><path d="M107 164l39 74-140-7 124 72-36 43 65-11-45 144 128-99 28 81 35-67 109 108-52-149 121 18-108-74 131-81-131-7 34-149-92 99-20-119-34 108L159 10l36 167z" id="move"/><path d="M281 177zm-63 253zm-7-401zm-57 115l-3 5c-2 3-4 4-6 4-1 0-3-1-7-2-2-1-3-1-3-1 0 1 1 2 4 4l6 3c2 0 2 1 1 3l-1 2c0 1-1 2 0 2 0 2 0 3 1 3h7c3 0 5 0 5 1 1 1 0 2-1 4l-2 6-1 1c0 1 1 1 2 1l2 1c1 0 1 0 1 1v3c0 1 1 2 2 2s2 0 3-2c1-1 1-2 2-4v-9c0-3 2-5 5-6 2-1 3-1 3-1s0 1-1 3v6c0 2 1 4 2 6 0 1 0 1-1 2l-2 2-2 2c-1 1 0 3 1 4 1 4 3 6 5 6 1 1 2 0 3-2l1-7c1-2 2-4 5-6 2 0 3-1 3 0 1 0 1 0 0 1v1h-1c-1 2-1 4 0 5l1 3c1 1 1 2 1 3-1 1 0 3 1 4s3 2 6 2c1 0 2-1 3-1h1v-1l-1-1c-2-1-2-3-3-4 0-2 1-5 4-9 4-3 6-6 7-8s1-2 2-2l1 2v7c0 2-1 3-1 4h6c3 0 3 0 1 1-1 1-1 2-2 4-1 1-1 2-1 3 1 1 2 1 4 0s4-2 4-4c1-1 1-2 0-3 0-2-1-3-2-3-3-2-3-3 0-3 3-1 5 0 7 1 1 1 3 2 5 2 1 1 3 0 4-1s1-3 0-6c0-5 0-8 2-9 1-1 2-1 5-2l6 1c1 0 2-1 3-2 0-2 0-4-1-6v-3c1 0 2 0 4 2 2 1 4 3 4 5 1 2 1 3-1 4-1 2-3 4-4 6s-1 4 0 4c1 1 2 0 4-3l2-3c1-2 2-3 3-4 5-2 8-3 12-1 1 0 3 2 4 5s2 5 3 5c0 0 1 0 1-1l3-2c2-2 4-3 6-4s4-1 7 0c1 0 1 1 1 1l-2 2c-3 1-4 3-4 5-1 2 0 3 1 4 1 0 3 0 4-1 2 0 2-1 2-4 0-2 1-3 4-4l7 1 2 1c1 0 0 0-2 1-3 1-5 3-5 4-1 1 1 2 3 4 5 4 7 7 8 10s0 5-2 6l3 3c4-4 7-9 9-14 3-6 4-11 3-16v-18c1-5 2-9 6-12 1-1 2-2 2-1 1 0 0 1-1 4 0 2-1 5 0 7 0 2 0 3 1 4s2 0 3-1 1-4 1-7c0-9 3-15 9-18 2-1 3-1 3-1l-2 4c-1 2-1 4-1 5s0 1 1 2h1c1 1 1 1 1 2l1 3c0 2 1 2 3 2 3-1 4-3 6-7 1-4 4-6 8-7 2-1 7-2 12-1 7 0 12 1 15 3 4 2 10 8 16 16 4 6 8 10 12 12 4 3 8 2 12 0 3-2 5-6 6-11 0-3 1-4 2-6 1-1 2-2 5-3 2-1 3-1 3-1 1 0 1 1 0 3-2 3-2 5-1 7 0 2 1 3 3 3 2 1 4 0 5-1 1 0 2-1 3-3 1-1 1-2 2-4 0 0-1-2-2-5s-2-5-2-6c1-1 2-3 4-4 1-1 3-2 7-3 3-2 4-2 4-2 0 1 0 3-1 6-1 2-1 4 0 5 1 0 2 0 3-2s3-4 4-4c1-1 4-1 7 1 1 0 2 1 2 1-1 1-2 1-3 2-3 1-5 3-7 6-1 1-1 3 0 4 1 2 1 4 1 6v3c0 2 1 3 1 3 1 2 2 3 3 2 2 0 3-1 4-3 1-1 1-3 1-5 0-4 0-7 1-9s3-3 7-4l5-1-2 4c-2 4-2 9-1 14s1 9 0 11c-1 1-3 2-5 3s-4 2-6 2c-8 1-12 4-14 8-2 1-2 4-1 7v3c1 0 2 1 3 1v1c1 1 3 1 5 0h4l-2 4c-3 5-6 7-9 8l-12-1c-5-1-8-1-9 0-2 1-4 4-6 8l-2 4c-1 2-2 3-4 4l-5 1h-4c-5 1-6 2-7 3 1 1 1 1 2 1 2 1 6 1 12-1h1c0-1 1-1 1-1h2s0 1-2 3c-1 2-2 4-2 5-1 1-1 3-2 4s-3 3-6 3c-3 1-5 0-8-1-1 0-4-1-7-3l-5-3c-2 0-4 0-6 1-1 1-2 2-3 4l-3 5-2 3c-1 1-2 2-3 2s-3 0-4-1c-2-1-3-1-4-2-1 0-1-1-2-1s-1-1-2-1-2 0-3 1-1 2 0 4c0 1 1 2 3 3 1 0 2 1 2 1l1 1s-1 1-3 2h-7c-3 0-5-2-6-4l-2-6c-1-2-2-3-3-3-2-1-4-1-6 0-9 6-15 7-20 5 0 4 0 9-1 14l-1 17 2-3c1-2 1-2 2 0 0 1 1 2 1 3 1 1 2 1 3 2h1v2c0 1 0 1 1 2s1 1 2 1 2-1 2-2c2-7 4-12 7-13l6-2c3-1 6-2 7-3 2-1 2-2 3-2 0 0 0 1-1 3s-2 4-6 6c-1 2-2 3-2 4 1 1 2 2 4 2h3c1 1 1 1 1 3-1 2-1 4-1 5 1 2 2 2 5 1 1 0 2-2 4-5l3-5c2-1 3-2 5-2 3-1 5 0 6 1s1 3 1 6c-1 1 0 2 1 2 1 1 3 0 4-2 2-2 3-4 4-5 1 0 3 0 5 2 2 1 4 2 6 2 3 0 4-1 6-3 2-4 3-7 5-8 1-2 3-3 7-3h5c0 1-1 2-3 3-2 2-3 3-4 6-1 2-2 4-1 6 0 3-1 5-2 7 0 0-1 2-4 3h-1c0 1-1 2-1 3s0 2 1 3c1 0 3 1 5 2 3 0 4 0 4 1s-1 1-4 3c-2 1-3 2-4 3-2 1-3 2-4 3s-2 3-2 5l-1 5c-1 3-2 5-3 6 0 2-2 3-3 3-1 1-3 1-6 1l-5-1c-3-1-5-1-6 0-1 2-1 3-1 4s1 2 2 3 4 1 7 0l5-1c1 0 0 1-2 4-3 4-8 6-13 6s-9-1-11-4c-1-1-3-2-5-2-3 0-4 1-5 2s0 3 2 4 2 2 2 2c0 1-1 1-2 2-5 0-9 0-11-1h-6l-6 20c-4 12-7 21-7 28 0 3 0 6 1 9l2 8c0 3 0 6-1 8 0 2-1 3-2 4 1 5 1 9 2 12 0 5-1 9-3 12-1 3-6 5-14 6-5 1-11 1-17 0-4 0-7-2-8-3s-1-3-1-6 1-7 4-12c1-3 4-5 6-8-1-4-1-8 0-12 0-6 2-11 5-16 1-3 3-11 3-22l1-17c0-3-3-8-9-13-3-2-7-5-11-8h-5c-3 0-5 0-6-1-1-2-2-3-4-3l-3-1v-1c-4 7-10 20-18 41-2 7-4 15-4 27l-1 7c0 3 0 5-1 6-1 3-3 5-6 6 1 6 2 10 1 13 0 3-1 5-2 5-4 2-8 3-13 4-6 0-11 0-15-2-2 0-5-1-7-3-1-1-2-2-3-4 0-1 1-5 4-10 2-4 5-7 7-9 0-3 0-6 3-11l5-9c3-4 5-8 6-10s2-8 3-16c2-8 2-16 2-21h-1c-2 0-5 0-7-1l-2-1-1 1-2 4c-2 3-3 4-5 5l-7-1h-7c-2 0-3 1-4 2 5 0 8 1 9 4 1 1 3 2 6 3 3 0 4 0 4 1 0 0-1 1-3 2-1 0-3 1-6 2s-4 1-5 3-2 3-3 4c-2 0-5 0-9-2-3-2-5-1-5 1l-1 4c0 1-1 1-2 1h-4c-7 0-8 2-3 7 1 1 2 2 1 3h-4c-2 0-4-1-5-2s-2-2-3-4c0-1-1-1-2-1-2 1-3 1-4 3l-1 4c0 1-1 1-1 1l4 21c0 3 2 8 5 15 2 6 2 9 2 12 0 2-2 5-4 6 5 11 5 18 2 23-6 7-13 12-19 14-5 1-8 1-10 0v1c-1 4-5 8-13 13-6 4-11 6-14 5-3 0-6-3-8-7-3-5-4-9-5-11 0-3 1-7 2-11s3-7 5-10c-1-2-1-4-1-5 0-4 2-9 6-16 1-2 3-7 5-17 2-11 3-18 4-20 1-8 2-16 3-23 1-4 1-8 2-11-3-6-6-13-9-21-5-8-9-15-12-22-7-7-11-16-15-26-1-4-2-9-2-16l-2-19c-3-18-6-34-11-48-7 5-12 12-17 21 0 1-2 3-4 4l-11 4c-3 2-6 2-8 2-2 1-4 0-7-2s-6-5-9-8c-2-3-4-6-5-10 0-4 0-10 1-18l1-9c0-2 0-4 1-6-2-2-3-4-3-7-1-1-1-2-1-3-1-2-1-5-1-9-1-3-1-5-1-8s2-7 4-13c-8-7-13-17-17-28-3-11-4-18-2-20 1 0 4 0 8 2s8 4 13 7c1-9 5-20 10-31 10-15 21-27 34-35 3-2 5-3 6-3s0 2-1 4c-2 4-3 8-3 12-1 1-1 3 0 4 4-7 9-12 16-16 9-5 18-6 28-6l23 6c11 2 19 3 24 1s9-5 11-8c3-3 4-6 4-9 1-2 1-3 1-3 1 0 1 1 1 3 2 0 2 2 3 5 0 3 0 5-1 8 5-3 8-6 10-10 2-3 2-7 2-13 0-5 1-7 1-7 1-1 2 1 4 6 2 4 4 10 4 14 1-1 2-3 2-5 1-4 1-5 2-5 0 0 1 1 2 4 3 7 4 15 4 24-1 9-3 17-6 24-5 9-12 18-20 25-9 8-20 13-31 15h-1 8c4-1 6-2 9-3s4-1 4-1l-2 4c-5 7-12 12-20 14l-16 1c-2 3-1 7 0 9 1 1 2 1 2 1h3c4-1 6-2 8-1l4 1-3 2z" id="pokemon"/><g id="unknown"><path fill="#A1A1A1" d="M387 113c7-4 16-8 29-13 15-5 26-6 32-4 6 3 12 12 17 28 4 13 6 26 7 40 13 20 21 42 28 68 6 26 8 46 4 59-3 16-20 32-50 48 21 33 30 72 29 117 1 2 2 4 3 7 4 6 5 10 4 11l-11 1c-2-1-4-1-6-2v1c-1 0-2 0-2 1 2 5 3 8 3 9-1 1-4 2-11 1-5 0-8 0-10-2-1 1-2 1-3 1 1 3 2 4 1 5 0 2-5 3-13 2-5 0-8-1-11-2-11 1-19-1-26-6-8-4-16-14-23-29-7-13-11-23-11-30-9 6-19 10-29 14-6 9-12 16-20 23-1 0-2 1-3 2 1 1 1 2 2 3 2 6 2 10 1 11-2 1-5 1-12-1l-8-4c-1 0-2 1-3 1 1 4 1 7 0 9-1 0-5 0-11-1-5-3-8-5-9-7h-2c0 6-1 8-2 8-1 1-5 0-11-2-4-3-7-5-8-7-6-1-10-3-12-5-2 4-5 8-8 13 0 0-1 1-1 2v2c2 7 3 11 2 13l-10-1c-6-1-9-3-11-5h-1c0 2 0 5-1 7-1 4-2 6-4 6-2 1-5 0-9-3-3-2-5-4-6-7h-3c-1 1-1 3-2 4-2 4-4 6-6 6-1 1-3-1-7-6-3-2-4-5-5-7-4-1-7-3-10-5-4-3-8-8-12-15l-3 3v1c2 6 2 11 0 11-2 2-6 1-11 0-4-1-7-2-9-4-1 1-2 1-4 1 1 4 0 7 0 7-2 1-6 1-13-2-3-1-5-2-6-3h-6c0 2-1 4-2 4-2 2-6 1-12-3-5-2-7-4-9-6-2-1-5-2-7-3-11-6-19-21-24-45-6-24-5-47 1-67 5-15 13-29 25-44-9-2-18-5-27-11-10-9-19-20-25-32-15-35-9-75 19-122 14-23 23-41 28-55 6-16 6-27 3-37-1-2-1-3 0-4h4c2 0 4 1 5 2-1-6-3-11-6-15-4-5-5-7-5-8 0-2 3-3 7-3 9-1 17 0 27 4 4 2 8 3 12 5l-1-5c0-4 0-7 2-8 1 0 3 0 6 2l1 1v-2c2-11 6-19 13-24 2-3 4-4 5-3 1 0 2 1 3 4 5 13 12 21 20 24 10 4 28 7 57 8 18 1 33 3 47 8 27 1 47 9 64 22 12 12 19 24 18 38h1c16-1 30 0 43 2z"/><path stroke="#000" stroke-width=".787" d="M254 365c-9-1-21 4-23 11s6 16 15 18c10 1 21-6 23-13s-5-15-15-16zM259 329c-5 4-16 4-20-3-5-7-2-21 5-41 6-20 15-46 26-66 11-21 24-36 25-47 2-11-8-18-21-19s-29 4-40 12c-11 7-16 18-22 24-5 6-10 7-16 7-5 0-11-2-9-10 3-9 13-24 29-36s38-20 57-20 36 9 45 18c9 8 10 16 2 31s-26 37-38 60-18 46-20 61c-1 16 1 25-3 29z"/></g><g id="compare"><circle id="circle" cx="256" cy="256" r="250"/><path id="cross" fill="#fff" d="M116 281c21 21 69 4 104 11 6 35-19 110 34 112 56 4 31-76 38-112 35-7 110 18 112-34 2-43-43-38-60-38-16 0-38 2-52 0-7-35 18-110-34-112-57-4-32 76-38 112-35 6-110-19-112 34-1 8 2 21 8 27z"/></g></svg>
