<?xml version="1.0" encoding="UTF-8"?>
<!DOCTYPE svg PUBLIC "-//W3C//DTD SVG 1.1//EN" "http://www.w3.org/Graphics/SVG/1.1/DTD/svg11.dtd">
<!-- Creator: CorelDRAW X7 -->
<svg xmlns="http://www.w3.org/2000/svg" xml:space="preserve" width="512px" height="512px" version="1.1" shape-rendering="geometricPrecision" text-rendering="geometricPrecision" image-rendering="optimizeQuality" fill-rule="evenodd" clip-rule="evenodd"
viewBox="0 0 512 512"
 xmlns:xlink="http://www.w3.org/1999/xlink">
 <g id="Layer_x0020_1">
  <metadata id="CorelCorpID_0Corel-Layer"/>
  <circle fill="black" cx="256" cy="256" r="240"/>
  <circle fill="white" cx="256" cy="256" r="100"/>
  <circle fill="black" cx="256" cy="256" r="50"/>
  <path fill="white" d="M238 127c7,0 13,0 19,0 6,0 12,0 18,0 2,8 6,17 6,25 1,8 0,17 0,25 -8,0 -16,0 -25,0 -8,0 -16,0 -25,0 0,-8 0,-17 0,-25 1,-8 6,-17 7,-25z"/>
  <path fill="white" d="M274 387c-6,0 -12,0 -18,0 -7,0 -13,0 -19,0 -1,-8 -5,-17 -6,-25 -1,-8 0,-17 0,-25 8,0 17,0 25,0 8,0 17,0 25,0 0,8 1,17 0,25 -1,8 -5,17 -7,25z"/>
  <path fill="white" d="M125 274c0,-6 0,-12 0,-18 0,-7 0,-13 0,-19 8,-1 17,-5 25,-6 8,-1 17,0 25,0 0,8 0,17 0,25 0,8 0,17 0,25 -8,0 -17,1 -25,0 -8,-1 -17,-5 -25,-7z"/>
  <path fill="white" d="M385 238c0,6 0,12 0,18 0,7 0,13 0,19 -8,1 -17,5 -25,6 -8,1 -17,0 -25,0 0,-8 0,-17 0,-25 0,-8 0,-17 0,-25 8,0 17,-1 25,0 8,1 17,5 25,7z"/>
  <path fill="white" d="M148 178c4,-4 9,-8 13,-13 4,-4 9,-8 13,-12 7,4 16,7 22,13 7,5 12,12 18,17 -6,6 -12,12 -18,18 -6,6 -12,12 -17,18 -6,-6 -13,-11 -18,-18 -5,-7 -8,-15 -13,-23z"/>
  <path fill="white" d="M174 364c-4,-4 -9,-9 -13,-13 -4,-4 -9,-9 -13,-13 5,-7 8,-16 13,-22 5,-7 12,-12 18,-18 6,6 12,12 17,18 6,6 12,12 18,17 -6,6 -11,13 -18,18 -6,5 -15,8 -22,13z"/>
  <path fill="white" d="M359 341c-4,5 -9,9 -13,13 -4,5 -9,9 -13,13 -7,-4 -16,-8 -22,-13 -7,-5 -12,-12 -18,-18 6,-6 12,-11 18,-17 6,-6 12,-12 17,-18 6,6 13,11 18,18 5,6 8,15 13,22z"/>
  <path fill="white" d="M333 153c4,4 9,9 13,13 4,4 9,9 13,13 -5,7 -8,15 -13,22 -5,6 -12,12 -18,18 -6,-6 -12,-12 -17,-18 -6,-6 -12,-12 -18,-18 6,-6 11,-12 18,-17 6,-6 15,-8 22,-13z"/>
 </g>
</svg>
