<svg xmlns="http://www.w3.org/2000/svg" viewBox="0 0 512 512"><path fill="#00F2FF" d="M429 156c17 29 27 64 27 100s-10 71-27 100l22 13c19-34 30-72 30-113s-11-79-30-113l-22 13zm-346 0l-22-13c-19 34-30 72-30 113s11 79 30 113l22-13c-17-29-27-64-27-100s10-71 27-100z"><animateTransform attributeName="transform" type="rotate" from="360 256 256" to="0 256 256" dur="4.5s" repeatCount="indefinite"/></path><path fill="#0684C7" d="M451 369c-39 67-111 112-195 112v30c95 0 176-51 221-127v-1l-26-14zM61 143C100 76 172 31 256 31V1C161 1 80 52 35 128v1l26 14z"><animateTransform attributeName="transform" type="rotate" from="0 256 256" to="360 256 256" dur="7.5s" repeatCount="indefinite"/></path><path fill="#364982" d="M106 256c0-83 67-150 150-150s150 67 150 150-67 150-150 150-150-67-150-150zm-20 0c0 94 76 170 170 170s170-76 170-170S350 86 256 86 86 162 86 256z"/><path fill="#186D94" d="M425 271c-3 36-17 68-39 94l12 10c23-28 39-64 42-103l-15-1zm-60 115c-26 22-58 36-94 39l1 15c39-3 75-19 103-42l-10-12zm-124 39c-36-3-68-17-94-39l-10 12c28 23 64 39 103 42l1-15zm-115-60c-22-26-36-58-39-94l-15 1c3 39 19 75 42 103l12-10zM87 241c3-36 17-68 39-94l-12-10c-23 28-39 64-42 103l15 1zm299-94c22 26 36 58 39 94l15-1c-3-39-19-75-42-103l-12 10zM271 87c36 3 68 17 94 39l10-12c-28-23-64-39-103-42l-1 15zm-124 39c26-22 58-36 94-39l-1-15c-39 3-75 19-103 42l10 12z"><animateTransform attributeName="transform" type="rotate" from="0 256 256" to="360 256 256" dur="15s" repeatCount="indefinite"/></path></svg>