<svg xmlns="http://www.w3.org/2000/svg" viewBox="0 0 512 512"><g><path fill="#A1A1A1" d="M387 113c7-4 16-8 29-13 15-5 26-6 32-4 6 3 12 12 17 28 4 13 6 26 7 40 13 20 21 42 28 68 6 26 8 46 4 59-3 16-20 32-50 48 21 33 30 72 29 117 1 2 2 4 3 7 4 6 5 10 4 11l-11 1c-2-1-4-1-6-2v1c-1 0-2 0-2 1 2 5 3 8 3 9-1 1-4 2-11 1-5 0-8 0-10-2-1 1-2 1-3 1 1 3 2 4 1 5 0 2-5 3-13 2-5 0-8-1-11-2-11 1-19-1-26-6-8-4-16-14-23-29-7-13-11-23-11-30-9 6-19 10-29 14-6 9-12 16-20 23-1 0-2 1-3 2 1 1 1 2 2 3 2 6 2 10 1 11-2 1-5 1-12-1l-8-4c-1 0-2 1-3 1 1 4 1 7 0 9-1 0-5 0-11-1-5-3-8-5-9-7h-2c0 6-1 8-2 8-1 1-5 0-11-2-4-3-7-5-8-7-6-1-10-3-12-5-2 4-5 8-8 13 0 0-1 1-1 2v2c2 7 3 11 2 13l-10-1c-6-1-9-3-11-5h-1c0 2 0 5-1 7-1 4-2 6-4 6-2 1-5 0-9-3-3-2-5-4-6-7h-3c-1 1-1 3-2 4-2 4-4 6-6 6-1 1-3-1-7-6-3-2-4-5-5-7-4-1-7-3-10-5-4-3-8-8-12-15l-3 3v1c2 6 2 11 0 11-2 2-6 1-11 0-4-1-7-2-9-4-1 1-2 1-4 1 1 4 0 7 0 7-2 1-6 1-13-2-3-1-5-2-6-3h-6c0 2-1 4-2 4-2 2-6 1-12-3-5-2-7-4-9-6-2-1-5-2-7-3-11-6-19-21-24-45-6-24-5-47 1-67 5-15 13-29 25-44-9-2-18-5-27-11-10-9-19-20-25-32-15-35-9-75 19-122 14-23 23-41 28-55 6-16 6-27 3-37-1-2-1-3 0-4h4c2 0 4 1 5 2-1-6-3-11-6-15-4-5-5-7-5-8 0-2 3-3 7-3 9-1 17 0 27 4 4 2 8 3 12 5l-1-5c0-4 0-7 2-8 1 0 3 0 6 2l1 1v-2c2-11 6-19 13-24 2-3 4-4 5-3 1 0 2 1 3 4 5 13 12 21 20 24 10 4 28 7 57 8 18 1 33 3 47 8 27 1 47 9 64 22 12 12 19 24 18 38h1c16-1 30 0 43 2z"/><path stroke="#000" stroke-width=".787" d="M254 365c-9-1-21 4-23 11s6 16 15 18c10 1 21-6 23-13s-5-15-15-16zM259 329c-5 4-16 4-20-3-5-7-2-21 5-41 6-20 15-46 26-66 11-21 24-36 25-47 2-11-8-18-21-19s-29 4-40 12c-11 7-16 18-22 24-5 6-10 7-16 7-5 0-11-2-9-10 3-9 13-24 29-36s38-20 57-20 36 9 45 18c9 8 10 16 2 31s-26 37-38 60-18 46-20 61c-1 16 1 25-3 29z"/></g></svg>
