<?xml version="1.0" encoding="UTF-8"?>
<!DOCTYPE svg PUBLIC "-//W3C//DTD SVG 1.1//EN" "http://www.w3.org/Graphics/SVG/1.1/DTD/svg11.dtd">
<svg xmlns="http://www.w3.org/2000/svg" xmlns:xlink="http://www.w3.org/1999/xlink" viewBox="0 0 512 512">
    <defs>
        <style>
            g {
                display: none;
            }

            g:target {
                display: inline;
            }
        </style>
    </defs>
    <g id="170">
        <path fill="#0D131A" d="M313 252v1c-1 1-2 1-3 0-3 0-5-3-6-9-8-29-21-54-40-74-16-17-34-29-54-36-26-10-52-7-79 8-27 16-50 41-67 75-3 7-3 14 0 22l8 21c4 11 6 23 5 34-1 14-7 24-18 31-10 6-19 8-29 5-10-2-18-8-23-17-6-11-7-23-5-36 3-16 12-30 27-44 5-4 10-10 16-17l7-8c29-43 59-70 90-83 25-10 48-11 71-3 29 11 53 29 72 55 17 24 27 49 28 75z"/>
        <path fill="#65A9DC" d="M306 243c-7-30-21-55-40-75-17-18-35-30-55-38-27-9-54-7-81 9-26 16-50 41-69 78-4 6-3 15 3 28 2 5 4 13 6 22 3 10 4 19 3 27-1 11-6 20-16 27-8 6-17 8-25 6-9-2-16-7-21-17-5-9-7-20-5-31 1-7 4-15 8-22 5-8 10-15 16-21 6-5 11-9 15-14 3-3 6-7 9-12l1-1c28-42 58-69 88-81 23-10 47-10 69-2 28 9 51 27 70 53 17 23 26 47 29 72-2 0-3-3-5-8z"/>
        <path fill="#FFEC60" d="M61 217c-4 6-3 15 3 28 2 5 4 13 6 22 3 10 4 19 3 27-1 11-6 20-16 27-8 6-17 8-25 6-9-2-16-7-21-17-5-9-7-20-5-31 1-7 4-15 8-22 5-8 10-15 16-21 6-5 11-9 15-14 3-3 6-7 9-12l1-1 7-11c3 1 6 2 7 4-3 5-6 10-8 15z"/>
        <path fill="#0D131A" d="M258 355c4 0 7 2 10 6s5 8 5 14c0 5-2 10-5 14s-6 6-10 6-8-2-10-6c-3-4-5-9-5-14 0-6 2-10 5-14 2-4 6-6 10-6z"/>
        <path fill="#65A9DC" d="M258 391c-4 0-6-2-9-5-2-3-3-7-3-12s1-8 3-12c3-3 5-5 9-5 3 0 6 2 8 5 2 4 3 7 3 12s-1 9-3 12-5 5-8 5z"/>
        <path fill="#5892BF" d="M258 357c3 0 6 2 8 5 2 4 3 7 3 12 0 3 0 5-1 7-7-1-14-2-21-1-1-2-1-4-1-6 0-5 1-8 3-12 3-3 5-5 9-5z"/>
        <path fill="#0D131A" d="M321 355c3-4 8-7 12-7 5 0 9 3 13 7 3 5 5 10 5 17 0 6-2 12-5 16-4 5-8 7-13 7-4 0-9-2-12-7-3-4-5-10-5-16 0-7 2-12 5-17z"/>
        <path fill="#65A9DC" d="M318 371c0-6 2-11 5-15 2-4 6-6 10-6s7 2 10 6 4 9 4 15c0 5-1 10-4 14s-6 6-10 6-8-2-10-6c-3-4-5-9-5-14z"/>
        <path fill="#5892BF" d="M346 377c-10-2-19-2-27 0 0-2-1-4-1-6 0-6 2-11 5-15 2-4 6-6 10-6s7 2 10 6 4 9 4 15c0 2 0 4-1 6z"/>
        <path fill="#0D131A" d="M119 349c-3-6-3-11-1-16s7-8 14-9 20-1 39-1h13c4 1 7 2 8 4 2 4 1 8-2 13-4 5-8 9-14 13-6 3-12 6-19 8-6 1-12 1-19 0-9-2-15-6-19-12z"/>
        <path fill="#BAD4EE" d="M122 333c2-4 7-6 13-7h45c5 0 9 1 10 3s0 5-3 9c-3 5-7 9-13 12-5 4-11 6-18 8-6 1-13 1-20 0-8-2-13-6-15-11-2-6-2-11 1-14z"/>
        <path fill="#A1B8CE" d="M188 337l-1 1c-3 5-7 9-13 12-5 4-11 6-18 8l-14 1c-6-1-10-2-14-5 10 0 19-2 29-4 9-3 20-7 31-13z"/>
        <path fill="#0D131A" d="M151 341c-1 0 0-1 2-1 3-1 7-2 11-3l11-2c3-1 5-2 7-3l1 1c-2 1-5 3-8 4l-12 2-10 2h-2zM165 346c6-1 10-4 13-7l1 1c-1 1-3 3-6 5-2 1-5 2-7 2h-4s1-1 3-1z"/>
        <path fill="#0D131A" d="M265 228c33 0 61 8 82 25 10 8 17 16 22 26s7 20 7 31c0 9-3 18-9 27-5 8-13 15-22 21-10 6-21 11-34 14s-27 5-41 5c-30 0-56-7-77-21s-32-31-32-50c0-10 3-19 8-29 5-9 12-17 22-25 10-7 21-13 33-17 13-5 27-7 41-7z"/>
        <path fill="#65A9DC" d="M343 256c9 7 16 15 22 25 5 9 7 19 7 29-1 18-11 33-31 45s-43 18-71 18c-29 0-54-7-75-20-20-13-30-29-30-47 0-10 2-19 7-27 5-9 12-17 21-24s20-13 33-17c12-4 25-6 39-6 31-1 57 7 78 24z"/>
        <path fill="#BAD4EE" d="M363 319c4 2 12 4 23 5l29 3c10 1 16 5 20 14 2 3 2 7 2 11-1 3-3 6-7 8-8 6-19 8-31 5-6-1-12-4-18-7-4-2-9-6-16-11-8-6-12-10-13-12-2-2-1-6 3-11 3-4 6-6 8-5z"/>
        <path fill="#A1B8CE" d="M401 354c12 2 24 1 35-1-1 3-3 6-6 7-8 6-19 8-31 5-6-1-12-4-18-7-4-2-9-6-17-12 11 5 23 7 37 8z"/>
        <path fill="#0D131A" d="M363 320c-1 0-1-1-1-2h3c6 3 24 6 51 8 9 1 15 4 19 12 4 7 5 13 0 19-4 6-12 10-22 11-10 0-21-2-32-9-4-2-9-6-16-11-6-5-10-8-12-10-1-2-2-3-2-4 0 0 1 0 3 2l13 11c6 5 11 8 15 10l1 1c10 6 20 8 31 7 9-1 16-5 20-10 3-4 2-10-1-16-4-6-10-10-17-10-24-2-42-5-53-9z"/>
        <path fill="#0D131A" d="M358 330c0-1-1-1-1-2 0 0 1 0 2 1l13 9 15 9c1 1 2 2 1 2h-2c-3-2-8-5-14-9-8-5-12-8-14-10zM361 325c-1 0-1-1-1-1 0-1 1-1 2 0l13 5c9 4 16 7 23 9 2 0 3 1 2 1h-2c-3 0-9-2-18-6-10-3-16-6-19-8zM198 254c5 0 9 2 12 6s4 9 4 16c0 15-3 26-9 34s-13 12-21 12c-6 0-11-3-14-7-4-4-5-10-5-19 0-10 4-20 12-29s15-13 21-13z"/>
        <path fill="#FFEC60" d="M200 256c6 2 10 7 10 17 1 6 0 13-2 20-1 9-5 16-10 21-6 5-11 6-17 5-5-1-8-3-11-8-4-6-5-15-3-25 2-6 6-13 13-20 8-8 15-11 20-10z"/>
        <path fill="#0D131A" d="M267 259c6-5 13-8 21-8 13 0 23 5 32 14 8 8 13 19 13 31 0 10-3 18-9 23s-13 8-22 8c-14 0-25-4-33-13s-12-19-12-33c0-9 3-16 10-22z"/>
        <path fill="#FFEC60" d="M288 254c12 0 22 5 31 14 7 9 11 17 11 26 0 10-3 18-9 23-5 5-11 7-19 7-13 0-24-4-32-14-6-7-9-17-9-28 0-9 2-15 8-20 5-5 11-8 19-8z"/>
        <path fill="#0D131A" d="M198 283c4 1 6 2 6 4-1 3-2 4-6 4l-12 1-12 2c-4 1-5 0-5-2 0-3 2-5 6-6 3-1 7-2 12-2l11-1z"/>
        <path fill="#0D131A" d="M181 304v-13c0-8 1-13 2-17 0-4 1-6 3-6 2-1 3 1 3 5 0 5 0 15-1 30 0 5-1 8-3 8s-3-2-4-7zM279 283c5-1 11-1 16 0 7 0 12 1 16 2 5 1 8 3 8 5s-2 3-7 3c-3 1-9 0-17 0l-15-1c-5-1-8-2-8-5-1-2 2-4 7-4z"/>
        <path fill="#0D131A" d="M290 269c0-3 2-4 4-4s4 1 4 5c1 6 2 13 3 21 1 9 1 14 1 18s-2 6-4 5c-2 0-3-3-4-6-1-4-1-10-2-18-1-11-2-18-2-21zM474 231c3 12 8 22 15 32 4 7 9 14 13 23 4 11 7 21 8 29 2 15-1 27-8 38-7 10-16 15-27 15s-21-5-28-15c-8-10-11-22-12-37 0-15 5-31 15-48 4-6 7-11 9-16 2-6 4-12 3-17-2-24-8-44-18-61-10-16-22-26-36-27-15-2-30 5-45 21-14 17-27 41-39 73 0 1-2 1-5-1-2-1-4-2-3-2 9-31 23-56 40-74 17-19 34-28 51-28 16 1 29 10 41 26 11 16 20 39 26 69z"/>
        <path fill="#65A9DC" d="M456 264c3-5 6-10 7-16 2-5 3-10 2-14-1-24-8-45-19-62-10-17-23-27-38-28-12-2-25 2-37 13-18 16-34 43-49 82l-4-2c10-29 23-53 39-71 17-19 33-28 50-27 15 0 28 9 39 25s20 38 26 67c2 8 3 13 4 16 2 6 5 11 8 16 5 7 10 16 14 26 5 12 8 22 9 30 1 12-2 23-8 32-6 8-14 13-24 13s-18-4-25-14c-6-8-10-17-10-27-1-13 1-24 4-35 3-7 7-15 12-24z"/>
        <path fill="#FFEC60" d="M456 264c3-5 6-10 7-16 2-5 3-10 2-14v-2h7c2 7 3 12 4 15 2 6 5 11 8 16 5 7 10 16 14 26 5 12 8 22 9 30 1 12-2 23-8 32-6 8-14 13-24 13s-18-4-25-14c-6-8-10-17-10-27-1-13 1-24 4-35 3-7 7-15 12-24z"/>
        <path fill="#922F00" d="M222 304h19v6c0 2-1 4-1 5-1-2-4-3-7-3-4 0-6 1-8 3-1-1-2-3-3-6v-5z"/>
        <path fill="#ED8599" d="M226 314l2-2c1 0 3-1 4-1 2 0 4 0 5 1s2 1 2 2c0 2 0 4-1 5s-2 2-4 2c-2 1-4 0-6-3-2-1-2-3-2-4z"/>
        <path fill="#0D131A" d="M232 305h-9c1 4 2 8 4 10 1 4 4 5 6 5 4 0 6-5 6-15h-7zm10-2c0 13-3 19-8 19-4 1-8-2-11-8-2-6-3-10-2-11h21z"/>
        <path fill="#0D131A" d="M240 313v1l-1 1c-1-2-3-2-7-2-3 0-5 1-6 2 0 1-1 0-1-2 2-2 4-3 7-3s6 1 8 3z"/>
        <path fill="#fff" d="M57 277c5 5 7 10 7 16 0 7-3 13-9 18s-12 8-19 8-12-3-16-9c-4-5-6-11-6-17s3-12 8-16c5-5 11-7 19-7 6 0 12 2 16 7zM471 304c8-1 14 0 19 4s8 9 9 15c2 7 0 13-4 20-4 6-9 10-15 11-7 1-13 0-19-4s-9-10-10-17c-2-7-1-12 3-18s9-9 17-11z"/>
    </g>
    <g id="171">
        <path fill="#65A9DC" d="M478 186c8-6 14-8 17-7 4 2 3 7 0 16-9 21-15 36-19 47-6 20-8 36-6 47 4 4 7 11 6 21 0 9-2 18-5 28-3 7-10 11-23 12-12 0-23-2-31-6-15 4-28 10-41 18-5 4-15 12-29 23-11 9-21 16-29 20-12 6-26 10-42 11-29 1-57-7-87-25l-32-22c-12-8-22-14-29-17l-28-10c-10-3-18-7-24-10-16-9-24-21-26-37 0-10 3-21 10-33s17-23 31-33c13-11 29-19 46-26 19-7 38-10 57-10 34-1 65 7 92 23 19 11 38 28 55 50 29 38 50 57 63 55 6-6 12-19 16-36 7-23 16-45 30-66 11-17 20-28 28-33z"/>
        <path fill="#FFEC60" d="M171 251c8 6 12 15 12 26 1 8-3 16-11 24-9 9-22 13-38 14-12 1-26 0-42-2-19-3-32-8-41-14-1-5-1-11 0-17 2-8 6-17 13-27 0 5 1 9 1 10 1 3 3 5 6 6 6 2 16-1 29-9 12-8 20-12 23-14 7-2 14-4 24-4 9 0 17 2 24 7zM464 327c7-10 9-23 6-38 7-5 14-8 21-9 9-2 15 0 17 4 3 4 0 11-9 22-11 11-17 17-19 20-3 3-4 7-2 11 1 5 4 8 8 11 4 2 7 5 8 8 2 3 2 5 2 8-1 3-5 6-10 10-7 3-11 6-12 7-2 3-2 7 0 13 0 3 2 7 4 14 1 3 0 6-2 8-2 3-4 3-7 2-5-2-9-6-15-12-2-4-7-10-14-20-13-20-25-33-35-38 5-3 13-4 23-5 16-1 29-6 36-16z"/>
        <path fill="#ED8599" d="M111 317c-1 3-4 6-8 8-3 2-6 3-9 2-3 0-7-2-12-6-6-3-10-8-14-13 6 2 13 4 23 5 8 2 15 3 20 4z"/>
        <path fill="#922F00" d="M87 313c-6 0-9 1-12 3-3-2-5-5-7-8l19 5z"/>
        <path fill="#BAD4EE" d="M62 379c0-4 1-8 4-10 2-3 6-5 11-6s12-3 19-6c8-4 14-7 18-10l17 7c6 2 10 5 13 7-18 22-37 33-56 34-7 0-13-2-19-5-4-3-7-7-7-11z"/>
        <path fill="#E95532" d="M131 264c2-2 5-3 8-4h8c5 1 10 5 12 13 3 8 4 14 1 19 0 1-4 2-11 3l-15 1c-3-3-4-7-5-13-1-7 0-13 2-19z"/>
        <path fill="#fff" d="M129 281c1 7 3 12 5 16l-11-1c-6 0-8-2-9-3-1-4 1-8 4-14 3-7 8-12 13-16-2 5-2 11-2 18z"/>
        <path fill="#FFEC60" d="M227 93c6 0 10 2 14 7 3 3 4 7 4 12 1 4-1 8-4 12-4 4-8 6-13 6s-9-1-13-4-6-7-7-12c0-6 2-11 6-15s8-6 13-6zM35 153c8 1 14 4 18 9 5 5 8 12 8 20 1 8-2 14-8 20s-13 9-20 9c-8 0-15-2-21-7-6-6-9-13-9-21s3-16 9-22c7-6 14-9 23-8z"/>
        <path fill="#65A9DC" d="M209 118c-8 3-15 7-22 14-7 8-12 17-14 27l10 17c4 8 7 14 8 18 1 3 2 6 3 6 2 2-2 2-12 2s-13 0-11-1c1-1 2-3 3-4 0-1 0-2-1-5-4-14-11-26-20-36-13-14-26-20-42-19-13 1-25 4-35 10-8 5-14 11-20 18l-4-4c6-9 14-17 24-23 11-7 23-11 36-11 12 0 22 2 32 7 8 3 15 8 21 14 4-8 10-16 19-23 9-6 17-10 24-12l1 5z"/>
        <path fill="#A1B8CE" d="M72 392c-3-2-7-6-10-12 8 5 20 6 35 2s30-12 42-24l6 3c-7 8-15 16-22 21-12 9-22 13-31 13s-16-1-20-3z"/>
        <path fill="#5892BF" d="M335 395c-13 10-29 17-47 20-22 3-45 0-70-9-19-7-33-15-41-22l-9-8c-4-4-9-7-15-10-10-6-18-10-24-13-11-5-21-9-30-12 25 3 60 14 104 33 19 8 38 12 55 11 14 0 30-3 48-9 10-4 27-10 49-19 22-7 43-12 62-14-12 4-25 10-39 19-10 7-25 18-43 33z"/>
        <path fill="#DDCC54" d="M425 344c4 11 13 25 25 43 14 19 23 28 27 25 0 3 0 5-1 6-1 0-2 1-3 0-5 0-10-3-16-9-4-4-9-11-15-21-8-11-13-19-17-23-6-8-13-14-19-17 1-1 4-1 7-2 5-1 9-2 12-2z"/>
        <path fill="#DBDCDC" d="M114 292c0-5 1-9 4-14 3-6 7-10 13-14-1 3-2 7-2 11-6 4-11 10-15 17z"/>
        <path fill="#CA4829" d="M129 275c0-4 1-8 2-11 2-2 4-3 7-3l7-1c4 0 8 2 12 7-4 0-8 0-14 1-5 2-10 4-14 7z"/>
        <path fill="#DDCC54" d="M237 98c2 1 4 3 5 6 1 2 2 5 2 8 0 4-2 9-5 12s-8 5-12 5c-3 0-6 0-8-2-2-1-4-2-6-4h1c7 0 13-2 18-7s6-11 5-18z"/>
        <path fill="#fff" d="M224 107c0 1-1 2-2 3s-2 1-3 1c-1-1-2-1-2-3v-3c1-2 1-3 2-4 1 0 2-1 3 0 1 0 2 1 3 2 0 1 0 3-1 4z"/>
        <path fill="#DDCC54" d="M46 158c4 2 7 5 10 10 3 4 4 9 4 14 0 8-3 14-8 20-6 5-12 8-20 8-5 0-10-1-14-4-4-2-8-6-10-10 3 1 5 2 7 2h9c2 0 5-1 8-3 3-1 7-4 9-7 7-9 9-19 5-30z"/>
        <path fill="#fff" d="M24 168c0 2 0 3-1 5s-2 3-3 4c-2 1-4 1-5 1-1-1-2-2-3-4 0-1 0-3 1-5 1-1 2-3 3-4 2 0 3-1 5 0l3 3z"/>
        <path fill="#5892BF" d="M209 116v2c-9 3-17 9-24 18-6 8-10 16-12 24 5 6 9 14 13 24 3 7 6 11 8 13 2 1 3 2 3 3s-1 2-4 2c-2 1-4 1-6 0-2 0-3-1-4-3-3-10-7-18-12-26-1-3-3-5-3-6-1-1-1-4 0-6 1-10 6-19 14-28 8-8 17-13 27-17z"/>
        <path fill="#0D131A" d="M241 126c-4 4-8 6-14 6s-11-2-15-6c-3-3-5-8-5-14 0-5 2-10 6-14s9-6 14-6c6 0 11 2 14 6 4 4 6 9 6 14 0 6-2 11-6 14zm3-14c0-5-2-9-5-13-3-3-8-5-12-5-5 0-9 2-13 5-3 4-5 8-5 13 0 4 2 9 5 12 4 3 8 5 13 5 4 0 9-2 12-5s5-8 5-12zM33 151c8 0 16 3 21 9 6 6 9 13 9 22s-3 16-9 22-13 9-22 9-16-3-22-9c-6-5-9-13-9-21 0-9 3-17 9-23s14-9 23-9zm-21 11c-5 6-8 12-8 20s3 14 8 20c6 5 12 8 20 8s14-3 20-8c5-6 8-12 8-20s-3-14-8-20c-6-5-12-8-20-8s-14 3-20 8zM478 243c-5 17-8 32-7 44 7-4 14-7 21-8 5-1 9-1 12 0s5 2 6 5c2 4 0 9-6 17-4 6-9 11-15 16-7 7-11 13-10 18 0 5 3 9 8 12 3 2 6 5 8 8s3 7 2 10-3 6-6 8l-9 4c-4 2-6 4-7 7s-1 8 1 14c4 11 4 19-1 21-4 3-10 0-19-9-3-4-8-10-14-18l-14-21c-12-15-21-22-28-21l5-3c6 1 15 8 26 24l14 19c6 8 10 14 13 18 7 6 11 9 15 9 4-1 4-7 0-19-2-6-3-12-2-16 1-2 3-5 7-6 2-1 5-3 9-5s6-4 7-8-2-9-9-14c-3-2-5-4-7-6-2-3-3-5-3-8 0-6 4-14 13-21 10-8 16-16 18-23 3-8-1-11-12-10-4 1-9 2-13 4-5 2-8 4-10 5 1 5 1 8 0 8s-2-3-3-10c-1-8 0-21 5-39 4-16 10-32 18-49 5-11 6-17 4-19-3-2-7-1-14 5-25 23-43 51-55 86-3 8-6 19-10 32-3 10-7 15-11 18l-6-1c5-1 9-6 13-15l9-30c10-33 27-62 50-86 12-11 20-15 24-12 5 3 5 10-1 23-7 17-12 31-16 42zM110 316h3c-4 8-10 13-18 13-5 0-10-3-17-9-5-3-9-8-13-13l4 1c4 5 8 9 12 12 5 4 10 6 14 6 6 0 12-4 15-10z"/>
        <path fill="#0D131A" d="M146 243c10-1 20 2 27 9 8 7 12 15 12 25 0 15-8 26-25 33-11 5-24 7-38 7-15 0-29-1-43-5-14-3-23-7-28-12v-3c5 5 14 9 28 12 14 4 28 5 42 5 19 0 34-3 45-10 10-7 15-16 15-27 0-9-3-17-10-22-6-6-15-9-25-9-9 0-17 2-24 6l-24 13c-12 6-21 8-27 7-5-1-8-6-9-15 2-1 3-3 4-4-1 11 3 17 10 16 3 0 10-2 20-7l25-14c7-3 16-5 25-5z"/>
        <path fill="#0D131A" d="M92 314c-7 0-13 1-16 3l-2-2c3-1 7-2 11-3l7 2zM61 382c-2-4-2-9 1-12 3-5 9-8 16-9 11-2 22-7 35-14l4 1c-7 4-13 8-21 11-7 2-13 4-18 5-6 2-10 4-12 7-2 4-2 7-1 11 1 3 4 6 9 8 5 3 11 3 18 3 10-2 20-6 30-13 4-3 12-10 21-20l4 1c-10 11-18 18-25 23-10 8-20 12-29 13-8 0-16-1-22-4-5-2-9-6-10-11zM150 279c0 2 0 4-1 6s-2 3-4 3c-1 0-2-1-3-3s-1-4-1-6c0-3 0-5 1-6 1-2 2-3 3-3 2 0 3 1 4 3 1 1 1 3 1 6z"/>
        <path fill="#fff" d="M143 271c1 0 1 1 0 3 0 1-1 2-2 2h-3c-2 0-2-1-3-3v-2l3-3h3c1 1 2 1 2 3z"/>
        <path fill="#0D131A" d="M133 296c-3-2-4-7-5-12-2-7-1-14 3-20l3-2c-3 5-4 11-4 19 1 7 3 12 5 15h-2z"/>
        <path fill="#0D131A" d="M121 275c-2 3-4 7-5 10-1 4-1 6-1 8 2 2 9 3 23 2 13-1 21-2 22-4 0-1 1-3 0-6 0-4-1-7-2-10-3-9-8-13-15-14-8 0-15 4-22 14zm-8 19c-1-2-1-5 0-9s3-8 6-12c7-10 15-15 24-14 8 0 14 5 18 14 1 4 2 7 2 11 1 4 0 7-1 8-1 3-9 5-24 6s-23-1-25-4zM322 248c-14-15-28-26-44-34-19-11-42-17-67-19-6-1-13-1-20 0v-3c9-1 16-1 20-1 25 3 47 8 66 17 15 8 29 18 43 32 4 5 15 17 32 38 13 15 25 27 35 35 12 10 23 9 34 0 2-2 2-2 3-1 0 1 0 2-2 3-5 5-10 8-16 9-6 0-12-2-20-7-9-6-19-16-31-30-18-22-29-35-33-39z"/>
        <path fill="#0D131A" d="M386 359c-11 6-25 17-44 32-23 19-49 28-79 27-33-1-67-15-99-42-8-8-20-14-34-20l-36-14c-14-5-23-11-30-17-8-7-13-16-15-27-1-11 1-23 7-34 6-12 15-22 27-32 25-21 55-34 89-39v3c-33 6-62 19-87 40-11 9-19 19-25 30s-9 21-7 31c1 11 5 20 13 26 6 5 15 10 28 15l35 13c15 6 27 13 37 22 21 17 42 29 64 35 40 13 77 6 109-20 20-15 34-26 44-32 17-10 31-15 41-13 2 0 3 1 3 1 0 1-1 1-2 1-11 0-24 5-39 14z"/>
        <path fill="#0D131A" d="M175 193c0 2 0 4-1 6-1 1-2 2-4 2h-2c0-1 0-1 1-2l2-1c1-1 1-3 0-4-5-17-13-31-23-40-10-10-22-15-35-15-9-1-19 1-29 6-12 5-21 12-27 21l-2-2c7-9 16-16 28-22 11-5 21-7 30-7 14 1 26 6 37 16 11 11 19 25 25 42z"/>
        <path fill="#0D131A" d="M208 112l1 2c-9 2-18 7-26 13-7 7-13 13-17 21-1 1-2 1-2 0-7-6-14-11-23-14-9-4-18-6-28-6-13 0-25 3-36 10-10 6-18 14-24 23l-2-1c7-10 15-18 25-24 12-7 24-11 37-11 10 0 19 2 28 5 9 4 17 9 23 15 5-8 12-16 20-22 7-6 16-9 24-11z"/>
        <path fill="#0D131A" d="M209 117l1 3c-8 3-16 8-23 15-7 8-11 17-13 27 0 2-1 3-2 3s-1-1-1-3c2-10 6-20 14-28 7-8 15-14 24-17z"/>
        <path fill="#0D131A" d="M173 161l1-4c3 5 6 11 10 17 3 8 6 14 8 19 1 2 2 3 4 5 1 0 1 1 1 1h-3c-2 0-3-1-4-3-8-17-13-29-17-35z"/>
        <path fill="#BAD4EE" d="M283 402c-14-4-27-11-39-23-7-7-15-17-23-29-1-3-1-6 0-9 2-2 4-5 7-7s6-3 9-3 5 0 7 2c7 10 30 19 69 25 13 2 20 7 23 16 3 7 2 14-2 20-3 4-9 7-18 10-10 2-21 1-33-2z"/>
        <path fill="#A1B8CE" d="M330 396c-6 5-14 8-25 9s-23-2-35-8c-14-7-27-18-38-32 19 12 36 21 52 25 21 5 38 3 53-6-1 4-3 8-7 12z"/>
        <path fill="#0D131A" d="M273 347c12 4 25 6 39 8 12 2 20 8 25 18 1 3 2 7 2 11s-1 7-3 9c-4 6-10 10-17 12-8 2-18 3-29 1-14-2-28-9-42-21-13-11-22-23-27-34-1-2-2-4-1-5 0-1 1 0 3 3 6 11 15 22 27 32 14 12 28 19 42 21 8 1 15 1 22-1 8-1 14-5 18-10s5-11 1-18c-3-7-11-12-21-14-21-4-37-8-49-12-9-3-16-7-19-11-2-3-2-4-1-4 0 0 2 1 4 3 4 4 13 8 26 12z"/>
    </g>
    <g id="172">
        <path fill="#0D131A" d="M396 408l-10 3c1-6 1-12 0-17 10-6 19-11 27-15l31 24 27 24-18 16-18 14c-5-4-12-13-21-25l-18-24z"/>
        <path fill="#0D131A" d="M412 377h2c9 7 21 16 33 26l27 23c1 1 1 1 0 2-15 15-28 25-38 32h-2c-5-5-11-13-21-25l-18-25-9 3v-3l10-4s1 0 1 1l18 23c9 11 15 20 20 25 8-6 20-15 33-28l-25-21c-11-10-21-18-30-24-9 3-17 8-26 14l-2-4c13-7 22-13 27-15zM217 132c3 3 5 13 4 30-16-5-35-10-56-14s-38-7-51-8c4 10 8 18 14 26-11-1-21-3-30-7 9 14 22 31 39 49 13 15 25 27 35 37-6 4-13 7-21 11-9 3-15 5-17 4-10-4-30-29-59-75-29-45-42-70-38-75 3-6 30-6 81 0 52 5 85 13 99 22zM473 5c6 2 5 27-3 74s-18 81-30 101c-1 3-14 5-36 4 6-15 12-34 19-58 7-27 10-44 10-53l-22 20 3-32c-11 6-26 15-45 28-24 15-42 28-54 40-3-6-5-12-6-18-2-8-2-13-1-15 9-17 38-38 86-62 19-9 36-17 52-23 16-5 25-8 27-6z"/>
        <path fill="#FFF362" d="M366 91c21-14 36-24 47-29l-2 31 22-19c0 11-4 29-11 56-7 23-13 42-18 54l-27-1c16 15 26 33 31 53 4 21-1 42-16 61-16 20-38 34-66 43-27 9-53 11-77 4-22-6-39-16-50-32-7-9-11-21-11-36-1-16 1-31 7-44-8 5-15 9-24 13-12-13-26-28-41-45-15-18-26-32-32-41 5 2 15 4 30 7-6-7-10-16-14-26 12 0 30 3 55 9 22 4 39 9 52 13v34c14-13 32-23 56-29 21-6 39-7 54-5-6-7-11-19-16-33 12-11 29-23 51-38z"/>
        <path fill="#FFF362" d="M365 322c4-3 9-6 16-8l16-6c0-2 1-4 2-5 2-2 3-2 4-2 0-1 1 0 2 2l2 2 17-1c4 1 7 3 9 5 3 7 0 17-11 31-11 15-25 27-42 36 5 11 7 23 6 36-1 9-3 18-7 25-4 9-13 15-29 20l-17 5-24 1c-24-2-40-11-48-26-7-12-7-26-2-43-17-1-32-4-44-8-14-5-21-11-22-18 0-4 1-7 4-10 2-2 5-4 8-5 0-1-1-3-1-4 0-2 1-3 2-3 1-1 3 0 6 1l7 4 29-5c11 0 20 0 30 1l87-25z"/>
        <path fill="#FFF362" d="M354 458c7-2 11-5 14-8 9 3 17 12 23 28 5 16 4 26-6 30-10 6-21 3-32-8-11-10-17-22-20-38l21-4z"/>
        <path fill="#0D131A" d="M365 322c1 5 1 13 0 23l-11-7c1 4 1 10 0 20l-2 22-25-25-9 21c-4-4-8-9-11-15l-11 12-13 11c-2-9-2-18 0-28l-11 5 6-14c14 1 30-2 49-7 17-6 30-12 38-18z"/>
        <path fill="#FCD13E" d="M195 361c0 7 8 13 25 18 16 3 30 5 43 3l-4 12c-23-2-40-6-52-12-13-6-17-13-12-21zM428 305c10 8 7 21-9 39-15 17-30 28-45 34 15-11 29-24 40-38 14-16 18-28 14-35z"/>
        <path fill="#FCD13E" d="M260 390c-1 18 3 32 12 42 9 12 24 18 44 18 20 1 37-4 50-13 14-9 20-21 20-38 3 45-22 67-72 64-23-1-39-7-48-16-11-12-14-31-6-57z"/>
        <path fill="#FCD13E" d="M343 488c-4-5-6-10-8-15l-1-11c6 0 13-1 20-4 7-2 12-5 15-8l6 6 7 6c-9-1-18 2-27 7-10 6-14 12-12 19z"/>
        <path fill="#0D131A" d="M260 262c2 7 2 13-1 18-2 5-6 9-11 11l-16-1c-4-3-8-7-10-12-2-6-2-12 0-17 2-6 6-10 11-12h16c5 3 9 7 11 13zM362 254h-17c-5-3-9-7-11-12-3-7-3-12-1-18s6-9 11-11l18 1c6 2 10 7 11 13 3 6 2 12 0 17s-6 9-11 10zM300 272c0-1 1-2 3-2h4c0 1-1 2-3 2h-4z"/>
        <path fill="#fff" d="M238 249c3 0 5 0 7 2 3 1 4 3 4 5 1 3 0 5-1 7s-3 3-5 4c-3 1-5 0-7-1s-3-3-4-6c-1-2 0-5 1-7s3-3 5-4zM352 232c-3 2-5 2-8 2-3-1-5-2-6-5-1-2-2-4-1-7 1-2 2-4 5-5 2-2 4-2 6-1 3 0 4 1 6 4 1 2 1 4 1 7 0 2-1 4-3 5z"/>
        <path fill="#F09CB4" d="M205 301c2-3 7-4 13-4 7 1 13 4 18 8 7 6 11 12 13 18 2 5 1 10-2 13-2 3-6 4-12 3s-12-4-18-8c-6-5-10-10-13-16-2-7-2-11 1-14zM402 244c4 1 6 5 7 12 0 6-1 12-3 19-3 6-7 12-12 16-6 5-11 6-16 4-4-2-6-6-6-12-1-7 1-14 4-21s7-12 12-16c5-3 10-4 14-2z"/>
        <path fill="#0D131A" d="M220 132c2 3 3 11 4 25 0 13 0 26-1 37l-5 4c1-13 1-26 0-38-1-15-2-23-4-25-9-9-40-16-93-22l-56-4c-16 0-25 1-26 3-2 4 11 29 41 75s48 69 55 70c4 0 14-4 29-11 16-8 27-14 33-19l-3 8c-7 6-18 12-32 18-15 7-24 10-28 10-9 0-28-25-60-74-31-48-44-75-41-81 5-6 35-7 91 0 57 6 89 14 96 24z"/>
        <path fill="#0D131A" d="M221 161v5c-12-5-28-9-49-14-23-6-41-9-55-9 3 7 8 15 14 23 1 2 1 3-2 3-11-2-19-4-25-6 7 11 17 24 33 42 15 16 27 29 37 38l-5 3c-10-10-23-23-39-42-16-18-27-33-34-44-1-2-1-3 0-3 0-1 1-1 2 0 7 3 15 5 25 6-6-8-10-16-12-23v-1c0-1 1-1 1-1 14 0 33 3 57 8 23 5 40 10 52 15zM466 82c8-47 10-71 5-74-6-3-32 7-78 31-48 24-75 43-81 57-2 3-1 12 4 26 4 15 10 28 16 40 1 1 0 1-1 1-1 1-2 0-3-1-7-10-13-24-18-40-4-14-6-24-4-28 6-15 35-35 85-61 49-25 77-36 85-31 6 3 4 30-4 81-9 53-19 86-30 99-2 3-11 5-25 6l-38-2c-2 0-3-1-4-3 0-1 0-1 1-1 13 1 25 1 38 1 15-1 23-3 25-5 10-16 19-48 27-96z"/>
        <path fill="#0D131A" d="M433 71c0-1 1-1 1-1l1 2c-2 16-5 36-11 59-6 25-12 43-17 54l-6-1c5-10 11-26 17-50 6-21 10-39 12-54l-20 16h-2s-1 0 0-1l3-30c-12 6-28 16-48 30s-36 26-47 37l-2-6c11-10 28-23 50-37 21-14 38-24 50-30 1-1 2 0 2 2-1 8-2 17-3 27l20-17zM333 273c1-1 1-2 2-2s1 1 1 3c-2 10-10 17-24 22s-25 3-33-4c-1-1-1-2 0-3h2c9 6 19 7 30 3 11-3 19-10 22-19zM378 376l4-2c5 11 7 22 7 33 0 10-2 19-7 27-4 8-9 14-16 18l-3 1c-1-1 0-2 1-3 14-9 20-23 20-44 1-10-2-20-6-30zM265 383c-7 18-9 33-6 44 3 12 12 22 28 28 15 6 32 8 50 5 2-1 3 0 4 0 0 1-1 1-3 2-20 5-38 4-54-2s-26-17-30-32c-3-12-1-28 6-45 9-18 14-30 16-36h4c-2 6-7 18-15 36zM219 353l-2-1-6-4h-4c-1 0-1 3 1 7 1 2 1 3 0 3s-1 0-2-1c-2-2-3-4-3-8-1-3 0-4 1-5l7 1c3 1 5 2 7 3l36-4 14 4-28 2-21 3z"/>
        <path fill="#0D131A" d="M212 386c-13-5-19-11-20-18 0-3 1-6 3-10 3-3 6-5 10-6l1 3c-3 1-6 3-8 5-2 3-3 5-3 8 1 5 6 10 17 14 12 5 28 8 48 9l-1 5c-20-2-35-5-47-10zM353 338v-1h2l8 5c1-7 2-13 1-19l3-3c1 11 1 19 0 26 0 1-1 1-2 0l-9-5v20l-2 20c0 2-1 2-2 1l-24-24c-3 7-5 14-9 19l-2 1c-4-4-7-9-10-14-7 9-15 17-24 22-1 1-2 1-2 0l-1-14c0-6 0-10 1-13l-10 6 2-6 9-5c2-1 2-1 2 1 0 4-1 8-1 14 1 5 1 9 1 12 8-6 16-13 23-21 0-1 0-1 1-1l1 1c2 5 5 9 9 12 3-6 6-12 8-17 0-2 1-2 2-1l23 22 1-19 1-19z"/>
        <path fill="#0D131A" d="M398 305l-1 5c-12 4-23 8-34 14l12-10c8-4 15-6 23-9zM372 380c-1-1 0-1 1-3 20-10 35-23 47-38 11-14 14-24 10-30-3-3-10-4-22-2l-2-4c14-2 22-1 27 4 6 7 3 19-9 35s-29 29-49 38c-2 1-3 1-3 0z"/>
        <path fill="#0D131A" d="M402 298c2 0 4 1 5 4 2 2 3 5 3 7s0 3-1 3l-2-2c-1-5-3-7-4-7s-2 1-3 3-2 4-2 7l-2 1c-1 0-1-1-1-2 0-3 1-6 2-9 2-3 3-5 5-5zM378 510l-5 1c0-4-1-8-2-13-2-4-5-8-8-10-1-2-2-2-1-3h3c3 2 6 6 9 11 2 5 3 10 4 14zM392 501l-3 6c0-4-1-8-3-13s-5-10-8-13c-1-1-2-2-1-2 1-1 1-1 3 0 3 2 6 6 8 10s3 8 4 12z"/>
        <path fill="#0D131A" d="M341 489c-6-9-9-18-10-27l5-1c1 9 4 18 9 26s11 14 18 18 15 5 22 2c3-2 5-6 6-13 0-8-2-15-6-22-2-4-4-8-8-11-3-4-7-7-11-9l3-3c10 6 17 12 21 20 4 9 6 17 5 25s-4 13-9 15h-25c-8-4-15-11-20-20zM332 165c-18-3-38-1-59 5-23 7-42 18-56 32-2 2-3 2-4 2 0-1 0-2 2-4 13-15 32-27 56-35 11-3 22-5 33-5l28 2c4 1 5 2 5 2l-5 1zM377 182c6 5 12 11 17 18 6 7 10 14 12 21 10 25 8 49-7 72s-40 40-74 50c-32 10-61 10-87 1-27-9-43-25-50-47-4-13-4-26-3-40 2-14 7-25 13-35 2-2 3-2 3-2 1 0 1 2 0 4-12 23-14 47-7 71 6 19 20 33 44 42 26 10 54 10 86 1 30-9 52-24 67-44 16-22 19-46 10-71-6-16-15-29-27-40-2-2-3-3-2-3 1-1 2 0 5 2z"/>
        <path fill="#FFF362" d="M263 395c6 4 10 11 15 19 4 8 6 17 6 25 0 10-3 17-10 20s-15 2-23-4c-7-5-13-12-17-21s-5-18-4-27c1-10 4-16 10-18 8-3 16-1 23 6z"/>
        <path fill="#FCD13E" d="M234 432c6 13 15 19 27 17s20-8 22-19c2 8 2 16-2 21-3 5-8 8-14 9s-12-1-18-6c-7-5-12-13-15-22z"/>
        <path fill="#0D131A" d="M281 440c0-8-2-16-6-24-6-11-12-19-18-23-6-3-11-4-17-1-5 3-8 8-9 17 0 8 2 17 6 25 5 10 11 17 18 21s13 4 19 1c5-2 8-8 7-16zm-43-52c7-3 14-3 21 0 8 5 15 13 21 25 4 9 6 18 6 27 0 10-3 16-9 19-7 4-15 4-23 0-9-4-16-11-22-22-5-10-6-20-5-30s5-16 11-19z"/>
        <path fill="#0D131A" d="M248 388l4 1c-2 2-2 6-2 10 1 6 3 11 6 16 1 1 1 2 0 2 0 0-1 0-2-1-4-4-6-9-7-15-2-5-1-10 1-13zM234 395l4-4c-1 4-1 8 0 14s3 11 6 15c1 1 1 2 0 2 0 1-1 0-2-1-3-2-6-6-7-12-2-5-2-10-1-14z"/>
    </g>
    <g id="173">
        <path fill="#F7C6BD" d="M421 194c11 7 24 26 37 57 13 29 19 51 18 65 7 8 14 18 19 29 6 13 8 23 5 29-6 11-23 19-51 24-26 5-47 6-63 1-14 12-31 23-50 31-12 5-23 8-32 10-2 9-8 18-18 28-9 9-17 14-23 14-8 0-19-4-33-12-15-8-31-20-46-34-40-36-66-77-77-122-8-30-10-63-5-101 4-42 15-75 32-98-9-8-15-16-19-25-4-8-6-15-5-22 1-8 5-15 12-21 9-8 23-13 41-16 22-2 45 0 69 9 18 6 33 13 45 22 9-3 19-6 30-9-8 11-10 26-7 47 2 14 7 28 13 40 10 21 27 38 48 50 18 10 33 15 47 16l13-12z"/>
        <path fill="#524423" d="M125 131c-11 20-18 45-23 77-4 33-3 60 3 82-16 2-37-3-62-16S4 248 4 234c-1-4 3-12 11-23 8-10 18-21 30-33 30-28 57-44 80-47zM305 55c1-3 9-5 25-7l52-2c49 1 76 9 81 23 6 18 0 46-18 85-7 14-15 27-22 37-8 11-13 16-16 15-40-7-71-28-91-62-9-15-14-30-16-46s-1-30 5-43z"/>
        <path fill="#ED8599" d="M211 280c4-4 8-7 13-10 5-2 10-4 16-3 2 13 0 21-7 23-2 1-6 0-10-2s-8-4-12-8z"/>
        <path fill="#922F00" d="M240 267c-6-1-11 1-16 3-5 3-9 6-13 10-5-5-8-9-10-13l20-7 15-7 4 14z"/>
        <path fill="#F7C6BD" d="M477 318c-1-13-5-29-12-49-7-19-14-35-22-48 11-3 21-2 31 2 11 4 21 12 27 23 6 9 8 21 8 37-1 19-8 36-21 49-3-6-7-11-11-14z"/>
        <path fill="#ED8599" d="M141 277c2-1 5-2 10-3h11c2 0 4 2 4 4 1 3-4 6-13 8h-10c-3 0-4-2-4-4-1-2 0-3 2-5zM297 227c2 4-2 9-11 13-10 5-16 5-18 1s2-8 12-13c9-5 15-5 17-1z"/>
        <path fill="#D5ABA4" d="M262 483c6-7 10-13 14-20 3-7 5-14 6-19l-16 3-11 1c21-7 43-15 64-25 26-11 44-21 55-29 2 2 4 3 7 3 2 1 4 2 5 3-6 7-18 14-37 24-19 9-34 14-44 15-12 26-27 40-43 44z"/>
        <path fill="#3E3315" d="M5 241c16 10 48 16 95 18 2 6 3 13 3 19 0 9 0 13-2 13-11 1-28-5-53-16-28-12-42-24-43-34zM363 192c17-9 36-24 56-47 22-24 37-47 45-68 3 14-3 37-18 71-15 32-27 51-35 56-3 2-9 1-20-1-11-3-20-7-28-11z"/>
        <path fill="#D5ABA4" d="M506 270c6 13 3 29-8 50-2 4-5 8-9 13l-9-12c15-13 24-30 26-51zM172 132c10 1 19 0 28-4 6-2 10-7 12-13s1-14-3-23c7 6 11 14 11 24 1 10-4 18-13 22-11 6-25 7-41 2-14-5-26-12-35-22l3-3c12 10 25 16 38 17z"/>
        <path fill="#0D131A" d="M125 128l-2 5c-27 9-54 26-79 50-24 22-36 39-36 51 0 11 10 21 28 32s40 19 65 23c5 1 6 3 3 6-30-5-54-13-75-26-18-11-27-23-28-34-1-14 13-34 42-59 29-26 56-42 82-48zM257 446c25-3 47-8 66-14 24-8 44-19 62-33 1-1 2-1 3-1 2 0 2 1 1 2-11 12-30 24-57 34s-52 15-76 15c-2 0-3 0-3-1s1-1 4-2zM422 191c16 16 30 38 41 65 10 24 15 45 16 63 0 2-1 3-2 1s-1-4-2-7c-4-22-11-44-21-66-11-22-22-39-34-50-2-2-2-3-1-5 1-1 2-1 3-1z"/>
        <path fill="#0D131A" d="M473 316c-6-8-8-11-6-10 2 0 6 3 10 8 8 8 15 19 20 31 7 15 8 25 4 32-7 10-24 19-52 24-30 6-54 5-72-3-4-2-5-3-5-4l6 1c19 6 42 7 70 1 27-6 43-14 48-25 3-5 2-12-2-23-5-10-12-21-21-32zM451 125c10-28 12-46 6-55-7-12-26-18-58-21-31-2-60 0-90 6-5 9-7 22-6 36 1 16 5 31 13 45 18 37 46 58 84 65h9c3-1 6-5 10-10 13-18 24-40 32-66zm13-59c6 10 4 31-7 61-10 31-23 55-39 74-2 2-5 4-7 5h-14c-41-8-71-31-88-70-7-15-11-30-12-45-1-14 1-26 4-34-7 2-15 4-22 7l-5-2c32-14 70-20 113-19 43 2 69 9 77 23z"/>
        <path fill="#0D131A" d="M441 219c12-3 23-3 34 1 12 4 21 13 28 25 7 13 10 29 7 46-2 19-9 33-21 45l-2-5c10-11 16-24 18-40 3-16 0-30-7-43-13-21-31-29-54-24l-3-5zM363 280c15-38 17-59 6-65-6-3-14-1-24 5-10 7-17 15-23 26-2 2-3 3-4 2 0-1 0-3 1-5 5-12 12-21 24-28 12-8 22-9 31-4 6 3 8 12 7 26s-6 29-14 47c-3 7-5 10-6 9-2 0-1-4 2-13zM245 247l2 2c0 1-1 2-2 1l-4 1-4 3c-2 1-5 3-11 6l-12 5-17 3c-5 0-7 1-9 2-1 1-1 1-2 1-1-1-1-1 0-2 2-3 4-5 5-5 7 1 15-1 22-3 4-1 8-3 14-6 5-3 9-5 10-7 1-1 2-2 3-2l5 1z"/>
        <path fill="#0D131A" d="M235 255c0-1 0-2 1-3h2c3 10 5 18 5 26-1 8-4 13-9 15s-12-1-20-7c-6-6-12-12-17-19 0-1 1-1 2-1h3c4 7 9 12 15 16 6 5 11 7 15 6 5-1 7-6 7-16-1-5-2-11-4-17z"/>
        <path fill="#0D131A" d="M239 265c1 0 2 1 2 2s-1 2-2 2c-4-1-8 0-12 2-6 2-10 5-14 10h-3s0-1 1-2c4-6 8-9 12-11 5-3 10-3 16-3z"/>
        <path fill="#0D131A" d="M131 113l5 4c-19 27-30 62-32 105-3 42 2 82 15 120 10 28 29 56 58 84 26 26 51 43 75 52l13 1c4-1 8-3 12-6 12-10 20-20 25-33l4-1c-4 13-12 26-26 38-8 7-18 9-30 5-20-7-44-22-70-46-31-28-53-59-66-92-14-35-19-74-17-118 3-46 14-84 34-113z"/>
        <path fill="#0D131A" d="M287 69c2 2 3 3 3 4-1 1-2 0-4-2-29-23-62-36-101-38-16-1-31 1-43 6-13 4-22 11-26 20-5 10-4 22 3 34 6 12 16 21 29 28 12 7 25 9 38 8s21-6 24-15c1-5 1-10-1-14s-5-7-9-9h-9c-4 1-7 2-9 5l-3 1v-3c2-3 6-6 10-7 5-1 9-1 13 0 6 2 10 6 12 11 3 6 3 12 1 18-3 10-12 16-27 18s-29-1-42-8c-15-7-26-18-33-31-7-14-8-27-3-39 4-9 13-17 27-22 13-4 29-7 47-6 41 1 75 15 103 41zM184 241c1 6 1 10 1 14-1 4-2 6-4 7-2 0-4-2-6-5s-3-8-4-13-1-10-1-14c1-4 2-6 4-6 2-1 4 1 6 4 2 4 3 8 4 13zM244 204c3 3 4 8 5 13s1 10 0 14c0 4-2 6-4 6-2 1-4-1-6-4-3-4-4-8-5-13s-1-10 0-14c0-4 2-6 4-7 2 0 4 2 6 5z"/>
        <path fill="#fff" d="M173 236v-6c0-1 1-2 2-2s2 0 3 1l2 5v6c0 1-1 2-2 2s-2 0-2-1l-3-5zM237 206c0-1 1-2 2-2 1-1 2 0 3 1l2 5c1 2 1 4 1 6-1 2-1 3-2 3s-2 0-4-2c-1-1-1-3-2-5 0-2-1-4 0-6z"/>
        <path fill="#F7C6BD" d="M75 318c1-6 9-10 23-11 13-1 24 0 30 4 6 3 11 13 15 29 3 17 2 25-3 25-9-1-21-7-38-17-19-11-28-21-27-30z"/>
        <path fill="#0D131A" d="M117 310l-28 1c-6 2-9 4-10 6-2 7 4 15 17 23 10 8 23 15 38 20 5 2 7 3 6 4h-7c-17-5-32-12-44-21s-18-18-16-26c1-7 7-10 17-12 9-2 18-2 27 0 7 2 10 3 11 4l-11 1z"/>
    </g>
    <g id="174">
        <path fill="#F9DBE8" d="M374 6c10 2 19 9 26 21 7 13 9 23 6 33 11 0 19 2 26 8 6 6 10 14 10 24s-2 18-8 24c-6 7-13 11-23 13 25 30 42 62 52 96 8 32 10 63 4 92-9 45-35 81-77 110-45 30-93 39-144 28-56-13-100-39-130-78-31-41-42-89-34-144 6-45 29-83 67-114 39-31 81-46 128-45-8-8-13-15-14-22-1-6 1-13 7-21 5-7 14-12 25-12 11-1 19 3 24 9 13-20 31-27 55-22z"/>
        <path fill="#D7BECA" d="M322 457c7-4 21-8 41-14 10 16 15 30 14 43-1 12-6 19-14 22-10 3-19-2-29-16-10-13-14-25-12-35z"/>
        <path fill="#D7BECA" d="M406 395c24-17 42-39 54-65-10 32-27 60-52 82-24 21-52 35-84 42s-65 6-98-4c-35-10-66-28-95-56 30 19 62 31 97 37 33 6 65 6 96-1 31-6 58-18 82-35zM393 124c10 0 20-2 28-8 9-6 16-14 18-25 2 13-2 24-11 31-10 8-21 8-35 2z"/>
        <path fill="#F9DBE8" d="M96 240c5-1 9 7 12 23 2 17 1 26-5 29-2 1-10 1-25 0-15-2-25-3-29-5-7-3-8-9-3-18 2-4 10-10 22-17s22-11 28-12z"/>
        <path fill="#D7BECA" d="M44 281c2 1 8 1 18 0l17-3c1 0 2 1 2 5s0 7-1 8l-20-1c-12-3-18-6-16-9z"/>
        <path fill="#0D131A" d="M52 292c-7-2-11-5-13-9-2-7 3-15 14-25 10-8 19-13 26-15 3-1 4-1 4 1l-4 3c-6 4-14 9-22 16-10 9-13 15-12 18 2 3 6 5 14 6l21 2c2 0 4 1 4 2 0 2-1 3-3 3l-29-2z"/>
        <path fill="#0D131A" d="M406 128h8c24 25 41 57 51 94 14 48 10 94-9 136-23 48-60 80-113 96-53 15-105 10-156-16-53-26-87-66-103-119-13-47-10-93 11-137 17-34 41-60 72-80 32-19 68-30 107-30 2 0 4 1 6 2 1 2 1 3-2 3-40 2-76 12-105 30-32 18-56 44-71 77-23 47-25 95-8 142s49 82 97 107c48 24 97 29 147 14 50-14 87-45 111-93 20-40 23-84 10-131-11-37-28-69-53-95z"/>
        <path fill="#0D131A" d="M196 175c2 11 0 22-5 32-6 11-14 19-24 24-10 4-19 4-28-1-9-4-14-12-17-23-2-11-1-22 5-32 5-11 13-19 23-24 10-4 20-4 29 0 9 5 15 13 17 24z"/>
        <path fill="#BA004F" d="M192 176c2 10 1 20-4 30-5 9-12 16-21 20-10 4-18 4-25 0-8-4-13-11-15-20-2-10-1-20 4-29 5-10 12-17 21-21 10-5 18-5 25 0 8 4 13 11 15 20z"/>
        <path fill="#0D131A" d="M357 280c-6 12-15 20-28 24-12 4-24 3-36-3-11-6-19-15-23-27-4-13-3-24 3-36s15-19 27-23 24-3 36 2c12 6 19 15 23 28 4 12 3 24-2 35z"/>
        <path fill="#BA004F" d="M351 278c-5 10-13 17-24 21-11 3-21 3-32-3-10-5-17-13-20-24-4-11-3-21 2-32 5-10 13-17 24-21 11-3 22-2 32 3s17 13 21 24c3 11 3 22-3 32z"/>
        <path fill="#0D131A" d="M404 60c1-9 0-18-5-28s-12-18-21-21c-16-6-30-5-42 4-13 8-20 21-21 37 0 4-1 5-2 5-1-1-1-2-1-5-2-18 5-32 20-42 14-10 30-12 46-6 10 4 18 10 24 20 6 11 8 23 6 36h-4z"/>
        <path fill="#0D131A" d="M319 30c-3-3-6-5-9-6-8-4-15-4-24-1-8 4-14 9-17 16-2 4-3 10-1 16 2 7 6 13 12 18s9 8 8 9c0 1-4-1-10-5-7-5-12-11-15-18-3-8-3-15 0-22 5-11 14-18 27-20s23 1 30 9v4c0 1 0 1-1 0zM443 81c3 11 2 22-3 31-5 8-12 14-21 16-8 3-17 2-25-1-3-2-4-2-4-3 1-1 2-1 5 0 8 3 16 3 24-1 8-3 14-9 17-17 4-8 4-16 1-24s-8-14-16-18c-9-3-18-3-28 3h-3c0-1 0-1 2-3 3-3 7-5 13-5l18 1c10 3 16 10 20 21zM183 203c-3 7-8 13-14 16h-18c-6-2-9-7-10-14s0-14 4-22c4-7 9-13 15-16s12-4 18-1c5 3 9 8 10 15s-1 15-5 22zM342 272c-4 8-9 13-17 16-7 2-14 2-21-1-7-4-12-10-14-17-2-8-1-16 2-23 4-7 10-12 17-15 8-3 15-3 22 1 7 3 11 9 14 17 2 7 1 15-3 22z"/>
        <path fill="#fff" d="M163 176c-2 1-5 2-8 1-3 0-5-2-6-4s-1-5 0-7c1-3 3-5 5-6 3-2 6-2 9-2 2 1 4 2 6 4 1 3 1 5 0 8-1 2-3 4-6 6zM310 242l-8 1c-3 0-5-2-7-4-1-2-1-5 0-8 2-2 4-4 7-6 3-1 5-2 8-1 3 0 5 2 6 4 2 3 2 5 0 8-1 2-3 5-6 6z"/>
        <path fill="#0D131A" d="M268 105c4 0 5 1 5 3s-2 3-6 3c-8-1-16 2-24 7-7 4-12 11-14 19-3 10-2 20 2 29 5 8 12 13 20 16 8 2 15 2 22 0 8-3 13-8 16-15 2-7 3-13 0-20s-8-12-15-14h-13c-5 2-8 5-9 9-1 3-1 6-1 9 1 3 3 5 6 7l6 1c2 0 4-1 5-3l1-4c0-2 0-3-2-4-1-2-1-3-1-3l2-1s1 0 2 1c3 2 4 5 4 8s-1 6-3 7c-4 5-10 6-16 3-5-2-8-5-9-10-1-4-1-9 1-13 2-6 7-10 13-12 5-2 11-2 16 0 8 3 14 8 18 17 3 8 3 16 0 23-4 9-10 15-19 18-8 4-18 4-28 1-9-4-17-10-21-19-5-10-6-21-2-33 3-10 8-17 16-23 8-5 18-8 28-7zM419 338c-4 11-10 20-19 29-4 4-6 6-8 5-1 0 0-2 4-7 7-7 12-16 16-26 5-11 5-18 1-20l-17-1c-9 2-16 5-22 10-3 2-5 3-5 2-1-1 1-3 3-5 8-8 16-12 26-13 10-2 16-1 19 2 5 5 5 13 2 24zM360 446c-2-2-2-3 0-4 1-2 3 0 6 3 10 13 15 27 13 42-1 13-5 20-13 23-12 3-23-1-34-14-10-13-14-26-12-39 0-3 1-5 3-5 1 0 2 1 2 4 0 13 4 25 13 36 9 10 18 14 25 11s11-11 10-23c0-13-5-24-13-34z"/>
        <path fill="#F9DBE8" d="M95 400c1-6 5-10 14-12 8-1 17 0 25 4s16 11 24 20c8 10 13 17 13 24 1 13-6 18-21 16-13-3-26-9-37-18-12-11-18-22-18-34z"/>
        <path fill="#D7BECA" d="M98 408c0-5 4-7 12-6s18 4 28 11c7 4 14 10 21 18 8 9 10 14 6 16-10 7-24 5-42-8-18-11-26-22-25-31z"/>
        <path fill="#0D131A" d="M120 392c-10-2-16 0-19 5-3 6-2 12 3 21s15 17 28 25c17 9 28 10 34 2 7-8 2-20-15-35-11-10-21-16-31-18zm-23 0c5-6 12-8 22-6s22 8 34 19c17 16 24 29 20 41-5 12-20 12-44 0-15-7-25-16-31-28-6-11-7-20-1-26z"/>
        <path fill="#922F00" d="M192 250l8 2c5 1 8 3 9 5l13 14-3 5-5 4c-2-4-5-7-11-9-4-2-8-3-12-2 0-5 1-11 1-19z"/>
        <path fill="#ED8599" d="M205 288c-6 3-9 4-11 4-2-1-3-5-4-12s0-10 1-11c4-1 9 0 15 3s8 6 8 8l-9 8z"/>
        <path fill="#0D131A" d="M204 255l-7-2-6-2c-4-1-6-4-4-7 0-1 0-2 1-1v2c0 2 1 3 3 3 8 2 13 3 15 4 3 2 6 5 10 9l8 8 4 1 4-1c0-1 1-1 1 0 1 1 1 1 0 3l-5 2-7-2-7-7-10-10z"/>
        <path fill="#0D131A" d="M192 293c-3-2-4-9-4-20l3-23 1-1 2 2-2 18c0 11 0 18 2 19 5 3 14-3 27-19h2l1 2c-4 7-9 12-16 17s-12 7-16 5z"/>
        <path fill="#0D131A" d="M203 273c-5-2-9-3-11-3-1 1-2 0-2-1 0 0 0-1 1-1 4-2 9-1 14 2 6 2 9 5 10 9 1 2 0 3-1 3s-2-1-2-2c-1-2-4-4-9-7z"/>
    </g>
    <g id="175">
        <path fill="#0D131A" d="M119 351l15-3 18 9 25 41-1 6c-2 5-5 11-10 17-11 13-25 22-42 26-16 3-28 1-36-6-9-10-11-25-4-44s19-34 35-46z"/>
        <path fill="#FFF8B0" d="M133 354l14 8 20 34-1 9c-2 6-4 11-8 16-10 10-22 17-36 21-13 3-23 2-29-4l12-12c4-5 6-8 5-9h-3l-6 4-13 11c-4-10-3-22 2-34 4-9 10-17 18-24l17-14 8-6z"/>
        <path fill="#DDD698" d="M108 374l17-14 8-6 14 8 20 34-1 9c-2 6-4 11-8 16-6 5-11 10-17 13-6-8-13-16-22-23s-18-12-27-16c4-8 9-15 16-21z"/>
        <path fill="#0D131A" d="M374 198c-9 26-27 45-53 57-25 11-52 12-79 3-27-10-47-28-59-53-12-26-14-52-5-78 10-26 28-45 53-57 26-12 53-13 80-3s47 27 59 53c12 25 14 51 4 78z"/>
        <path fill="#FFF8B0" d="M369 208c-10 26-27 45-53 57-26 11-52 12-79 3-27-10-47-28-60-53-12-26-14-52-4-78 9-26 27-45 53-57s52-13 79-3 47 27 59 53c13 25 14 51 5 78z"/>
        <path fill="#0D131A" d="M270 102c2 6-4 9-19 11-9 0-24 0-44-1-15 0-23-1-25-3-4-4-5-14-2-32 2-16 6-30 11-42s9-18 13-18c5-1 16 9 32 30 17 22 28 40 34 55z"/>
        <path fill="#FFF8B0" d="M246 76c1 3-2 6-8 8l-22 3c-23 1-33-4-31-13 6-20 10-34 12-41 3-7 5-11 7-11 2-1 8 4 16 14 10 13 19 26 26 40z"/>
        <path fill="#0D131A" d="M390 160c0 4-5 3-16-3-9-7-21-16-33-27-33-30-44-47-32-50 18-5 33-9 46-10 11-2 17-2 20 0 2 2 5 9 7 22 2 14 5 36 8 68z"/>
        <path fill="#FFF8B0" d="M384 155c1 8-4 9-13 4s-19-13-30-24c-11-12-19-23-23-32-5-12-4-19 5-21 12-4 24-7 34-9 9-1 15-1 16 0 1 2 3 12 6 29 2 19 4 36 5 53z"/>
        <path fill="#0D131A" d="M397 115c44 6 69 12 77 19 6 7-15 38-64 94l6 25c3 11 4 18 3 21-4 13-16 20-36 22l-52-2c-10-1-24-5-44-11l-87-26c-36-11-62-27-80-49-7-9-11-16-13-24-3-7-3-11-1-14 8-11 17-22 27-32-1-18-1-40 1-67 2-33 5-50 9-52 5-2 14 5 30 20 10 10 20 21 30 32 12-12 31-26 57-44 28-20 45-28 51-26 4 2 8 17 13 44 5 23 8 45 9 65l64 5z"/>
        <path fill="#FFF8B0" d="M404 122c15 2 29 5 43 8s21 6 22 8c2 3-9 18-31 47l-34 43 7 29 3 18c1 5 0 9-3 13-6 8-21 11-45 10l-49-4c-9-1-24-4-43-10l-80-23c-29-9-53-25-70-49-6-9-10-17-13-25-2-7-3-12-1-14l15-19 12-15 2-68c1-30 3-45 6-46s11 6 26 20c13 13 24 25 31 34 13-13 33-28 58-45 28-20 44-29 48-27 3 1 7 17 12 47s8 50 8 60l28 2 48 6z"/>
        <path fill="#DDD698" d="M359 196c-1-2 0-3 1-4 11-4 31-14 61-30 28-15 44-23 48-24 2 3-9 18-31 47l-34 43 7 29 3 18c1 5 0 9-3 13l-22 2c-10 0-18-2-24-5-7-4-10-13-9-26 3-15 5-25 6-31l-1-16-2-16z"/>
        <path fill="#0D131A" d="M226 96c1 1 2 3 2 7 0 5-2 10-5 15-3 6-6 10-9 12-3 3-5 4-7 3s-3-3-3-7 2-9 4-16c3-6 6-10 10-13 3-2 5-2 8-1zM287 112c3 1 5 3 6 7 1 5 0 10-1 16-2 7-4 12-7 16-2 3-5 4-7 4-3-1-4-3-5-7-2-4-1-10 0-17 2-7 4-12 7-16 2-2 5-3 7-3z"/>
        <path fill="#fff" d="M289 125c-1 3-2 5-3 7-1 1-3 2-4 1l-2-3c-1-1-1-4 0-7 0-2 1-4 3-6 1-1 2-2 3-2 2 1 2 2 3 4v6zM223 108l-4 5h-3c-1 0-2-1-2-3l2-5c3-5 5-7 7-6 1 0 2 1 2 3l-2 6z"/>
        <path fill="#0D131A" d="M203 98c2-2 3-2 3-2 1 0 0 1-1 2-8 9-12 18-13 25s2 11 8 13l2 2h-3c-8-1-11-6-10-14 0-8 5-17 14-26zM309 123c1 17 0 29-5 36-4 7-10 8-19 5l-2-2h3c7 1 13-1 16-7 4-6 5-16 5-32 0-2 1-3 1-3 1 0 1 1 1 3z"/>
        <path fill="#922F00" d="M225 152l2-6 3-8 7 3 9 3-3 7-2 6c-2-2-4-4-8-5h-8z"/>
        <path fill="#ED8599" d="M226 152c7-2 12 0 15 5-4 7-8 10-12 10-3-1-5-4-5-8 0-3 1-5 2-7z"/>
        <path fill="#0D131A" d="M247 145c-3 9-6 15-9 19-4 4-7 5-11 4-6-3-6-12 1-30-2-1-2-2-2-2h3c7 3 13 5 19 7l2 2h-3zm-17-5c-5 15-6 23-1 25 3 1 6-1 9-5 2-4 4-9 6-15-5-1-9-3-14-5z"/>
        <path fill="#0D131A" d="M225 152c3-2 6-2 9-2 4 1 6 3 7 6v2l-1-1c-1-2-4-4-7-4l-7 1-2-1 1-1z"/>
        <path fill="#fff" d="M419 243c8 5 7 25 0 60-8 38-20 66-35 85-16 22-39 37-68 46-30 10-64 11-102 4-43-9-78-28-106-57-24-26-38-54-40-84-2-27 1-56 10-86s20-53 34-69c2 2 5 8 10 18l9 22c19-16 32-25 40-30 1 3 5 16 10 37 4-3 8-6 14-10s10-6 12-5l2 3 3 7c2-1 3-2 6-4 2-1 3-2 4-2s3 4 6 11l16-5 15 36 43-18 33 45 37-18 9 22c5 13 9 21 10 24l14-17c8-8 12-13 14-15z"/>
        <path fill="#0D131A" d="M270 417l47-9 20 6c3 30 1 53-5 70-7 18-19 28-36 27-13 0-22-8-29-21s-10-28-10-48c0-7 2-14 7-19l6-6z"/>
        <path fill="#FFF8B0" d="M332 422c2 51-8 80-30 84v-17l-1-7c0-2-1-3-2-3s-1 1-2 4l-1 6-2 17c-8 0-15-5-21-18-6-12-9-26-8-42 1-6 3-11 7-17l5-6 40-8 15 7z"/>
        <path fill="#DDD698" d="M331 456c-10-3-21-4-33-3-11 1-22 3-33 7v-14c1-6 3-11 7-17l5-6 40-8 15 7c0 13 0 25-1 34z"/>
        <path fill="#DBDCDC" d="M400 311c3-4 9-9 17-14-3 16-8 32-13 48-13 37-38 64-75 81-42 19-89 19-142 0-25-9-46-21-64-36-31-27-49-60-52-98 16 28 39 52 68 70 29 17 60 27 94 30s65-3 94-16c31-14 56-35 73-65z"/>
        <path fill="#0075C1" d="M267 392c-6-7-9-13-9-18-1-7 13-14 40-20 28-6 43-6 46 0 2 2 2 7 0 14-8 4-16 8-24 11 4-5 5-9 4-10-1-3-8-2-22 1-13 4-20 7-19 10 0 2 2 5 6 8l-22 4z"/>
        <path fill="#0066A8" d="M267 392l22-4c7 5 11 8 15 7 2 0 4-1 7-5l9-11c8-3 16-7 24-11-3 9-8 20-16 31s-15 17-21 19c-4 1-11-2-19-7-8-6-15-12-21-19z"/>
        <path fill="#E50044" d="M147 198c3 2 2 8-1 18-4 11-7 16-10 16-2 0-5-3-9-9-3-6-4-10-4-13 1-4 5-7 11-10 7-3 11-4 13-2z"/>
        <path fill="#0075C1" d="M176 255c10-5 27 1 51 18 23 17 34 31 33 41-1 6-11 14-28 25-17 10-30 14-37 13-10-2-18-18-23-48-4-29-3-45 4-49zm18 51c4 13 8 21 12 22 3 0 8-2 16-7 7-5 11-9 11-11 1-5-4-11-15-19s-19-11-23-9-4 9-1 24z"/>
        <path fill="#0D131A" d="M120 209c2-4 6-8 14-11 7-4 12-4 15-3 3 2 3 10-1 22s-8 18-12 18c-3 0-7-4-11-11-4-6-5-11-5-15zm23 6c3-9 4-14 2-15s-5 0-10 3c-6 2-9 5-9 8-1 2 0 6 3 11s5 7 7 7 4-5 7-14zM178 258c-6 3-7 18-3 46s11 43 22 45c6 2 17-3 34-14 16-10 25-17 26-21 1-9-9-22-32-38s-39-22-47-18zm18 96c-13-3-22-20-26-50-2-12-2-23-1-32 1-11 3-17 7-19 10-5 27 1 52 18 25 18 36 32 34 44-2 7-11 15-28 26-18 10-30 15-38 13z"/>
        <path fill="#0D131A" d="M196 284c-3 1-3 8 0 20s7 19 10 21c2 1 7-1 14-5 7-5 10-8 10-10 1-4-4-10-14-18-10-7-17-10-20-8zm-4 21c-4-14-3-23 1-26 4-2 12 1 25 9 13 9 18 17 18 23-1 3-5 7-14 13-9 5-15 7-19 5s-8-10-11-24zM341 355c-3-5-17-4-42 1-25 6-38 12-39 18 0 6 6 15 19 26s22 16 28 15c8-2 17-11 26-28s12-28 8-32zm5-4c5 7 2 19-9 38-10 19-20 30-29 32-6 1-17-4-31-16-16-13-23-24-22-32s15-16 43-22c28-5 44-5 48 0z"/>
        <path fill="#0D131A" d="M285 381c0 1 2 3 7 7s9 5 11 5c3-1 7-5 13-11 5-7 7-11 6-12-2-1-8 0-20 3-11 3-17 5-17 8zm42-14c1 3-1 8-8 17-6 9-11 13-15 14-3 1-8-1-15-6-6-5-9-9-9-11 0-4 7-8 22-12 14-5 23-5 25-2z"/>
        <path fill="#E50044" d="M305 251l-7-1c-4 1-6 2-8 4s-3 5-3 10 0 8 2 9c1 1 4 1 8-2l8-5c1-1 1-4 2-8 0-4 0-6-2-7zm-10-13c11-3 17-4 20-2s5 9 5 20c1 11 0 17-1 20-2 3-8 7-18 11-11 5-17 6-19 4-3-2-5-9-7-21s-1-20 2-23c2-3 8-6 18-9z"/>
        <path fill="#0D131A" d="M314 238c-2-1-8 0-17 2s-16 5-18 8c-3 2-4 9-2 21 1 12 3 18 5 20 2 1 8 0 18-4 9-4 15-8 17-10 1-2 2-9 1-19-1-11-2-17-4-18zm-17-3h20c3 2 4 9 5 21 1 11 0 18-1 21-2 3-9 7-20 12-11 4-18 6-21 4-4-3-6-10-8-23-1-14 0-22 3-25 4-4 12-7 22-10z"/>
        <path fill="#0D131A" d="M305 257c0-3-1-5-2-5h-6c-3 1-5 2-6 4-2 1-2 4-2 8 0 5 0 7 1 8 1 0 3 0 7-2 3-2 6-4 7-6 0-1 1-4 1-7zm1-9c1 1 2 4 2 8 0 5 0 8-1 10s-4 5-9 7c-5 3-8 3-10 2s-3-4-3-10 1-10 3-12 5-3 9-4l9-1z"/>
        <path fill="#E50044" d="M67 284c8-11 14-17 19-17 10 0 22 14 35 43 13 28 18 47 13 58-3 7-12 11-28 13-5-6-11-13-17-22 11 0 17-2 19-6s0-14-6-29c-6-16-12-24-17-24-3 0-8 6-13 18-3-11-5-22-5-34z"/>
        <path fill="#C6003A" d="M79 305c-2 3-5 7-7 13-2-8-4-17-5-26h4l8 13zM108 353c1-2 1-8-1-16 8 8 18 15 28 22 1 4 0 7-1 9-3 7-12 11-28 13-5-6-11-13-17-22 11 0 17-2 19-6z"/>
        <path fill="#0D131A" d="M85 297c6 0 13 9 19 25 7 17 9 27 7 33-2 4-9 7-20 7l-3-5c10 0 16-2 17-5 1-4-1-12-6-26-5-15-9-23-14-23-1 0-3 2-5 6l-7 13-2-8c5-12 10-17 14-17z"/>
        <path fill="#0D131A" d="M67 279c8-10 15-15 21-15 11 1 22 16 36 45 13 28 17 48 13 60-3 7-12 12-28 14l-5-5c16-1 25-5 27-12 4-10 0-28-12-55-13-26-23-40-31-41-6 0-13 6-21 19v-10z"/>
        <path fill="#0D131A" d="M379 253l-8-19c-1-1-6 1-15 5l-19 9h-3l-2-1-16-21-9-14-5-6c-1 0-14 5-40 15l-4 1-1-2c-9-23-14-34-15-34-1-1-5 1-13 5-1 1-2 1-3-1-2-6-4-9-5-9 0 0-3 1-8 5-2 1-3 1-4-1l-3-9c-2-1-9 4-22 14-2 1-3 2-4 1-1 0-1-1-1-2-5-21-8-32-10-32s-13 8-34 25l-5 2c-1 0-2-1-3-3-9-23-14-35-16-35s-6 7-13 21c-9 18-16 39-22 63-16 66 0 119 47 160 18 15 39 27 64 36 53 19 100 19 142 0 37-17 62-44 75-81 9-26 15-50 17-71 1-17 1-26-2-26-1-1-3 1-6 5-4 4-7 7-9 11l-9 6-7 3c-1 0-4-7-9-20zm12 17c4-5 9-11 15-18 8-9 13-13 14-12 5 1 7 12 7 31-1 24-6 51-17 80-14 38-41 66-79 82-43 19-93 18-149-1-25-8-47-21-67-39-23-20-38-42-46-66-10-33-7-74 7-122 6-19 12-34 20-48 7-12 12-19 17-19 1 0 5 5 9 16l10 24c5-5 12-10 18-15 12-10 19-15 21-15 1 1 4 7 7 19l5 19c3-3 8-7 14-11 6-3 9-5 10-4 1 0 3 4 5 10l5-2c3-2 5-3 6-3 1 1 3 4 6 10l7-3c4-2 7-2 8-2s4 6 9 18l7 18 20-9c14-7 21-9 23-9 1 1 7 8 18 23l15 22 17-9c12-6 18-9 20-8 1 0 5 8 10 22 5 15 8 22 8 21z"/>
        <path fill="#FFF8B0" d="M42 177c-1-10-2-19-2-29 0-5 1-10 2-14 2-4 4-7 7-9 6-3 16 1 30 11s24 20 30 30c4 8 3 21-2 40-2 7-6 14-11 21-5 9-9 13-13 12-7-1-13-5-18-11-4-4-9-12-15-24-3-6-6-15-8-27z"/>
        <path fill="#DDD698" d="M43 180c-1-9-2-18-2-28 6 14 15 27 25 39 13 15 25 24 35 27l-6 11c-4 5-7 9-10 9-6 2-13 0-19-8-3-3-8-12-15-26-3-6-6-14-8-24z"/>
        <path fill="#0D131A" d="M76 137c-13-9-21-11-26-8-4 2-7 8-7 18-1 10 1 22 4 35 4 14 9 26 15 37 7 11 13 17 20 17 2 0 3-1 6-3l8-12c6-9 9-19 11-29 3-11 2-19-1-24-8-12-18-22-30-31zm-38 9c1-12 4-19 8-22 7-4 17-2 31 8 14 9 25 20 34 32 3 6 4 14 3 26-2 12-6 23-12 33-8 13-14 19-21 19s-15-6-22-17c-8-11-14-24-18-40-3-14-5-27-3-39z"/>
        <path fill="#FFF8B0" d="M455 251c1 3 1 6-1 9-5 13-13 25-23 37-15 16-31 26-48 28-10 1-18-1-25-8-5-6-9-15-10-25s0-19 4-28c5-9 11-15 20-18 13-4 28-6 46-6 22 0 34 3 37 11z"/>
        <path fill="#DDD698" d="M389 324c-10 3-19 2-28-5-8-6-13-15-14-26 13 4 30 4 50 0 23-4 40-11 51-22-5 12-13 22-22 32-11 10-23 17-37 21z"/>
        <path fill="#0D131A" d="M420 243c-20 0-36 2-48 7-8 3-14 9-17 18-4 8-5 16-4 25 1 7 4 14 7 19 5 6 11 9 18 10 16 2 34-8 53-28 18-20 26-34 23-42-2-6-12-8-32-9zm37 6c2 5 0 11-4 21-4 9-10 18-18 27-19 22-39 32-59 30-9-1-15-4-21-10-5-6-9-13-10-23s0-20 5-30c5-11 12-17 20-20 18-6 37-8 56-6 18 1 29 5 31 11z"/>
    </g>
    <g id="176">
        <path fill="#fff" d="M352 52c19-6 30-8 35-7-4 27-13 55-28 83-15 29-30 46-45 53-4 8-7 21-8 39-1 19 1 32 6 40 14 21 21 43 21 66 0 32-15 56-46 72-12 6-25 11-41 13-15 2-30 2-42-1-3 3-4 11-4 22 5 3 8 10 7 21-1 12-6 23-17 33-8 9-18 15-28 19-12 5-19 4-23-1-2-2-3-7-2-13s3-13 7-20c9-19 22-31 39-39 1-10 1-17 1-22 0-2-1-5-3-7l-3-3c-9-6-16-14-22-25-7-12-10-24-11-38 14-26 21-39 21-40 0 0-1 0-3-1h-7c8-9 22-18 40-26-4-8-7-16-9-23-4-14-4-24 0-31 9-1 20 4 31 13 10 8 16 16 20 24l13-6c2-1 6-8 11-22 6-16 8-29 7-40-20-3-35-11-45-26-6-10-9-24-8-40 1-17 6-31 14-43 0-8 5-20 13-37s14-25 17-27c1 0 3 3 4 10 1 5 2 10 2 15 10-10 21-18 31-25 11-7 18-10 21-9 1 1 1 21 1 61 4-3 15-7 33-12z"/>
        <path fill="#fff" d="M269 185c1 6 0 16-5 32-4 14-8 24-12 29-3-9-4-20-2-33 2-12 5-22 9-30l10 2zM128 126c-8-12-11-19-8-21 4-3 12-1 24 6 16 10 32 27 48 49 9 13 18 28 25 44 6 14 11 27 14 39-8-10-16-18-25-23s-15-7-19-4c-2 1-3 5-3 12 1 8 2 16 5 25-17-9-33-27-45-54-13-26-18-50-16-73zM331 46c5 4 8 7 10 9-11 4-18 7-22 9V41c3 0 7 2 12 5z"/>
        <path fill="#0075C1" d="M156 296h7c2 1 3 1 3 1 0 1-7 14-21 40v-7c0-6 1-12 3-17 1-6 4-12 8-17z"/>
        <path fill="#fff" d="M257 419c0 5 1 9 2 11 9 3 18 8 29 16 13 10 22 21 26 31 3 11 0 16-10 18-9 1-21-2-36-9s-26-16-32-27-5-19 4-24c0-4-1-8-1-11-1-5-3-9-5-11 7-1 15-2 23-4-1 3 0 6 0 10z"/>
        <path fill="#922F00" d="M251 167c5 1 11 2 18 2-3 3-4 6-5 9-5-3-9-7-13-11z"/>
        <path fill="#fff" d="M362 246c9-1 16-1 22 0s10 3 10 5c0 1-1 4-3 8l-12 15c-14 14-31 21-50 23-3-11-7-21-13-31 10-11 25-17 46-20z"/>
        <path fill="#ED8599" d="M269 169c8 0 16-2 22-4 0 4 0 7-1 11-2 5-4 7-8 8s-10-1-18-6c1-3 2-6 5-9z"/>
        <path fill="#0075C1" d="M222 317c3 1 8 7 16 20 8 14 11 23 10 30 0 5-9 8-24 8-16 1-25-1-27-4-3-4 0-13 7-29 8-17 14-25 18-25z"/>
        <path fill="#fff" d="M221 333c1 0 3 4 8 13 4 9 6 14 5 15l-12 1c-8 0-13-1-13-2-1-1 1-6 4-14 4-9 7-13 8-13z"/>
        <path fill="#E50044" d="M282 299c2-1 9 2 22 9s20 13 22 17c3 6 0 16-9 29-8 14-15 20-20 19-6 0-11-11-15-34s-4-36 0-40z"/>
        <path fill="#fff" d="M291 312c0-1 4 2 11 8 8 6 12 10 13 14 0 2-2 6-6 12-4 7-8 10-9 10-2 0-4-7-6-21-3-15-4-22-3-23z"/>
        <path fill="#DBDCDC" d="M333 145c11-9 24-23 38-40-8 18-17 34-27 48s-20 24-30 28c-3 6-5 22-7 48-3-11-8-19-16-24-7-5-15-7-23-4 1-6 1-11 1-16-12-1-23-6-31-12l21 2c9 7 17 11 22 10s9-6 11-15c14-5 28-13 41-25z"/>
        <path fill="#DBDCDC" d="M269 185c1 6 0 16-5 32-4 14-8 24-12 29-3-9-4-20-2-33 2-12 5-22 9-30l10 2zM143 198c11 13 25 23 41 29 1 8 2 17 5 26-9-5-17-12-25-22s-15-21-21-33zM234 413c7-1 15-2 23-4-1 3 0 6 0 10 0 5 1 9 2 11 4 1 10 5 20 11 9 6 17 12 23 18-12-8-24-14-33-17-13-5-23-6-30-2 0-5 0-10-1-14-1-7-2-11-4-13zM392 257c-5 8-11 16-20 23-13 10-27 16-43 17-2-8-5-16-9-23 23 2 47-4 72-17z"/>
        <path fill="#C6003A" d="M297 373c-2 0-5-2-7-8 12-4 22-10 31-18-3 7-8 13-12 19-5 5-9 8-12 7z"/>
        <path fill="#DBDCDC" d="M221 375c26 1 49-2 69-10 2 6 5 8 7 8 3 1 7-2 12-7 5-6 9-12 12-19l-1 1 12-11c-3 26-18 47-45 61-12 6-25 11-41 13-15 2-30 2-42-1-3 3-4 11-4 22 5 3 8 10 7 21-1 12-6 23-16 33 8-17 10-30 5-39-4-8-11-11-21-11l8-4c1-10 1-17 1-22 0-2-1-5-3-7l-3-3c-6-4-11-9-16-15-4-6-8-14-11-22 24 7 48 11 70 12z"/>
        <path fill="#0D131A" d="M295 112c2 0 3 2 4 5 2 4 2 9 1 14-1 6-3 10-5 13s-4 4-6 4c-3-1-5-3-6-6-1-4-1-8 0-14 1-5 2-10 5-13 2-2 4-3 7-3z"/>
        <path fill="#fff" d="M294 115c1 0 2 1 2 3v5c0 2-1 4-2 6-1 1-2 2-3 2s-2-1-2-3c-1-2-1-4 0-6 0-2 1-4 2-5 1-2 2-2 3-2z"/>
        <path fill="#0D131A" d="M227 104c2 0 3 2 4 5s1 7 1 12-1 9-3 12c-1 4-3 5-5 5s-3-2-4-5-2-7-1-12c0-6 1-10 3-13s3-4 5-4z"/>
        <path fill="#fff" d="M227 107c1 0 1 0 2 2v4l-1 5c-1 2-2 3-2 3-1 0-2-1-2-2-1-2-1-3-1-6 1-2 1-3 2-4 0-2 1-2 2-2z"/>
        <path fill="#0D131A" d="M230 74c2-4 4-6 6-6 1-1 1 1-2 4-9 11-14 26-16 43-2 18 1 32 8 43 6 10 16 17 28 22s26 6 40 4c4 0 5 0 4 1s-4 2-8 2c-14 2-27 0-39-4-12-5-22-12-28-22-8-11-11-25-9-43 1-18 7-33 16-44zM382 43c3 0 5 0 5 1 1 0 1 2 1 4-4 29-13 56-27 83-15 28-30 44-45 50-3 2-6 2-7 2-1-1 0-2 3-3 15-5 30-22 45-50 15-29 25-56 28-84-5 0-16 2-31 7-16 4-27 9-32 12-3 2-5 1-5-2 1-35 1-55 0-59-4-1-15 5-31 17-17 13-30 26-37 39-3 3-4 5-5 5s-1-1 1-4c6-12 16-24 29-35s24-18 35-23c4-1 7-2 8-2 2 0 3 3 3 7l1 25v28c6-3 15-7 30-11 13-4 23-6 31-7z"/>
        <path fill="#0D131A" d="M333 45c5 4 8 7 9 9l-1 2h-1c-2-2-5-5-9-8-6-4-9-6-12-6 0 0-1 0-1-1 1-1 1-2 1-2 3 0 8 2 14 6zM263 24c-1-6-2-9-3-10-3 2-9 11-16 26-9 16-13 28-13 35l-2 2c-1 1-2 1-2 1 2-12 6-25 13-39 7-13 12-21 17-26 2-2 3-3 4-3 0 0 1 1 2 3 2 4 4 11 5 22l-2 1-2 1c0-4 0-9-1-13zM265 185c0-1 0-1 2-1l3 1c2 6 0 18-5 35s-10 26-14 29l-13 5c0 1 0 0-1-1v-2l13-5c3-2 7-11 11-28 5-18 6-29 4-33zM351 245c14-3 26-3 37 0 5 1 7 3 8 6 0 1-1 3-2 6l-6 10c-7 8-13 14-19 18-10 8-24 12-39 14l-1-2c-1 0-1-1-1-1 18-2 34-9 48-22 5-4 9-9 13-14 2-4 4-7 4-9-1-1-2-2-6-3-8-3-20-2-34 1-16 4-28 10-36 18 0 0-1 0-1-1-1-1-1-2-1-2 9-9 21-15 36-19z"/>
        <path fill="#0D131A" d="M186 214c3-2 9-1 16 2 11 6 21 13 29 23 10 11 16 24 18 38 0 4 0 7-1 10 0 3-1 2-1-2-1-13-6-27-17-41-9-11-19-20-29-25-6-3-11-4-13-2-1 0-2 2-2 5v12c2 13 6 25 12 37 9 15 19 24 32 28 4 1 4 2 2 2-3 0-6-1-9-2-13-5-22-15-30-29-5-10-9-22-11-34v-12c1-5 2-9 4-10zM258 183h1c1 0 1 1 1 1-4 7-6 17-8 29-2 13-1 24 2 32 0 1-1 1-2 2h-2c-3-9-4-21-2-34 2-12 5-22 10-30z"/>
        <path fill="#0D131A" d="M127 127c0-1 0-1 1-1s2 0 2 1c-2 22 3 45 15 71s26 43 43 53c1 0 1 1 1 2 0 2 0 2-1 2-18-9-34-27-46-54-13-26-18-51-15-74z"/>
        <path fill="#0D131A" d="M116 106c0-2 1-3 3-3h8c8 1 18 6 29 15 13 10 26 24 39 42 10 14 19 30 26 47 7 15 11 28 14 39-4-3-6-6-7-8-3-11-7-23-13-35-7-15-15-29-24-42-15-20-29-36-44-45-8-6-15-9-21-10h-4c-1 0-1 1-1 3 1 8 13 25 35 51l16 19c6 8 10 14 13 19 1 3 2 6 2 9 0 2 0 4-1 6s-4 3-8 3l-7-1c-2-1-4-2-6-4s-3-4-3-6c-1-1 0-1 2 1 5 5 9 8 14 8 2-1 3-1 4-3 2-3 1-6-1-11-4-9-14-22-28-38-14-17-23-29-28-36-6-9-9-16-9-20zM197 271c-19 9-33 18-41 28-6 8-9 19-9 31-1 20 4 37 15 52 3 4 7 8 11 12l7 6c3 3 5 6 5 10v9l-1 12c-1 4-2 7-3 8-1 0-2-1-1-5 1-2 2-6 2-12 1-5 1-9 0-12 0-4-2-7-7-10-7-5-14-12-20-21-9-14-13-30-13-48 0-13 3-24 9-33 8-11 23-21 44-30 0 0 1 0 2 1 0 1 1 2 0 2zM305 221c0-17 3-30 7-40 1 0 2-1 4-1l2-1c-5 9-8 22-10 40-1 19 1 33 6 40 9 15 15 29 18 44 4 16 4 30 0 44-3 11-8 22-15 30-7 9-17 17-28 23-14 7-28 11-42 14l-42-2c-3 3-5 11-4 24 0 4 0 5-1 4-1 0-1-2-2-5-1-12 0-21 3-25 1-1 2-1 4-1 13 3 26 3 41 1 14-2 28-7 40-14 11-5 20-12 27-21 8-9 13-19 15-30 4-13 4-27 1-42-3-14-9-28-18-42-5-8-7-21-6-40z"/>
        <path fill="#0D131A" d="M182 429s1 1 1 3l-1 2c-11 5-20 13-28 23-7 9-12 19-15 29-1 4-1 8-1 11s1 5 2 6c1 2 4 3 7 4 6 0 13-2 21-7 8-4 15-9 21-15 7-6 12-13 14-21 3-7 3-13 2-19-1-5-3-9-5-11v-2-2c2 1 4 3 6 5l3 9c1 6 0 13-3 21-3 9-7 17-14 24-7 6-14 11-22 15-9 5-17 7-23 7-4 0-7-2-9-5-2-1-3-4-3-8s0-8 2-12c2-11 7-21 14-31 9-12 19-20 31-26z"/>
        <path fill="#0D131A" d="M153 482c2-3 4-5 6-5 1 0 1 1-2 5-10 12-14 21-11 25h-2l-3-1c0-4 1-8 4-13 1-3 4-6 8-11zM231 413c-1 0 0 0 1-1h3c3 4 5 8 6 14 1 4 1 7 0 10 0 3-1 4-2 5s-1 0-1-3c1-2 0-6-1-12s-3-11-6-13z"/>
        <path fill="#0D131A" d="M255 410l2-2h2c0 2-1 5 0 9 0 5 0 8 1 11 11 4 21 10 30 17 13 10 21 20 25 32 3 7 2 12-2 16-3 3-10 4-18 3-9-1-19-3-30-8-9-5-18-11-24-19-7-8-10-15-10-21 0-4 1-6 2-9 2-3 4-5 7-6v4c-4 2-6 6-6 10 0 7 3 13 10 20 6 7 15 13 24 17 10 5 19 8 27 9s13 0 16-3c3-2 3-6 1-12-3-10-12-20-24-30-9-7-19-12-28-16l-2-2c-1 0-1-1-1-3-1-5-2-11-2-17z"/>
        <path fill="#0D131A" d="M291 471c-3-1-3-2-2-3 1 0 3 0 5 2 5 1 9 4 13 8 5 3 7 7 8 10 0 1-1 2-3 3 0-3-3-6-8-11-5-4-9-7-13-9zM227 81v-1-1c2 0 4 1 6 3 1 1 2 4 2 6 0 1 0 2-1 3v-1c-1-3-1-4-3-6-1-2-2-3-4-3zM287 94c2-4 5-7 10-9s9-1 13 1c1 1 1 1 1 2h-1c-4-2-8-2-13 0s-8 5-9 8c0 1-1 2-2 2 0 0 0-1 1-4zM288 177c1-2 2-5 2-8v-2c-6 1-12 2-19 3l-17-1c4 4 8 7 12 10 7 4 12 5 15 4 3 0 6-2 7-6zm2-12c2-1 3-1 3 1 1 3 0 7-2 11-2 5-5 8-9 9-5 1-11-1-19-7-5-3-9-7-13-11l-5-3c-1-1-1-1 0-2h2c3 2 9 4 18 4 9 1 18 0 25-2z"/>
        <path fill="#0D131A" d="M269 168c1 1 2 1 2 2-2 1-3 2-4 4s-2 4-2 5l-1-1-1-1c0-3 2-6 6-9zM155 296c0-1 1-1 2-1h8c2 0 3 1 3 2s-4 8-11 21l-10 20c-1 1-2 1-2 1-1-1-1-1-1-2l21-39h-8c-1 0-2-1-2-2zM236 337c-7-11-11-17-14-18-1 0-3 2-5 4-3 4-6 8-9 14s-6 12-8 18-3 10-3 13c0 1 1 1 1 2 1 1 6 3 15 3l24-1c6-1 10-3 10-6v-1c0-6-4-16-11-28zm-14-21h1c1 0 4 3 8 8 5 7 9 14 13 22 5 9 7 16 6 21-1 4-5 6-12 8l-25 1c-10 0-16-2-18-5-1-2-1-7 2-15 2-7 5-14 9-21 6-13 12-19 16-19z"/>
        <path fill="#0D131A" d="M221 361h12c-1-2-2-7-5-14l-7-13c-2 2-4 6-7 13-2 6-4 10-4 12l11 2zm0-30c1 0 1 0 2 1 1 2 4 7 7 15 4 8 6 13 6 15-1 1-2 1-4 2h-13c-7-1-11-2-12-3 0-1 1-5 3-12 3-6 5-11 7-14s3-4 4-4zM283 301c-1 1-2 5-2 12 0 6 1 14 2 23 2 9 4 17 6 24 3 8 5 12 8 12 2 0 4-1 7-4s6-6 9-10c4-6 8-12 10-18s3-12 1-15c-1-3-8-8-20-15-11-7-19-10-21-9zm-2-3c1-1 2-1 4 0 5 1 13 4 23 11 11 6 18 12 19 15 2 4 1 9-1 16s-6 13-10 19l-8 10c-5 4-8 6-11 6-4 0-7-5-11-14-3-10-6-22-7-36-2-15-1-24 2-27z"/>
        <path fill="#0D131A" d="M308 345c4-5 5-9 5-11s-3-6-9-11c-5-4-9-7-12-9 0 4 1 11 3 21 2 11 4 17 5 19 2-1 4-4 8-9zm-18-34c0-1 1-1 2 0 2 0 7 3 13 9 7 5 10 10 11 14 1 1 0 4-3 8l-6 10c-3 3-6 5-7 5s-2 0-3-2c-1-4-3-11-6-23-2-13-3-20-1-21z"/>
    </g>
    <g id="177">
        <path fill="#E85377" d="M218 46c14 2 13 10-3 24-9 8-21 16-36 25-9 6-27 12-53 19-25 6-43 9-53 9-17 0-30-2-41-6-18-6-27-17-27-32 0-23 31-37 93-41 44-3 84-3 120 2z"/>
        <path fill="#C94768" d="M178 81c12-4 23-5 34-5-6 6-12 10-20 14l-15 7c-12 5-29 11-51 17-25 6-41 10-50 10-15 0-28-2-39-5-17-5-28-13-33-24l3-2c18 6 42 9 71 7 33-1 66-8 100-19z"/>
        <path fill="#E85377" d="M292 332c3 4 3 9 1 14-3 5-5 11-7 18s-3 11-2 13 6 5 14 9l17 9 36 24-5 7-2 15-36-17 10 14-5 1-8 3c-2 1-4 4-7 9l-3 7c-26-18-41-30-44-33-2-2-9-5-21-9l-17-6-2-7 3-17 36-6 2-39c1-5 4-9 8-13 5-3 10-5 17-4 7 0 12 3 15 8z"/>
        <path fill="#C94768" d="M311 426l-6-4c0-2 4-2 12-1 8 2 17 4 25 8l4 3-4 10-31-16zM212 401c15 2 31 7 47 16 15 9 28 19 39 32v2l-5 7c-25-19-39-30-42-33-2-2-9-5-20-9l-16-5-3-10zM287 361l-36-4 1-16c1-5 4-9 8-13 5-3 10-5 17-4 6 0 11 3 13 7s2 9 1 14l-4 16z"/>
        <path fill="#E85377" d="M352 325c8-4 13-3 14 4 2 10 3 20 3 29l77 33-10 16c-2-3-5-5-9-4-3 0-7 1-11 4-5 4-7 9-6 14l-78-30c-1-2-1-7 0-14l2-11 5-1v-21c0-9 4-15 13-19z"/>
        <path fill="#C94768" d="M367 335l1 7-1 8c-7 2-16 4-28 5v-11c0-9 4-14 12-16 9-2 14 1 16 7z"/>
        <path fill="#fff" d="M212 386l1 25c-26-6-39-10-40-12 0-1 6-4 19-8l20-5zM347 494c-3 2-20-10-53-36 5-8 10-14 16-17l7-3 17 25c11 18 16 28 13 31zM347 424l5-5c37 30 55 46 53 48s-23-6-63-25c0-7 2-14 5-18z"/>
        <path fill="#fff" d="M404 466c-3 4-23-3-61-23v-9c1-7 4-12 9-17 9 7 21 16 33 28 14 12 20 19 19 21zM336 365l-4 12v14l-19-7c-12-5-18-9-17-10 0-2 7-4 20-6l20-3zM425 402c2 0 11 5 27 15 17 11 24 17 21 19s-15 0-35-6l-30-10c0-4 2-8 6-12 2-1 5-3 11-6zM444 392c2-1 12 3 31 13s28 16 27 18c-1 1-8 1-21 0l-23-3-12-7-10-6 3-7c2-4 3-7 5-8z"/>
        <path fill="#C94768" d="M409 420l-77-29-1-10 40 16 39 14zM407 392c6-1 17 2 33 7l-4 8-29-15z"/>
        <path fill="#DBDCDC" d="M300 449l27 25c13 12 20 18 19 19s-18-10-51-35l5-9zM383 460l-41-18 3-12 32 19 26 17c-3 0-10-2-20-6zM410 411l63 25c3 0 3 1-2 1-4 0-25-6-64-17l3-9zM440 399c41 15 61 24 61 25l-43-4-22-13 4-8zM330 381l2 11-36-16 4-5zM211 401l1 10-37-11z"/>
        <path fill="#0D131A" d="M248 378l1-27c1-14 2-21 3-21l44 4c3 0 5 1 6 3v3l-4 1-4 1-5 20-4 15c25 10 53 27 83 51 29 22 42 36 39 41-1 2-9 0-24-6-18-8-42-19-70-34 13 15 23 30 30 44s10 21 8 23c-2 1-8-1-18-7-15-10-43-31-84-63-5-5-20-10-45-16-23-5-34-9-34-11 0-3 11-7 32-12 17-4 33-7 46-9zm4 3l-3 2-34 6-26 5c-7 2-11 4-11 5l30 8c23 5 38 10 45 16l56 43c22 17 33 24 35 24 2-2-1-8-9-21-7-11-15-23-25-35-5-8-8-12-6-13 1-1 5 0 14 4 9 5 26 13 50 26 20 10 30 14 31 12 2-2-11-14-40-35-31-23-55-38-73-45l-4-3-1-5 6-29-32 1-2 30-1 4z"/>
        <path fill="#0D131A" d="M417 400c-8-4-11-7-11-8s5 0 13 4c11 5 24 12 39 22l26 4h15c1-1-10-7-30-17-25-12-57-26-96-42l-6-3-1-7c-1-11-2-18-3-21-3 0-6 2-11 6l-8 4-1 26-32 3c-8 1-12 3-12 4 0 3 29 14 85 34 57 20 86 28 88 26 0-1-5-5-15-12-12-8-25-16-40-23zm-49-80l2 12 2 24c45 19 79 34 103 47 21 11 31 18 30 21 0 1-5 2-15 1l-25-3 7 7c5 4 7 7 6 9s-12 1-32-5c-19-5-42-12-68-22-60-20-88-33-84-39 1-1 5-3 13-4l31-5v-20c0-9 1-14 2-14l28-9zM211 387c0-1 2-1 4-1s3 0 2 2c-2 2-3 6-3 11s1 9 3 12c1 1 0 1-2 1s-4-1-4-2c-3-7-3-15 0-23zM320 439c2 2 1 2 0 2-5-1-9 1-14 5-5 3-8 8-9 13 0 1-1 1-3 0-1-2-1-3-1-4 2-6 5-10 9-14 5-3 10-5 15-5l3 3zM351 417l3 3c1 1 1 2-1 2s-4 2-6 7c-1 4-1 8-1 12 0 1 0 2-2 1-2 0-3-1-3-2-1-12 2-19 10-23z"/>
        <path fill="#0D131A" d="M334 366c1-1 3-2 4-1 1 0 1 1 0 2-1 2-2 6-3 11-2 6-1 11 1 14 1 1 1 2-1 2l-4-3c-2-3-3-7-2-12s3-10 5-13zM424 402l3 1c2 1 2 1 1 1-3 0-7 1-10 4s-5 7-6 12c-1 1-2 2-3 1-2-1-3-2-2-4 1-3 3-6 6-9s7-5 11-6zM445 391c4 1 5 2 3 3s-4 3-6 5c-2 3-2 6-3 8 0 2-1 3-2 2-2 0-3-1-2-3 1-6 4-11 10-15zM189 86l42-37c-62-3-111-3-146 0-35 4-58 10-68 20-5 5-8 11-8 18 0 9 5 16 14 21 15 9 37 13 65 10 32-3 66-14 101-32zm46-42l9 1c5 1 7 2 6 3l-53 38c-40 25-79 38-118 40-24 1-42-2-56-9-15-8-22-17-22-30 0-21 18-35 54-42s96-7 180-1zM368 180c23-17 51-25 84-25 19 0 34 5 44 15s15 24 15 42c0 29-12 54-35 77-25 23-55 34-92 34-17 0-30-9-39-27-8-16-11-37-11-63 0-20 11-38 34-53z"/>
        <path fill="#FFE100" d="M503 211c0 27-11 51-34 73-24 23-52 34-85 34-12 0-22-9-29-27-7-15-10-35-10-58 0-17 11-33 31-49 22-16 47-24 76-24 34 0 51 17 51 51z"/>
        <path fill="#DCC200" d="M478 275c-15 17-33 29-55 37l-1-2 37-40c21-11 35-28 44-49-3 19-11 37-25 54z"/>
        <path fill="#8CC456" d="M481 186c0 48-19 87-56 118-33 28-72 42-116 42-51 0-89-8-112-23-33-22-50-62-50-121 0-60 19-107 57-141 32-28 68-42 110-42 46 0 85 15 117 45 33 32 50 73 50 122z"/>
        <path fill="#79AA4A" d="M409 281c32-15 55-34 69-57-9 37-31 67-65 90-32 21-67 32-104 32-47 0-81-6-105-18-33-16-53-46-60-91l6 10c12 22 33 38 64 49 28 9 60 13 96 10s69-11 99-25z"/>
        <path fill="#0D131A" d="M477 186c0-48-15-87-46-118-30-31-69-46-116-46-46 0-85 16-116 50-31 33-47 75-47 125 0 53 11 90 34 112 22 23 60 35 114 35 47 0 87-13 120-40 38-29 57-68 57-118zM438 66c31 33 47 73 47 120 0 51-20 92-60 123-36 27-77 41-125 41-57 0-97-12-120-35-24-22-35-61-35-116 0-53 16-96 48-131s73-52 122-52c50 0 91 17 123 50z"/>
        <path fill="#fff" d="M311 83c-11 11-26 20-44 26-19 6-40 10-64 10-3-11 0-22 10-33 8-10 20-17 35-22 14-4 28-4 43 2 12 5 19 11 20 17z"/>
        <path fill="#0D131A" d="M309 82c-4-6-11-11-22-14-12-5-25-5-38-1-14 4-25 11-34 22-7 9-10 18-10 27 38 1 73-10 104-34zm-22-19c9 2 17 7 23 13 3 3 5 5 5 6s-2 3-5 5c-18 15-41 26-70 31l-40 2c-2-8 1-18 8-30 9-14 21-23 37-27 15-4 29-4 42 0z"/>
        <path fill="#0D131A" d="M280 62c2 9 2 17 2 25v15l-17 6-27 9c-2-10-3-20-3-30l1-19c8-5 23-7 44-6z"/>
        <path fill="#0D131A" d="M278 100l1-13c0-7-1-15-2-24l7 1c2 6 3 10 3 15 1 6 0 14-2 22 0 1-6 4-19 8l-16 5-15 3c-3-5-5-13-5-23-1-11-1-19 2-23 12-8 28-10 45-8l-19 1c-5 0-11 3-18 6l-1 17c0 5 1 14 2 25l37-12z"/>
        <path fill="#fff" d="M268 72c1 2 0 4-3 7-2 2-6 4-10 5l-11 1c-4-1-6-2-7-5 0-2 1-4 3-6 3-3 6-5 10-6l12-1c4 1 6 2 6 5z"/>
        <path fill="#E85377" d="M100 305l5 20-25 25c-5-7-9-16-10-28-1-10-1-16 0-18l30 1z"/>
        <path fill="#C94768" d="M117 328l1 2-36 28c-8-11-12-23-13-37l1-17h3l6 13c3 4 4 6 6 6l16-5 16 10z"/>
        <path fill="#0D131A" d="M111 328l-6-21c-3 1-14 1-32 0-1 5 0 12 1 20 2 10 5 17 8 23l29-22zm-2-25c2 0 4 4 9 13l6 12c1 3 0 5-2 7l-37 27-4 1v-1l1-2c-5-6-9-15-12-24-2-9-3-18-3-28 0-3 1-5 1-6l5-1 36 2z"/>
        <path fill="#E85377" d="M160 413c-9-3-21-7-34-14l-17-9 29-41 50 12c-2 7-12 25-28 52z"/>
        <path fill="#C94768" d="M160 413c-9-3-21-8-35-16l-18-11h-6l17-9c6 4 13 7 20 11 7 3 12 4 14 3 3-1 8-11 15-32l10-1 11 3c-2 7-12 25-28 52z"/>
        <path fill="#0D131A" d="M133 356l-23 32c21 10 37 17 49 21l22-41-48-12zm-34 29l27-39c2-2 4-3 6-2l59 15c1 0-7 16-23 47-2 5-4 8-6 9s-5 1-10-1c-9-3-19-8-32-14l-16-9-3-1c-2 0-3 0-3-1s0-3 1-4z"/>
        <path fill="#E85377" d="M113 319l21 35c-3 7-15 25-35 51-11-4-22-10-32-18l-12-12c4-6 15-18 33-34l25-22z"/>
        <path fill="#C94768" d="M99 405c-11-4-22-10-31-18l-12-11c3-4 5-6 6-8 19 14 29 21 32 19 2-1 6-6 13-15l20-27 7 9c-3 7-15 25-35 51z"/>
        <path fill="#0D131A" d="M96 402c16-20 27-35 32-44l-20-34c-24 24-40 41-48 52 11 12 23 20 36 26zm-2-70c15-13 22-19 23-18l22 35c0 1-10 17-31 49-3 6-6 9-7 10-3 1-5 1-9-1l-21-13c-6-3-10-7-14-11-3-3-5-6-4-9 1-1 3-4 7-9 7-8 19-19 34-33z"/>
        <path fill="#FFE100" d="M389 48c17-8 37-13 59-15 20-1 31 0 34 4 3 5 4 14 1 26-3 11-8 23-16 35-18 29-38 44-59 44-19 0-37-5-53-14-16-8-25-18-25-28 0-5 5-12 15-22 12-11 26-21 44-30z"/>
        <path fill="#DCC200" d="M486 53c-3 15-10 32-22 51-17 26-36 38-57 38-19-1-35-5-50-13l-17-12c24 9 50 7 79-5s52-31 67-59z"/>
        <path fill="#0D131A" d="M482 57c2-8 2-13 0-16-7-4-20-5-38-4-20 2-38 6-53 14-17 8-31 18-43 30-9 10-14 17-14 21 0 7 7 15 22 24 17 9 34 13 51 13 12 0 24-6 37-18 11-10 21-23 28-38 5-10 9-18 10-26zm5 5c-3 12-9 24-16 36-20 31-41 46-65 46-20 0-38-5-55-15-16-9-23-18-23-26 0-7 5-16 15-27 12-12 27-22 44-30 19-10 40-15 62-16 21-1 33 1 37 6 3 6 4 14 1 26zM212 160c9 0 18 5 26 15 8 9 12 19 12 28 0 30-10 68-30 114-20 45-35 68-46 68-19 0-36-9-53-27-17-19-26-41-26-67-1-41 10-73 32-97 22-23 50-34 85-34z"/>
        <path fill="#3E4E57" d="M139 190c-5 35 0 65 13 92 11 21 27 40 50 56l-5 8-16-10-12-9c-2-1-3-2-4-1-1 0-2 2-4 5-6 9-12 20-19 34-10-7-17-14-20-20l21-33 3-5c0-1 0-3-2-5-3-5-6-10-8-15-2-4-4-10-7-18-1-3-2-5-3-4-1 0-2 1-5 4l-19 16 3-29 10-4c3-2 5-3 5-4v-8l-2-22c4-8 11-18 21-28z"/>
        <path fill="#27333A" d="M149 351l-7 14c-10-7-17-14-20-20l8-12c4 6 11 12 19 18zM183 337l6-9 13 10-5 8z"/>
        <path fill="#E85377" d="M124 274c6 15 11 25 16 32l-22 32c-10-16-15-30-16-44l22-20zM168 333c5 5 12 10 21 14l-17 29c-8 0-16-3-24-7 4-9 11-21 20-36z"/>
        <path fill="#FFE100" d="M245 203c0 14-4 34-13 60-8 25-17 48-27 69-25-19-42-41-52-67-9-25-11-51-6-79 18-13 39-19 62-19 10 0 19 4 26 13 7 7 10 15 10 23z"/>
        <path fill="#DCC200" d="M239 240c-8 30-19 61-34 92l-12-10c3-4 11-16 21-35 12-21 21-37 25-47z"/>
        <path fill="#C94768" d="M125 327l-7 11c-9-15-14-29-16-42 7 11 14 21 23 31zM167 359l5-5 8-12 9 5-17 29c-8 0-16-3-24-7l7-15c6 4 9 6 12 5z"/>
        <path fill="#E85377" d="M115 244l-8 4c1-7 3-14 7-21l1 17z"/>
    </g>
    <g id="178">
        <path fill="#3E4E57" d="M267 145c26 41 45 88 58 141 4 17 7 35 9 52 2 11 3 20 3 26-14 11-31 21-50 31-39 20-71 27-97 22-24-3-43-14-58-31-10-11-16-23-19-35 8-48 23-97 46-146 11-25 21-45 31-60h77z"/>
        <path fill="#8CC456" d="M283 25c15 15 23 33 23 53 0 21-8 39-23 54s-33 22-54 22c-22 0-40-7-55-22s-22-33-22-54c0-20 7-38 22-53s33-22 55-22c21 0 39 7 54 22z"/>
        <path fill="#fff" d="M234 72c-4-3-8-7-11-12l-3-6 7-3c6-1 12-2 18-2 19 1 34 11 44 28-22 8-40 6-55-5z"/>
        <path fill="#FFE100" d="M185 95l-31-8c-15-4-23-7-26-7s-6 1-10 3l-5 2c1-4 2-9 4-13 4-10 10-16 16-19 8-3 20-4 34-3 16 1 27 5 35 12 7 5 10 12 9 19-1 5-3 9-5 10-2 2-4 3-6 4-3 2-8 2-15 0z"/>
        <path fill="#8CC456" d="M169 185c7 19 11 28 12 29 1 0 12-8 32-25l4 4c2 4 5 8 7 12 8 14 13 28 15 42l-9 8c-8 7-17 12-27 15l11 22c-4 2-9 4-15 6-11 3-22 3-31 1s-17-6-23-11c-1-2-3-3-4-5l-1-2 5-11c-4-6-6-11-7-14l13-33c10-23 16-36 18-38z"/>
        <path fill="#E85377" d="M186 242c-2-2-2-3 0-4 4-3 9-5 15-6 9 0 17 3 24 11-3 3-7 5-12 6-10 3-19 1-27-7zM149 230c4 0 8 1 12 3 3 2 5 4 5 5 0 2-3 4-8 5-6 2-11 2-15 1l6-14z"/>
        <path fill="#8CC456" d="M249 211l5-5c0 8-2 18-8 28-2 5-5 9-7 13 0-4-1-9-4-16l-3-9c7-4 12-7 17-11zM213 314l7-5 2-1c4 7 15 28 31 63l23 51c-29 5-55 6-78 4-7-1-13-2-19-4l-6-2c-1-10-1-29 2-56l4-38c14-3 25-7 34-12zM144 317l-13 96h-9c-7-1-12-3-16-7 0-5 0-13 1-23 2-20 6-39 11-59l14-28 2 7c2 6 5 10 10 14z"/>
        <path fill="#FFE100" d="M247 361l8 13c-16 5-35 7-56 6l-18-2-8-1 2-13 25 2c20 1 35-1 47-5zM204 409l-23-2-9-1 1-15 8 1 20 2c23 1 43 0 60-4l7 15c-18 4-40 5-64 4zM126 367c-8-1-13-3-16-6l2-12 10 4c8 2 13 4 17 4l-2 12-11-2zM114 393l-7-3 1-14c5 3 11 6 18 7l8 1-1 14c-7-1-13-2-19-5z"/>
        <path fill="#E3EFF5" d="M299 206c4 9 8 20 11 32 7 21 11 45 13 70l20 30c14 21 22 34 25 40-6 6-14 13-24 21-20 15-41 26-63 33l-78-162c11-2 20-8 30-17 18-17 25-42 20-74 7 2 15 4 21 8 11 5 19 12 25 19zM127 212c11-20 26-32 45-37-22 17-34 35-37 54-3 16 0 29 10 40-16 36-33 68-50 96-9 14-16 25-22 32-9-20-12-42-10-64 0-7 1-13 3-20l2-7c5-6 14-13 27-23l19-13c-1-21 4-40 13-58z"/>
        <path fill="#E3EFF5" d="M173 176c-3 4-8 15-16 33l-10 26c-3 0-6 2-9 4l-3 3c-2-18 3-34 17-49 7-7 14-13 21-17z"/>
        <path fill="#E85377" d="M278 137l6 37-17-30zM301 105c4 4 22 28 53 73 35 51 67 100 97 146 1 2 2 3 1 4 0 1-2 3-5 5l-30 24c-2 2-4 3-5 2-2 0-3-3-5-7-9-23-32-68-66-135-17-33-33-65-48-94 4-6 7-12 8-18zM154 406l17 6-2 19c17 0 26 3 25 8 0 4-6 8-16 13-8 3-22 8-41 13-20 7-37 11-48 13-17 3-27 3-28 0-3-3 5-10 23-21 15-8 30-15 46-20 9-3 15-4 21-5l3-26zM223 440c2-3 5-4 11-4l7 1 1-10 15-2-1 15c9 2 25 11 49 28 7 6 15 13 24 23 8 9 12 15 9 18-2 2-11 1-27-5-17-6-33-14-47-24-15-11-26-20-33-27-7-6-9-11-8-13z"/>
        <path fill="#fff" d="M241 441l-5 2c-3 3-5 6-5 10l-4-5c-3-3-4-6-3-8s5-3 10-4l7 1v4zM300 488c5-6 12-8 21-6l11 11c6 8 9 13 6 15-2 3-10 1-24-3l-20-8c1-3 3-6 6-9zM184 433c6 0 9 2 10 4 2 2 1 5-4 8-2 2-4 3-7 4 2-5 2-10-1-13-1-1-2-2-4-3l-1-1 7 1zM85 457c11 1 17 4 20 10 2 2 2 5 2 7l-23 4c-15 2-23 2-24 0s3-7 11-13l14-8z"/>
        <path fill="#E85377" d="M261 388l9-4c8-3 16-6 23-10 24-11 41-22 52-32l13 19c-4 5-11 10-20 17-18 12-40 24-66 33l-11-23z"/>
        <path fill="#3E4E57" d="M282 432l-10-22c24-9 46-19 64-33 10-6 17-12 22-17l10 17c-12 15-30 29-54 41-12 6-23 11-32 14zM67 306l14-13c-2 9-3 20-2 32 0 16 4 32 10 48l-16 24c-3-7-6-16-8-28-4-22-3-43 2-63z"/>
        <path fill="#E85377" d="M80 295l14-11c-2 17-1 34 2 49 2 8 4 14 6 19l-14 24c-7-24-11-44-10-62 0-5 0-10 1-14l1-5zM308 233c4 8 7 18 9 31 1 6 1 11 2 16-15-12-29-22-43-29l-16-8c3-4 5-11 7-20l3-12c7 2 15 6 25 13l13 9z"/>
        <path fill="#FFE100" d="M313 247l5 20c-8-7-18-14-30-20l-15-8 3-9 1-6c8 3 17 8 25 14 5 3 8 6 11 9z"/>
        <path fill="#79AA4A" d="M187 128c11 5 22 7 35 7 19 0 36-6 52-17 15-11 26-26 32-44 0 11-2 23-7 35-9 24-27 38-53 43-27 5-49-1-67-17-6-5-11-11-16-18l-4-8c8 8 17 14 28 19z"/>
        <path fill="#DCC200" d="M185 95c-6-1-18-4-34-9-14-4-22-6-23-6-2 0-5 1-8 2-4 1-6 2-7 3 0-2 1-5 3-7 3-5 8-6 14-5s16 3 30 7l25 6 13 2c4 1 7 0 11-2-1 2-3 5-5 6-4 4-11 5-19 3z"/>
        <path fill="#C94768" d="M327 188l-35-64 4-8c3-5 5-9 5-11l23 31 3 52zM278 139l7 38c-10-19-16-29-18-33l11-5z"/>
        <path fill="#C1CBD1" d="M172 178c-2 2-8 12-15 30-4 9-7 18-10 26-3 1-6 2-9 5l-3 3c-1-19 4-36 17-50 7-6 13-11 20-14z"/>
        <path fill="#27333A" d="M267 144l4 6c-4 8-11 15-20 19-8 4-18 6-28 5-9 0-18-1-25-5-8-3-13-7-14-12l6-13c19 9 38 11 56 8 9-2 16-4 21-8zM149 372c9 4 17 7 24 8v33c-4-1-9-3-14-5-10-5-18-12-24-19l3-24 11 7z"/>
        <path fill="#C94768" d="M183 449c-8 4-18 7-28 11-21 8-37 12-48 14v-3c0-2-1-4-3-5 42-12 68-21 81-25l-1 3c0 3-1 4-1 5z"/>
        <path fill="#DBDCDC" d="M60 478c22-5 37-9 45-12l1 2c1 2 1 4 1 6-7 1-14 3-21 4-14 3-23 3-26 0zM185 441l9-3h1v2c-1 2-4 5-11 8l1-7zM224 440l2 2 6 6-2 5-3-5c-3-4-4-7-3-8z"/>
        <path fill="#C94768" d="M270 484c-18-11-31-21-40-31l2-5 21 17c17 12 32 21 44 27l-4 5c-7-3-15-8-23-13z"/>
        <path fill="#DBDCDC" d="M296 492l16 7c11 5 20 8 26 9 0 1-2 2-6 1-7 0-20-4-38-11 1-3 1-5 2-6z"/>
        <path fill="#79AA4A" d="M268 405l8 17-12 2h-5l-6-16z"/>
        <path fill="#DCC200" d="M268 405l-15 3-6-15 14-2z"/>
        <path fill="#79AA4A" d="M261 391l-14 2-6-15 13-3z"/>
        <path fill="#DCC200" d="M247 361l7 14-13 3-5-14z"/>
        <path fill="#79AA4A" d="M222 308l25 53-11 3-20-52c2-2 4-3 6-4z"/>
        <path fill="#0D131A" d="M245 50c4 0 9 1 14 3 5 1 10 3 13 6 1 3 1 6 0 11-1 4-3 8-5 11-8 0-16-2-23-5l-8-5c0-8 2-14 5-18 1-2 3-3 4-3z"/>
        <path fill="#fff" d="M260 61c0 1-2 2-4 2-2 1-4 1-6 0-3 0-4-1-6-3-1-1-2-3-1-4 0-2 1-3 3-3h7l6 3c1 2 1 3 1 5z"/>
        <path fill="#0D131A" d="M297 51c-3-9-9-17-16-25-7-7-15-12-24-16-9-3-18-5-28-5-17 0-31 4-44 13-11 8-20 19-26 33h-3c4-14 13-26 26-35 14-10 30-15 47-15 11 0 21 2 31 6s18 10 25 18c8 7 13 15 17 26 4 10 6 20 6 31 0 10-2 19-6 28s-9 17-17 24c-7 7-16 13-26 17-11 4-21 5-31 5-22-1-41-8-56-23-13-13-21-29-22-46l4 1c2 17 9 31 22 42 13 13 31 20 52 21 9 0 19-1 29-5 9-3 17-9 24-16 7-6 13-14 16-22 4-9 6-18 6-28s-2-20-6-29z"/>
        <path fill="#0D131A" d="M300 107c-1-1 0-1 0-3 1-1 1-2 1-2 7 7 30 39 70 97s66 99 80 123c2 3 3 5 3 6s-1 2-3 4l-17 14-17 14c-3 2-5 3-6 2-1 0-2-2-3-5-10-22-26-55-48-101-26-52-49-96-69-131 0-1 0-1 1-3l1-1c26 47 50 94 73 140 21 43 36 74 44 93 1 2 2 3 3 3 0 0 2 0 3-1l16-13 17-13c1-1 1-2 1-3l-2-4c-12-21-38-61-79-120-39-57-62-89-69-96zM222 54c2 5 5 9 9 12 4 4 9 7 15 9 7 3 14 5 21 5s14-1 20-4c-6-10-15-17-27-21-13-5-26-5-38-1zm40-3c11 5 21 13 28 25 1 1 0 2 0 2-8 3-15 5-22 5-9 1-16-1-23-3-6-3-12-6-16-11-5-5-8-10-10-15-1-1 0-1 0-1 15-7 29-7 43-2z"/>
        <path fill="#0D131A" d="M244 49l1-1v1c1 1 1 1 0 2-2 1-4 4-6 9-2 4-2 8-2 11v1l-1 1c-1 0-1-1-1-1-1-4 0-9 2-14s4-8 7-9zM271 58h1l1 1c1 3 1 7 0 12-1 4-3 8-5 11h-2v-2c2-2 3-6 4-10s1-8 1-11c-1 0-1 0 0-1zM207 71c-2-5-6-9-11-11-6-3-14-6-22-7l-25-1c-6 0-11 1-14 2s-6 3-8 7c-3 2-6 6-8 11-3 6-5 9-5 11 5-3 10-5 15-4 4 0 9 2 16 4 10 3 17 5 20 6l23 5c5 1 10 0 13-2 4-3 6-5 7-9s1-8-1-12zm-10-15c7 4 11 8 13 14 2 5 3 10 1 15-1 4-4 7-8 10-5 3-10 4-16 3l-9-2-13-3c-4-1-11-3-20-7-7-2-13-4-16-4s-6 0-9 1-5 2-6 3-1 1-2 1c0 0-1-1-1-2s1-5 4-11 5-11 8-15c3-3 6-6 11-8 4-1 9-2 16-3 9 0 17 1 26 2 8 1 16 4 21 6zM152 434c-1 2-1 3-2 3s-1-1-1-3l4-30s1 0 2 1 2 1 1 2c-2 13-3 23-4 27zM169 412h2c1 0 2 1 1 1l-1 10-2 12c0 2-1 2-1 2-1 0-1-1-1-2l2-23z"/>
        <path fill="#0D131A" d="M184 431c7 1 11 3 12 6 0 2 0 3-1 4-1 3-7 7-16 12-11 4-24 9-41 15-15 4-30 8-45 11-22 4-33 4-35-1 0-1 0-2 1-3 7-9 19-18 38-27s37-15 54-18v3c0 1-1 2-1 2-18 2-38 10-60 21-9 5-16 9-21 13-6 4-8 7-8 8h19c15-2 34-7 56-14 21-6 36-11 46-16 6-3 10-5 11-7v-1c-1-2-4-3-9-5-6-1-11-1-16-1v-2c0-1 1-2 1-2 4 0 9 0 15 2z"/>
        <path fill="#0D131A" d="M95 457c3 1 5 2 7 3 3 2 4 4 5 6s1 4 1 7c1 1 0 1-1 1h-1c0-2-1-4-2-6s-3-3-5-5c-2-1-4-3-7-3l-9-1 1-1c2-1 3-1 3-1h8zM185 437c1 3 1 7 0 11h-2c0-1-1-1-1-1 1-3 1-6 0-8-2-3-4-5-6-6-1 0 0-1 1-1h2c2 1 4 3 6 5zM235 442l5-2c1 0 1 0 1 1v1l-4 2c-3 3-4 6-5 10h-1l-1-1c0-5 1-9 5-11zM293 496c1-3 2-6 5-8 4-6 11-8 21-7 0 0 1 0 1 1 1 1 1 1 0 1-7 0-14 2-19 7-3 3-5 5-6 8l-1-1c-1 0-1-1-1-1z"/>
        <path fill="#0D131A" d="M222 442c-1-2 0-3 1-4 2-2 6-3 11-3l8 1v2c0 1-1 1-1 1l-7-1c-5 0-8 1-9 3 0 3 4 8 12 16 9 8 20 16 33 24s28 15 43 21c14 6 22 7 24 5v-1c0-4-5-10-12-18-8-8-18-16-29-24-7-5-14-9-22-14-7-4-13-6-18-8v-2l1-1c7 2 14 5 22 9 7 4 14 8 19 12 11 8 21 17 29 25 8 9 12 15 13 20 0 2 0 3-1 4-3 3-12 2-28-3-16-6-30-13-44-21-12-8-22-16-31-24s-14-15-14-19z"/>
        <path fill="#0D131A" d="M240 441v-15l4-1-1 7-1 9c0 2-1 3-1 3-1 0-1-1-1-3zM256 425s0-1 1-1c2 0 2 0 2 1l-2 19c0 2 0 3-1 3 0 0 0-1-1-2v-10c0-4 0-7 1-10zM224 242c-2-2-5-3-8-5l-9-3-11 1c-4 1-7 2-9 4l-1 1 1 1c2 2 4 4 8 5 3 1 6 2 8 2 4 1 7 0 11-1s7-2 10-5zm-6-7c3 2 6 4 8 7 1 0 1 1 0 1-3 3-7 5-11 7-4 1-8 2-12 1-3 0-6-1-9-2-4-2-7-5-10-8v-3c3-2 6-4 10-5s8-2 13-1c4 0 7 1 11 3zM166 236c1 2 1 3 0 3-2 3-5 5-9 6-5 1-9 1-13 0 0 0-1-1 0-1 0-1 0-1 1-1h10c4-1 7-2 9-4l1-1-1-1c-1-2-4-3-7-5-3-1-5-1-8-1v-1l1-1c3 0 5 0 8 2 4 1 6 3 8 5z"/>
        <path fill="#0D131A" d="M150 241l1-4c0-2 1-4 2-5 0-1 1-1 1-1s1 0 1 1c-1 2-1 4-1 6l-2 6h-2v-3zM204 234c0-1 1-2 2-2 0 0 1 1 1 2l-1 8c0 4-1 6-1 8l-1 1c-1 0-1-1-1-2-1-2-1-4 0-7 0-3 1-6 1-8zM189 143c1-1 1 0 2 0l1 2c-21 36-38 74-53 114l-2-6c6-17 13-35 22-54 8-17 19-36 30-56zM132 297v-2-1s1 1 1 2v1c1 5 3 9 7 14 1 2 3 4 5 5v1c-2 19-6 51-12 96 0 1-1 1-2 2-7 0-14-1-19-3-4-1-6-3-7-5-1-1-1-10 1-25 2-19 5-39 10-59l8-15-4 15c-4 19-8 37-10 54-2 13-3 22-3 28l1 1c0 1 2 2 5 3 4 2 10 2 17 3 1-9 3-24 5-45 4-26 6-42 7-49-2-2-4-5-6-8-3-4-4-9-4-13zM276 139c0-1 0-1 1-2l2-1 4 17 4 28-2-3-2-4-7-35z"/>
        <path fill="#0D131A" d="M266 146l1-2h2c8 13 16 27 23 42 5 13 11 27 17 43l-15-27c-8-21-18-39-28-56zM322 288l-8-41c5 12 9 26 12 41 4 13 6 26 8 39l-5-9c-2-11-4-21-7-30zM199 322c-8 2-14 3-19 4-2 15-3 30-4 46-1 18-2 31-2 39 0 5 1 8 1 9 24 6 57 6 101 0l1 4c-16 3-33 4-51 5-22 0-40-2-53-7-1 0-2-3-2-7-1-8 0-22 1-44 1-9 2-20 3-32l2-15s0-1 1-1l16-4c12-3 21-7 26-13 0 0 1 0 1 1v2c-5 5-12 9-22 13zM138 282c0-1 1-1 1-1l2-1c3 8 12 14 26 17 16 3 31 1 45-5 1 0 1 0 1 1 1 1 1 1 0 1-15 7-31 9-46 6-14-2-24-9-29-18z"/>
        <path fill="#0D131A" d="M295 204c-6-6-13-12-23-17-6-3-12-5-18-7 2 8 2 14 2 20 0 18-5 34-15 47-9 12-21 20-35 24 17 32 34 68 53 108l23 50c15-5 29-12 41-19 16-9 30-20 43-32-2-5-9-15-19-30l-15-21c-6-8-10-14-12-18 0-10-1-23-4-36-4-28-11-51-21-69zm-45-26s0-1 1-1h1l6 1c4 1 8 3 12 4 13 5 22 13 28 21 5 8 10 19 14 34 8 22 11 46 11 70l23 34c13 19 21 30 23 34 0 1 1 2 1 3s-1 1-1 2c-10 11-24 22-44 33-17 10-32 17-43 20h-2l-79-162v-1l1-1c18-6 32-17 41-33s12-36 7-58zM134 226c3-18 14-34 33-48-19 8-33 22-42 44-6 15-10 30-10 45v3c-13 10-24 18-33 25-8 7-13 11-13 13-3 9-5 20-5 33 0 11 1 23 4 34 2 9 3 16 5 20 11-16 24-37 37-62 15-29 26-50 33-63-3-4-6-9-8-15-1-6-2-12-2-19 0-3 0-6 1-10zm41-54v2l-1 3c-10 5-18 12-24 21-7 9-11 18-13 28-1 8-1 16 0 24 2 8 5 14 9 19 0 0 1 0 0 1l-27 55c-19 36-34 61-45 73-1 1-1 1-2 1-2-1-4-7-7-19-3-13-4-26-4-39 0-6 0-12 1-18 1-7 2-12 4-16 1-3 6-8 14-15 9-8 20-15 33-23-1-19 3-36 10-52 11-23 28-38 52-45z"/>
        <path fill="#0D131A" d="M169 187c-1 0 0-1 0-1l1-1c6 15 10 25 12 27 3-2 13-10 30-24h2l3 4c3 3 5 7 8 11 7 13 12 27 15 42l-1 2c0 1-1 1-1 1-2-13-7-26-13-38-4-7-8-14-12-19-19 17-29 25-32 24-1 0-2-2-4-5-3-5-5-12-8-23z"/>
        <path fill="#0D131A" d="M253 205v1c1 1 1 2 0 2l-8 8c-4 3-8 5-12 7v-1c-1-1 0-2 0-2 7-4 14-9 20-15zM147 232s0 1 1 1v2c-4 1-7 3-9 6-2 1-3 3-3 4h-1l-1-1c0-2 1-4 3-5 2-3 6-6 10-7zM310 235v2h-1c-2-3-8-8-17-14-7-4-14-8-21-11-1 7-3 14-5 20l-4 10c11 5 19 10 25 13 15 9 27 18 36 28l-1 1c0 1-1 1-1 0-10-9-23-19-39-29l-22-12h-1v-1l4-9c3-8 4-15 5-23 1-1 1-1 2-1l17 8c11 6 19 12 23 18z"/>
        <path fill="#0D131A" d="M314 247l-1 1c-1 0-1 1-1 0-6-5-12-10-20-15-5-3-10-6-14-8-1 4-2 9-4 13l20 11c12 6 20 13 26 19 0 0 0 1-1 1l-1 1c-4-5-13-12-27-20l-19-10c-1-1-1-1 0-2 1-3 2-8 4-15 0-1 1-1 2-1l12 6c9 6 17 12 24 19zM122 351c7 2 12 4 16 5 1 0 1 0 0 1v1c-7-1-13-3-19-5l-6-2v-2c1 0 1-1 1-1l8 3zM136 368c1 0 1 0 1 1s-1 1-1 1c-7-1-14-2-19-4l-6-3v-1c0-1 1-1 1-1l7 3c6 1 11 3 17 4zM109 376h1l5 2c5 2 11 4 19 5v1c0 1 0 1-1 1-7 0-14-2-19-4l-6-3c0-1 0-1 1-2zM107 392s0-1 1-1v-1l7 3c6 2 12 3 18 4v1c0 1 0 1-1 1-7-1-13-2-18-4l-7-3zM246 361c1 0 1 0 1 1v1c-14 4-31 5-49 5l-23-3v-1c0-1 0-1 1-1l21 2c17 0 34-1 49-4zM252 374c1 0 1 0 1 1v1c-16 5-34 7-53 6l-18-2-7-1c-1 0-1-1-1-2 0 0 0-1 1-1l24 2c20 1 37 0 53-4zM200 396l-19-2-7-1c-1 0-1-1-1-1 0-1 0-1 1-1l26 2c21 1 41 0 60-4l1 1v2c-19 4-39 5-61 4zM267 404l1 1v1c-22 5-44 6-67 5l-21-3-7-1c-1 0-1-1-1-1 1-1 1-2 1-1l7 1 20 1c22 2 44 1 67-3zM105 290c1-1 2-1 2 0 0 0 0 1-1 2l-23 19c-10 9-17 15-19 17h-2v-2c4-4 11-10 20-18s17-14 23-18zM108 307c1-1 2-1 2-1 1 1 0 1-1 3l-20 24-24 28c0 1 0 1-1 0-1 0-1-1-1-1 5-6 12-15 22-26 8-10 16-19 23-27zM281 358c-1-2-1-2 0-2 0-1 1 0 2 1 5 7 11 18 18 31 9 14 14 23 16 28l-1 1h-2l-16-29-17-30zM311 344c-1-1-1-2-1-2 0-1 1 0 2 1l7 10 12 18 15 25s0 1-1 1c0 0-1 1-1 0l-16-24-17-29zM135 390l1-4c7 11 19 19 36 25 1 1 1 1 1 2s0 1-1 1c-12-4-22-8-28-14-3-2-6-6-9-10z"/>
    </g>
    <g id="179">
        <path fill="#FFE45F" d="M491 110c4 15 6 30 6 45 0 44-16 78-46 103l-27-70 8-11c11-4 19-13 25-27 7-17 9-38 5-65l15-2c3 0 6 1 7 2 2 6 5 14 7 25z"/>
        <path fill="#DCC552" d="M484 85c2 6 5 14 7 25 4 15 6 30 6 45 0 44-16 78-46 103l-5-25c25-21 38-49 39-84 0-13-2-25-6-35-4-9-10-14-16-15l-1-14 15-2c3 0 6 1 7 2z"/>
        <path fill="#3E4E57" d="M475 232c-5-16-12-28-20-36l-22-19 10-8c7-7 12-14 16-20 7 1 13 3 17 5 7 4 14 11 19 22-1 9-3 19-7 28-3 11-8 20-13 28zM462 85l15-2c3 0 6 1 7 2 4 10 7 21 10 35-6-5-12-8-19-8-5 0-10 1-12 4 1-9 1-19-1-31z"/>
        <path fill="#27333A" d="M495 176c-1 10-3 19-7 29s-8 19-14 28l-4-13c-1-4-3-6-5-8 6-6 10-14 14-25 2-6 4-15 5-26l6 7 5 8zM495 122c-7-7-13-11-18-10-2-6-6-11-14-14l-1-13 15-2c3 0 6 1 7 2 5 11 8 23 11 37z"/>
        <path fill="#FCE1B9" d="M508 52c0 11-4 20-11 27s-16 11-27 11c-10 0-19-4-27-11-7-7-11-16-11-27 0-10 4-19 11-27 8-7 17-11 27-11 11 0 20 4 27 11 7 8 11 17 11 27z"/>
        <path fill="#F8C170" d="M503 54c0 8-3 14-8 19s-11 8-19 8c-7 0-13-3-19-8-5-5-7-11-7-19 0-7 2-13 7-18 6-6 12-8 19-8 8 0 14 2 19 8 5 5 8 11 8 18z"/>
        <path fill="#3396CD" d="M207 412c-1-10 8-9 26 3 8 7 17 14 26 22-4 17-9 29-15 35-5 4-9 5-14 3-7 1-13-7-17-22-3-9-5-23-6-41z"/>
        <path fill="#2880AE" d="M207 412c-1-10 8-9 26 3 8 7 17 14 26 22l-5 17c-14-11-29-18-45-21l-2-21z"/>
        <path fill="#3396CD" d="M348 417l59-11c2 21 1 37-2 49-3 11-8 16-13 16-7 4-16-1-27-16-9-13-15-26-17-38z"/>
        <path fill="#2880AE" d="M407 441c-18-5-35-6-52-3-3-8-6-15-7-21l59-11c1 13 1 24 0 35z"/>
        <path fill="#3396CD" d="M122 431l57 3c0 26-4 45-12 56-3 4-6 7-10 8-3 1-5 0-6-1-9 3-15-4-19-23l-4-24c-1-9-3-15-6-19z"/>
        <path fill="#2880AE" d="M122 431l57 3c0 10-1 19-2 27-7-6-15-10-24-13-9-4-18-5-26-6-2-5-3-9-5-11z"/>
        <path fill="#3396CD" d="M300 486c-3 4-7 8-11 9h-6c-10 2-16-6-19-24l-4-24c-1-8-3-15-5-19h58c0 26-4 45-13 58z"/>
        <path fill="#2880AE" d="M259 441c-1-5-3-10-4-13h58c0 12-1 23-3 32-13-9-30-15-51-19z"/>
        <path fill="#FFFBDA" d="M427 173c13 10 22 20 27 29 10 17 9 36-2 56 10 13 14 28 12 43-3 16-13 30-29 42 2 12 1 24-4 36-5 11-12 20-22 27-11 8-23 13-36 15-15 1-29-1-44-6-14 17-34 24-59 23-23-2-42-11-57-27-18 15-35 24-53 26-16 3-30 0-43-7-12-7-22-16-29-28-6-11-9-22-7-33-32-9-47-28-47-57 0-10 2-21 6-31 4-9 9-16 14-19-16-10-24-22-26-38-1-14 4-27 14-38-2-11 0-21 4-31 5-10 11-17 20-23s18-9 29-9 22 3 32 9c1-15 6-29 16-41 10-11 22-19 36-24 15-5 29-6 44-4 15 3 28 10 39 20 5-6 13-10 22-14 11-4 22-6 33-5 29 2 50 18 63 49 15 1 27 8 35 19 9 11 13 25 12 41z"/>
        <path fill="#DCD9BD" d="M431 247c10-3 16-8 20-16 2-6 3-15 3-27 4 5 6 13 6 23 0 11-2 20-7 30 10 13 14 28 11 43-3 16-13 31-29 43 2 12 1 24-4 35s-12 21-22 28c-11 8-23 13-36 15-14 2-29 0-44-6-15 17-35 24-60 23-24-2-43-10-55-26-18 15-35 24-53 26-16 2-30 0-44-8-12-6-22-16-28-27-7-12-10-23-8-34-26-6-41-19-47-41-5-17-3-34 5-50-1 6-1 14 1 22 2 9 5 17 10 24 12 17 27 24 44 22-1 10 1 20 8 29 6 9 14 15 24 20 11 4 22 6 34 4 13-1 26-6 37-15 40 27 73 31 100 11 10-7 19-18 26-31 5-11 9-23 12-35 0-4 3-1 6 9 4 10 6 18 6 25 3 2 6 3 11 3 5-1 11-3 16-5 13-7 21-17 23-29 22-5 35-17 41-33 4-15 2-32-7-52z"/>
        <path fill="#FFE45F" d="M28 122c20-13 43-21 70-24v98c-26 0-49-6-69-18-7-5-14-10-19-15-4-5-6-9-6-12 0-9 8-18 24-29z"/>
        <path fill="#DCC552" d="M4 152c13 6 29 9 46 11l48 2v31c-25 0-47-6-67-17-16-9-25-18-27-27z"/>
        <path fill="#3E4E57" d="M75 102c8-2 16-3 23-4v98l-22-2c-7-9-12-22-14-39-2-20 2-37 13-53zM12 135c6-6 14-12 24-18-6 12-9 25-8 37 1 9 4 18 9 28-10-5-18-11-25-17-5-6-8-11-8-14 0-4 3-9 8-16z"/>
        <path fill="#27333A" d="M76 195c-6-10-10-20-13-31l35 2v30H87l-11-1zM37 182c-10-5-18-11-24-16s-9-10-9-14c7 3 15 5 26 8 1 8 4 15 7 22z"/>
        <path fill="#3396CD" d="M97 113c28-4 56-6 83-3 53 5 77 26 70 62-14 71-42 106-83 106-11 0-22-4-33-12-10-8-19-20-26-34-17-34-20-74-11-119z"/>
        <path fill="#2880AE" d="M250 172c-5 24-11 44-18 58-8 18-19 31-33 38 14-26 22-52 26-78 5-29 3-52-6-72 25 11 36 28 31 54z"/>
        <path fill="#FFFBDA" d="M240 128l-10-5c-7-3-12-5-15-5-1 10-3 19-8 27-6 10-13 18-23 23-15 8-30 9-45 3-15-5-26-15-36-30-8-15-12-33-9-55s10-39 23-52c11-11 26-17 45-18 18 0 32 5 44 15 8 7 15 19 22 35 8 20 12 41 12 62z"/>
        <path fill="#DCD9BD" d="M226 71c9 17 14 36 14 57-12-6-20-10-25-10-1 10-3 19-8 27-6 10-13 18-23 23-16 8-32 9-49 2-13-6-23-14-30-26-6-12-9-19-8-22 14 22 32 35 54 38l26-1c7-2 13-5 18-10 7-7 11-14 14-21s4-15 4-24c0-6-2-9-7-9-4 0-7 3-9 9-1 3-3 5-6 5-2 1-5 0-7-1-7-5-10-13-10-26s4-23 10-29c6-5 12-8 19-7s15 10 23 25z"/>
        <path fill="#FFE45F" d="M316 109c8 5 15 10 20 16 5 4 7 8 7 11s-1 7-5 13-9 12-16 18c-20 16-46 24-78 23-10-7-16-25-16-53 0-11 0-21 2-29 3-8 5-13 9-13 29-3 54 2 77 14z"/>
        <path fill="#DCC552" d="M230 160l54-2c23-3 42-8 57-15-5 12-14 22-28 30-18 12-41 18-69 17-7-5-11-15-14-30z"/>
        <path fill="#3E4E57" d="M230 108c3-8 5-13 9-13 10-1 20-1 31 0-8 14-12 32-10 53 1 18 5 31 11 41l-27 1c-10-7-16-25-16-53 0-11 0-21 2-29zM333 122c7 6 10 11 10 14 0 5-2 11-7 18-7 10-17 18-29 24-6-8-9-20-10-36-1-18 2-30 9-38 10 5 20 11 27 18z"/>
        <path fill="#27333A" d="M230 159c7 1 18 1 31 0 2 13 6 23 10 30l-27 1c-7-5-12-15-14-31zM306 178c-2-5-5-13-7-22 12-2 26-7 42-13-2 6-5 11-11 17-6 7-14 13-24 18z"/>
        <path fill="#0D131A" d="M460 89l5 1c2 22 1 40-3 54s-13 26-27 35c-1 0-1 0-3-2-1-1-1-2 0-2 12-8 21-19 25-32 6-15 7-33 3-54zM490 112c-2-8-4-16-7-23l4-1c9 22 13 46 12 71 0 20-4 38-12 55-8 16-19 31-33 43l2-6 2-7c13-12 23-27 29-45 5-15 8-30 8-46 0-14-2-27-5-41z"/>
        <path fill="#0D131A" d="M483 115c-4-1-7-2-11-2-3 0-6 1-8 2l-1-2 9-3c4 0 8 0 12 2 2 0 4 2 6 4 3 2 4 5 6 8l-2 1c-2-5-6-8-11-10zM458 148c8 0 16 3 22 7 8 5 13 13 16 23l-1 4c-2-10-8-18-16-23-6-5-14-7-22-9-1 0-1 0-1-1s1-1 2-1zM474 233l-2 1c-1-6-3-13-7-20-3-6-7-11-10-13l-4-8-4-6c7 4 14 11 19 21 5 9 8 17 8 25zM496 27c-8-7-16-11-26-11s-18 4-25 11-11 15-11 25 4 18 11 26c7 7 15 10 25 10s18-3 26-10c7-8 10-16 10-26s-3-18-10-25zm-25-16c11 0 21 4 28 12 8 8 12 18 12 29 0 12-4 21-12 29-7 8-17 12-28 12s-21-4-29-12-12-18-12-29 4-21 12-29 18-12 29-12zM177 434l6-2c0 22-3 40-10 52-4 8-9 13-14 15-3 1-6 2-9 2-4-1-7-1-9-3-4-2-6-6-8-13-1-3-3-10-4-21-1-6-3-12-5-19-2-6-4-11-5-14h6c2 4 3 8 4 13l3 17c2 10 3 17 4 21 1 6 4 11 6 12 3 2 5 2 6 2-1-3-2-7-2-13-1-5-1-8 0-11 0-1 0-2 1-2 0 0 1 0 1 2 1 10 1 16 2 19 2 5 4 6 8 4 5-2 9-8 13-17 4-11 6-26 6-44zM256 447l-4-12 4 2 5 2c1 5 2 11 3 20 2 9 3 16 4 20 2 7 4 11 7 13 2 1 4 2 6 1-2-2-3-5-3-10v-10c0-3 0-4 1-4s1 1 1 3c1 10 2 16 4 19 1 2 3 3 6 2 5-3 10-9 14-19 5-12 7-27 7-46l6-1c0 20-3 36-9 49-4 10-10 17-17 20-2 2-5 2-9 2-3 0-6-1-9-2-3-2-6-7-9-14-1-5-3-12-5-22 0-3-1-7-3-13z"/>
        <path fill="#0D131A" d="M205 419v-3l5-3v4c1 14 3 23 4 29 3 12 6 20 10 24l4 3c-1-3-2-6-2-10s1-7 1-10c1-2 1-3 2-3s1 1 1 3c-1 10 0 16 2 19 1 2 3 2 6 2 7-3 14-16 19-38l4 2c-6 23-13 36-22 39l-9 1c-2 0-5-2-8-4-8-6-14-25-17-55zM410 405c2 15 1 29-1 41-2 11-5 19-9 23-2 2-5 4-8 5-4 1-8 0-11-1-8-4-15-12-23-24-7-11-11-22-13-31h6c2 9 6 19 12 29 7 11 13 18 19 22 5 2 7 1 8-2 1-2 1-7 0-13 0-3 1-4 1-4 1-1 2 1 2 4l2 8c0 3 0 5-1 6l3-2c8-7 10-27 7-57l6-4z"/>
        <path fill="#0D131A" d="M417 166l7 2c1-13-2-24-11-35-8-10-18-15-31-17 2 7 3 11 1 12-1 0-3-3-5-10-3-14-12-26-24-36-13-11-26-16-40-16-12 0-24 3-35 9-10 5-18 11-25 19h-5c8-11 17-20 29-25 11-6 24-9 37-9 13 1 25 5 36 12 13 9 23 22 30 39 16 2 29 8 37 19 8 10 12 24 11 41 16 9 26 22 31 38 5 17 4 33-4 49 8 11 12 24 11 39 0 9-3 18-8 25-5 8-12 15-22 21 3 8 3 17 0 27-3 13-10 25-21 35s-25 17-41 19c-16 1-31-1-47-7l3-4c15 4 29 6 42 4 16-1 29-7 39-17 9-7 14-16 18-26 3-9 4-18 3-28-3 2-7 4-12 6-3 1-5 2-6 1 0 0 1-2 5-4 22-14 36-30 39-48 4-17-1-34-14-52-2-3-3-5-2-5s2 0 4 3l5 5c7-18 7-34-1-50-7-13-18-23-32-31-4-2-6-4-6-5h4z"/>
        <path fill="#0D131A" d="M386 364c1-3 2-4 3-3 1 0 1 1 1 4-2 12-8 22-18 31s-24 14-40 16l5-7c14-2 26-7 34-16 4-5 9-13 15-25zM265 81l-4 3c-5-4-10-8-15-10-3-2-9-4-16-6l-4-8c8 3 15 5 21 8 7 3 13 8 18 13z"/>
        <path fill="#0D131A" d="M41 185l2 1 2 1c-4 4-8 10-10 18-3 8-4 15-3 23 1 6 4 13 8 19 5 5 9 10 15 13l1-1c1 0 2-1 4-1h3c0 1-1 1-3 2-6 4-12 11-17 23-5 10-7 20-6 30 0 11 3 21 8 29 8 12 19 19 34 23l2-9c1-2 2-3 3-3s1 1 1 3c-2 16-1 30 5 42 5 12 14 22 27 29 14 8 30 10 46 8 16-3 32-11 47-25-2-4-4-8-6-11-1-4-1-6 0-7 0 0 3 2 6 8 10 15 23 26 41 32 16 5 33 5 51-1 11-4 20-13 29-28 11-17 14-36 9-56 0-2 0-4 1-5s2 1 3 4c7 20 5 39-5 57-9 16-21 27-36 32-17 7-34 8-51 4-16-4-30-12-39-24-17 13-33 21-50 25-17 3-33 1-48-8-13-7-23-17-30-30-5-11-7-21-6-31-17-4-29-13-38-25-7-10-10-21-10-33 0-11 1-21 5-30 3-9 8-16 15-21-6-2-11-6-15-10-6-7-10-15-11-23-1-9 0-18 4-26 3-8 7-13 12-18z"/>
        <path fill="#0D131A" d="M25 120c20-13 42-21 69-24v6c-27 2-49 10-67 22-14 10-21 19-21 27 0 2 2 6 6 10 5 5 10 10 17 14 19 12 39 18 62 18l8 7c-27 0-51-7-71-20-9-5-15-10-20-16-5-5-7-10-7-13 0-10 8-20 24-31z"/>
        <path fill="#0D131A" d="M61 132c2-8 4-15 7-21 3-5 6-9 10-11h1c-3 2-5 6-8 12s-5 13-6 21c-2 11-2 22 0 33 3 12 7 22 14 29h-3c-7-7-12-17-14-30-2-10-2-21-1-33zM30 129c2-6 5-10 8-13l2-1c-2 3-5 7-7 13s-3 12-3 18c0 8 1 16 3 23s5 12 8 15l-1 2c-4-4-7-9-10-16-2-7-4-15-3-23 0-6 1-12 3-18zM243 189l6 3c-6 27-18 49-36 66-16 15-32 22-46 22-11 0-22-4-32-11-11-8-20-19-28-32-18-34-22-74-12-122l2 13c-6 46 0 84 19 112 7 12 16 21 26 27 9 6 17 9 25 9 13 0 27-7 42-21 17-17 29-39 34-66zM217 117c5 1 8 2 11 4l-1 3c-4-2-7-4-11-5l1-2z"/>
        <path fill="#0D131A" d="M208 29c9 9 16 18 21 29 5 10 9 23 10 38l-6 5c-2-16-5-28-9-39-5-12-11-22-20-30-11-10-25-14-43-14-18 1-32 7-43 17-12 13-19 30-22 51s0 39 9 54 21 25 35 30c15 5 29 3 43-4 11-5 19-14 24-26 5-10 7-20 6-32-1-15-4-23-8-26-4-1-7 1-11 6-3 5-4 10-4 15 0 4-1 5-2 4s-2-2-2-4c-1-5 0-10 2-16 2-7 6-11 11-12 3-1 6 0 8 2 3 2 6 6 8 11 2 6 3 12 4 20 0 12-2 23-7 34-5 13-14 22-25 28-15 8-31 9-48 4-16-5-30-16-39-32-10-15-13-34-10-57s11-42 24-54c12-12 27-19 45-19 20-1 36 5 49 17z"/>
        <path fill="#0D131A" d="M341 136c0-1-1-3-3-5-2-4-5-7-9-10-8-7-18-13-30-17-18-7-38-9-60-7-2 1-4 4-6 11-2 8-3 17-3 27 0 12 1 22 3 32 3 10 7 17 12 21 20 1 38-3 53-9 12-5 21-12 30-20 4-4 7-9 10-14 2-4 3-7 3-9zm-8-19c4 3 7 7 10 11 3 3 4 6 4 8 0 3-1 7-4 12s-7 10-11 15c-21 22-50 32-87 32l-1-1c-9-6-14-19-17-39-3-18-3-34 1-46 1-5 2-8 4-11s4-5 6-5c23-2 44 0 63 6 13 5 23 11 32 18z"/>
        <path fill="#0D131A" d="M258 134c1-20 5-34 12-40l1 2c-6 5-9 18-10 38-1 22 3 40 11 54l-1 1c-10-14-14-32-13-55zM304 103l2 1c-5 6-7 17-7 33 0 17 3 30 8 39l-1 1c-7-10-10-23-10-39-1-16 2-28 8-35zM173 260h1c1 1 1 1 1 2-1 2-3 4-4 5s-2 0-2-1l2-3 2-3zM146 260l2 3 1 3c0 1 0 2-1 1-2-2-4-4-4-5-1-1-1-2 0-2h2zM104 178c3 0 6 2 9 5 2 3 3 7 3 12 0 4-1 8-4 11-2 3-5 5-8 5-4 0-6-2-9-5-2-3-3-7-3-11-1-4 0-8 3-12 2-3 5-5 9-5zM234 192c0 4-2 9-5 12s-7 5-12 5-9-2-12-5-5-8-5-12c0-5 2-10 5-13s7-5 12-5 9 2 12 5 5 8 5 13z"/>
        <path fill="#fff" d="M462 46c-2 3-5 4-7 5-4 1-6 1-9-1-2-1-4-4-4-7-1-3 0-6 2-9s4-5 7-5c3-1 6-1 8 1 3 1 4 4 5 7 0 3 0 6-2 9zM102 192c-2-1-2-3-2-4 0-2 0-4 1-5s3-2 4-2c2 0 3 1 4 2s2 3 2 5c0 1-1 3-2 4s-2 2-3 2c-2 0-3-1-4-2zM217 176c2 0 3 0 5 2 1 1 2 3 2 4 0 2-1 3-2 5-1 1-3 2-5 2s-3-1-4-2c-2-1-2-3-2-5s0-3 2-4c1-2 2-2 4-2z"/>
    </g>
</svg>
